M48
;GenerationSoftware,Autodesk,EAGLE,9.5.2*%
;CreationDate,2020-03-12T16:52:31Z*%
FMAT,2
ICI,OFF
METRIC,TZ,000.000
T4C0.381
T3C0.900
T2C1.100
T1C1.118
%
G90
M71
T1
X-10160Y52070
X-40640Y52070
X-13970Y52070
X-17780Y49530
X-20320Y52070
X-43180Y49530
X-45720Y52070
X-48260Y49530
X-50800Y52070
X-53340Y49530
X-55880Y52070
X-57150Y41910
X-54610Y39370
X-57150Y36830
X-54610Y34290
X-22860Y49530
X-57150Y31750
X-54610Y29210
X-57150Y26670
X-54610Y24130
X-25400Y52070
X-27940Y49530
X-30480Y52070
X-33020Y49530
X-35560Y52070
X-38100Y49530
T2
X-8255Y28575
X-5715Y26035
X-8255Y26035
X-5715Y23495
X-8255Y23495
X-5715Y20955
X-8255Y20955
X-5715Y18415
X-8255Y18415
X-5715Y28575
T3
X-57495Y8156
X-54495Y8156
T4
X-47053Y35852
X-35941Y41148
X-40891Y40513
X-23444Y40386
X-20066Y40386
X-45085Y35052
X-28384Y35243
X-7349Y45720
X-10177Y45339
X-15088Y41275
X-3937Y40894
X-16739Y35281
X-39243Y12175
X-36449Y12338
X-32004Y35687
X-46101Y22225
X-24892Y40513
X-13462Y45720
X-25307Y8255
X-23749Y19685
X-24894Y23239
X-25590Y39688
X-29464Y35052
X-27940Y29083
X-23893Y17724
X-6223Y12700
X-13259Y6960
X-26052Y14999
X-27813Y16002
X-14351Y22860
X-12675Y13386
X-25053Y11989
X-26416Y7849
X-22479Y22826
X-28719Y8526
X-41148Y11049
X-22352Y27305
X-38486Y27211
X-9144Y32639
X-16828Y28765
X-51816Y11176
X-36322Y11557
X-25400Y13633
X-13462Y46609
X-33655Y28194
X-29591Y24003
X-33782Y26924
X-28829Y25273
X-8289Y44958
X-3776Y36339
X-38076Y40655
X-21478Y39664
X-32639Y16140
X-25402Y15492
X-23431Y17082
X-13699Y15320
X-52783Y47699
X-49115Y47625
X-47269Y47803
X-44577Y47625
X-42596Y47625
X-39954Y47727
X-37389Y47625
X-34925Y47701
X-32233Y47803
X-29566Y48362
X-25959Y48539
X-24435Y48311
X-20618Y49251
X-19177Y48370
X-16192Y46545
X-14356Y45847
X-52832Y41910
X-57023Y48514
X-14938Y45179
X-52451Y24130
X-52908Y26382
X-52705Y34290
X-52739Y31843
X-52806Y37212
X-52705Y39370
X-15636Y43195
X-18440Y45618
X-21251Y42407
X-16682Y42589
X-21031Y47625
X-19272Y40519
X-16544Y40289
X-23324Y47735
X-3683Y44196
X-26416Y43815
X-24130Y54476
X-24801Y49875
X-3302Y43307
X-28499Y43561
X-3873Y42586
X-28583Y47709
X-24578Y43388
X-3111Y42355
X-29970Y50167
X-3226Y38955
X-31750Y43688
X-31140Y48522
X-3962Y38668
X-30607Y43019
X-28067Y40386
X-3251Y37795
X-30353Y41853
X-35018Y49327
X-4018Y37584
X-28175Y39392
X-29845Y40894
X-36246Y48412
X-35585Y50038
X-39531Y48463
X-41207Y48400
X-29464Y39967
X-29464Y33782
X-44958Y48387
X-16815Y38227
X-47600Y43663
X-46414Y48362
X-15748Y37192
X-46439Y43109
X-16853Y37021
X-48539Y42985
X-48929Y43942
X-16213Y36531
X-50673Y48641
X-15958Y33890
X-52197Y43561
X-51308Y43713
X-16510Y33334
X-50546Y43527
X-44069Y40259
X-15099Y33641
X-53340Y43468
X-15367Y32885
X-54229Y43527
X-55880Y48895
X-45593Y39116
X-60071Y20955
X-9618Y46626
X-25654Y54458
X-22720Y40741
X-14918Y34856
X-3252Y35687
X-32768Y30351
X-16747Y31193
X-28702Y31784
X-6731Y45212
X-15113Y30607
X-5588Y33782
X-34417Y9779
X-16958Y23114
X-24137Y13419
X-11049Y15020
X-11049Y23343
X-5470Y45047
X-8128Y45853
X-15113Y39700
X-3302Y39751
X-8509Y49022
X-47890Y35321
X-48929Y38100
X-53213Y35560
X-48840Y34688
X-48827Y36855
X-44450Y31403
X-55626Y43561
X-42545Y24130
X-42672Y39624
X-48895Y40132
X-50673Y41190
X-33020Y38481
X-48387Y33528
X-32639Y34959
X-54991Y31115
X-32004Y36957
X-48641Y31623
X-32893Y36322
X-53645Y27508
X-30700Y28194
X-48387Y28804
X-32512Y32893
X-48133Y25654
X-44450Y26958
X-44513Y23529
X-15621Y31242
X-16095Y45085
X-12739Y50580
X-28575Y30683
X-31902Y30251
X-18669Y28575
X-22225Y24672
X-29176Y28956
X-34544Y28812
X-27940Y34544
X-5984Y46340
X-16643Y45739
X-16027Y34823
X-43688Y12446
X-55245Y11938
X-27070Y23749
X-19448Y39726
X-35262Y40596
X-31496Y34417
X-45847Y34417
X-4191Y45739
X-15122Y31886
X-6731Y32893
X-13208Y16404
X-13589Y30353
X-15875Y22987
X-13716Y31369
X-11396Y33274
X-12700Y30099
X-19173Y18284
X-20193Y18796
X-21654Y25209
X-25146Y28321
X-18606Y22920
X-24644Y27578
X-18034Y18669
X-38100Y37719
X-17399Y18034
X-25654Y27559
X-20633Y15027
X-19558Y26289
X-40808Y25908
X-19102Y11355
X-40435Y26670
X-16290Y11430
X-39918Y27257
X-19152Y12598
X-41656Y25654
X-21429Y11539
X-35497Y26434
X-17902Y11679
X-18035Y39713
X-20693Y39827
X-4953Y46228
X-20650Y48336
X-34359Y39751
X-37240Y40767
X-4064Y44958
X-13589Y12827
X-49454Y8839
X-13970Y8890
X-49403Y7620
X-13335Y9652
X-8128Y29972
X-13335Y14478
X-22606Y17814
X-25438Y14516
X-40259Y13843
X-33655Y21717
X-33401Y7874
X-42164Y7563
X-46660Y7588
X-16002Y29972
X-23114Y18415
X-3252Y36930
X-32514Y31367
X-29608Y31837
X-20955Y18415
X-3238Y34862
X-24477Y26797
X-39116Y26670
X-9417Y31877
X-10922Y45085
X-23923Y39583
X-40005Y39624
X-38227Y32131
X-38227Y33528
X-41148Y37211
X-24638Y37606
X-22415Y32067
X-18793Y34290
X-22352Y33649
X-22084Y35435
X-12573Y45466
X-3048Y41529
X-4191Y14083
X-4191Y18542
X-4191Y23495
X-10829Y32737
X-33274Y13589
X-33274Y10840
X-30607Y17663
X-30607Y16427
X-31623Y17663
X-31623Y12827
X-41021Y8128
X-43739Y9271
X-29337Y10905
X-29242Y9669
X-20862Y40634
X-45466Y35814
X-26289Y23241
X-26263Y28321
X-27051Y40259
X-38862Y40767
X-15195Y40481
X-7302Y39103
X-20862Y22771
X-27813Y30929
X-49344Y17932
X-20345Y27559
X-47092Y28355
X-23241Y26797
M30