M48
;GenerationSoftware,Autodesk,EAGLE,9.6.0*%
;CreationDate,2020-05-07T15:10:36Z*%
FMAT,2
ICI,OFF
METRIC,TZ,000.000
T8C0.381
T7C0.560
T6C0.710
T5C0.740
T4C0.900
T3C1.118
T2C1.190
T1C1.980
%
G90
M71
T1
X-56439Y4067
T2
X-18619Y12167
X-56439Y12167
T3
X-20320Y52070
X-43180Y49530
X-45720Y52070
X-48260Y49530
X-50800Y52070
X-53340Y49530
X-55880Y52070
X-57150Y41910
X-54610Y39370
X-57150Y36830
X-54610Y34290
X-22860Y49530
X-57150Y31750
X-54610Y29210
X-57150Y26670
X-54610Y24130
X-25400Y52070
X-27940Y49530
X-30480Y52070
X-33020Y49530
X-35560Y52070
X-38100Y49530
X-40640Y52070
X-17780Y49530
X-13970Y52070
X-10160Y52070
T4
X-53971Y5514
X-47171Y5514
T5
X-7899Y27737
X-9169Y26467
X-9169Y27737
X-10439Y26467
X-10439Y27737
X-6629Y26467
X-11709Y27737
X-6629Y27737
X-7899Y26467
X-11709Y26467
T6
X-3378Y20019
X-3378Y13509
T7
X-5778Y13149
X-5778Y20379
T8
X-15088Y41275
X-3937Y40894
X-16739Y35255
X-31496Y35458
X-24892Y40513
X-13462Y45720
X-23012Y13843
X-31039Y13991
X-33020Y14783
X-34874Y23190
X-25844Y40272
X-29108Y34620
X-27940Y29083
X-9347Y23216
X-19710Y4166
X-24592Y11481
X-39878Y12827
X-10566Y12937
X-21311Y13640
X-7643Y13411
X-13056Y11506
X-19660Y9525
X-11118Y15208
X-20752Y14402
X-11252Y12344
X-19996Y12643
X-13437Y10592
X-20504Y8681
X-39573Y19456
X-22662Y8272
X-22352Y27305
X-38486Y27211
X-9144Y32639
X-16828Y28765
X-13462Y46609
X-33655Y28194
X-8289Y44983
X-3776Y36339
X-38025Y40401
X-21579Y39588
X-6579Y22925
X-12598Y19990
X-5639Y31521
X-5486Y23597
X-13835Y18673
X-41046Y9500
X-32715Y9423
X-3100Y2089
X-28956Y8280
X-17551Y18593
X-13792Y19558
X-10803Y19576
X-52783Y47699
X-49115Y47625
X-47269Y47803
X-44577Y47625
X-42596Y47625
X-39954Y47727
X-37389Y47625
X-34925Y47701
X-32233Y47803
X-29566Y48362
X-25959Y48539
X-24435Y48311
X-20618Y49251
X-19177Y48370
X-16192Y46545
X-14356Y45847
X-52832Y41910
X-57023Y48514
X-14938Y45179
X-52451Y24130
X-52857Y26154
X-52705Y34290
X-52739Y31843
X-52806Y37212
X-52705Y39370
X-15763Y43373
X-18440Y45618
X-21251Y42407
X-16682Y42589
X-21031Y47625
X-18891Y40291
X-16544Y40289
X-23324Y47735
X-3683Y44196
X-26416Y43815
X-24130Y54476
X-24801Y49875
X-3302Y43307
X-28499Y43561
X-3873Y42586
X-28583Y47709
X-24578Y43388
X-3111Y42355
X-29970Y50167
X-3226Y38955
X-31750Y43688
X-31140Y48522
X-3962Y38668
X-30607Y43019
X-28067Y40386
X-3251Y37795
X-30353Y41853
X-35018Y49327
X-4018Y37584
X-28175Y39392
X-29845Y40894
X-36246Y48412
X-35585Y50038
X-39531Y48463
X-41207Y48400
X-29464Y39967
X-28931Y33858
X-44958Y48387
X-16815Y38227
X-47600Y43663
X-46414Y48362
X-16256Y37548
X-46439Y43109
X-16853Y37021
X-48539Y42985
X-48929Y43942
X-16213Y36531
X-50673Y48641
X-15932Y33916
X-52197Y43561
X-51308Y43713
X-16510Y33334
X-50546Y43527
X-44069Y40259
X-14641Y33260
X-53340Y43468
X-15367Y32885
X-54229Y43527
X-55880Y48895
X-45593Y39116
X-60071Y20955
X-9618Y46626
X-25654Y54458
X-22720Y40741
X-14791Y34043
X-3252Y35687
X-32768Y30351
X-16747Y31193
X-28702Y31784
X-6604Y45339
X-15113Y30607
X-5588Y33782
X-16421Y27991
X-5470Y45047
X-8230Y45777
X-15113Y39700
X-3302Y39751
X-8509Y49022
X-47890Y35321
X-48929Y38100
X-53213Y35560
X-48840Y34688
X-48827Y36855
X-44450Y31403
X-55626Y43561
X-42545Y24130
X-42672Y39624
X-48895Y40132
X-50673Y41190
X-33020Y38481
X-48387Y33528
X-31928Y34400
X-54991Y31115
X-32182Y37643
X-48641Y31623
X-31598Y37059
X-53645Y27508
X-30700Y28194
X-48387Y28804
X-32512Y32893
X-45263Y34544
X-48133Y25654
X-44450Y26958
X-31344Y25298
X-15621Y31242
X-16095Y45085
X-12739Y50580
X-28575Y30683
X-31902Y30251
X-15054Y37363
X-14961Y43311
X-32207Y24757
X-52807Y22987
X-29176Y28956
X-34544Y28812
X-21514Y24595
X-27940Y34417
X-5984Y46340
X-16643Y45739
X-15926Y35281
X-12040Y23778
X-31547Y23512
X-36779Y4369
X-19448Y39700
X-35262Y40596
X-31090Y32995
X-45466Y35839
X-4191Y45739
X-15122Y31886
X-6731Y32893
X-7849Y9107
X-14828Y2733
X-9432Y7563
X-13716Y31369
X-11396Y33274
X-12700Y30099
X-12497Y2556
X-12378Y6045
X-25146Y28321
X-13843Y3368
X-24644Y27578
X-14320Y6071
X-16010Y22614
X-15685Y2758
X-24477Y26797
X-13856Y8979
X-25654Y27559
X-13741Y8204
X-19558Y26289
X-14393Y15773
X-40808Y25908
X-9380Y6427
X-40435Y26670
X-7010Y9169
X-39918Y27257
X-8773Y9134
X-41504Y24105
X-6883Y6172
X-14275Y4860
X-38100Y37719
X-6941Y7664
X-17882Y39180
X-20794Y39573
X-4953Y46228
X-20650Y48336
X-34359Y39751
X-37240Y40589
X-4064Y44958
X-12431Y10983
X-41758Y6299
X-38550Y8136
X-19736Y6299
X-12429Y10058
X-9830Y11684
X-4699Y11506
X-2946Y23012
X-21626Y25948
X-28728Y1993
X-29273Y11316
X-11589Y19717
X-10312Y23292
X-37998Y3336
X-34188Y2667
X-20269Y7908
X-17527Y19583
X-16002Y29972
X-3252Y36930
X-32514Y31367
X-29608Y31837
X-13614Y5309
X-14453Y25273
X-3238Y34862
X-12268Y4775
X-23241Y26797
X-39116Y26670
X-9747Y31902
X-11024Y45110
X-23923Y39583
X-40005Y39624
X-38837Y12370
X-29337Y4394
X-36982Y11989
X-27161Y3378
X-17527Y8221
X-23910Y13183
X-35497Y26866
X-24740Y3556
X-38227Y32131
X-38227Y33528
X-41148Y37211
X-24638Y37606
X-22415Y32067
X-18793Y34290
X-22352Y33649
X-22084Y35435
X-12573Y45466
X-3048Y41529
X-20862Y40481
X-44298Y36652
X-26263Y28321
X-27051Y40259
X-39065Y40615
X-15272Y40507
X-7302Y39103
X-27813Y30929
X-47092Y28355
X-47053Y35852
X-11100Y23317
X-6477Y30683
X-7338Y16459
X-9305Y19202
X-17527Y17043
X-13716Y16967
X-49301Y8788
X-54432Y8636
X-31102Y10323
X-34747Y10160
X-18796Y8407
X-31521Y36247
X-14954Y35884
X-10495Y30260
X-31115Y7468
X-24033Y8229
X-35814Y41199
X-40891Y40513
X-23444Y40386
X-20142Y40081
X-44552Y35890
X-27978Y35293
X-7349Y45720
X-10177Y45339
X-22153Y13691
M30