M48
;GenerationSoftware,Autodesk,EAGLE,9.6.2*%
;CreationDate,2021-02-25T16:48:49Z*%
FMAT,2
ICI,OFF
METRIC,TZ,000.000
T11C0.381
T10C0.560
T9C0.650
T8C0.710
T7C0.750
T6C0.850
T5C0.900
T4C1.000
T3C1.118
T2C1.190
T1C1.980
%
G90
M71
T1
X-56363Y2949
T2
X-56363Y11049
X-18543Y11049
T3
X-55143Y41504
X-9271Y46660
X-57683Y38964
X-55143Y36424
X-57683Y33884
X-55143Y31344
X-42291Y49200
X-11811Y49200
X-14351Y46660
X-16891Y49200
X-19431Y46660
X-24511Y46660
X-27051Y49200
X-4242Y37897
X-56439Y25044
X-51308Y25933
X-4191Y46660
X-6731Y49200
X-29591Y46660
X-32131Y49200
X-34671Y46660
X-37211Y49200
X-39751Y46660
X-21971Y49200
X-57683Y49124
X-55143Y46584
X-57683Y44044
T4
X-51765Y19050
T5
X-52828Y5692
X-46028Y5692
T6
X-27813Y11328
T7
X-21285Y21082
X-58649Y30175
X-3048Y33071
X-24613Y49708
X-54762Y49987
X-49860Y21717
X-35560Y20930
X-27534Y21006
X-13437Y20218
X-41199Y39624
X-20701Y36601
X-22301Y39726
X-42088Y20472
T8
X-35023Y2870
X-41533Y2870
T9
X-33884Y10566
X-41274Y12350
T10
X-41893Y5270
X-34663Y5270
T11
X-21133Y18644
X-17501Y18644
X-45796Y25425
X-31439Y25024
X-35154Y19482
X-31890Y19516
X-48054Y20117
X-17043Y25019
X-39954Y7916
X-31348Y21865
X-41300Y9000
X-34849Y8763
X-33782Y6883
X-37694Y13762
X-38468Y11892
X-46660Y29032
X-46507Y18593
X-34290Y28325
X-20320Y28245
X-32874Y28785
X-21395Y15299
X-18263Y28423
X-5580Y28254
X-7772Y18839
X-52680Y29007
X-18009Y6299
X-15621Y21412
X-11049Y36627
X-15045Y22657
X-10586Y37313
X-14742Y21423
X-4928Y40829
X-13860Y21768
X-9017Y39624
X-11201Y21641
X-7468Y40855
X-10728Y22581
X-8344Y36843
X-10262Y21641
X-9881Y40728
X-9495Y22555
X-7847Y34263
X-11659Y37663
X-12370Y40753
X-17628Y33054
X-17738Y40699
X-14910Y40728
X-16535Y39490
X-16815Y40779
X-15799Y35255
X-15240Y36988
X-19845Y40779
X-12771Y36564
X-12214Y36003
X-29908Y21882
X-22581Y40779
X-29362Y22581
X-25770Y40528
X-29024Y21873
X-25070Y40906
X-28224Y22052
X-27813Y39243
X-25584Y21927
X-27584Y40855
X-25052Y22651
X-24257Y37423
X-24486Y21895
X-23788Y36323
X-30023Y40792
X-23969Y22644
X-23012Y36779
X-32131Y40906
X-31839Y35598
X-31033Y35541
X-31114Y39319
X-33934Y40779
X-29958Y35291
X-33401Y36220
X-37135Y41007
X-35890Y37905
X-40361Y40753
X-36060Y40263
X-35631Y40968
X-35103Y33317
X-21412Y33833
X-5817Y33982
X-16229Y19429
X-17634Y31153
X-34277Y31702
X-20587Y32448
X-6096Y32410
X-22314Y14249
X-18034Y15397
X-7188Y16097
X-11862Y22555
X-11855Y33611
X-16849Y32267
X-39980Y21865
X-49516Y45949
X-47558Y45856
X-39199Y21869
X-47244Y45060
X-38632Y22733
X-49414Y44196
X-46799Y44407
X-38207Y22053
X-45644Y43586
X-44018Y21895
X-42697Y41127
X-45987Y37351
X-43427Y22549
X-49301Y46812
X-42831Y21889
X-49229Y49098
X-42266Y22454
X-48209Y47346
X-49491Y41808
X-46489Y32417
X-49555Y40792
X-47297Y33170
X-48260Y37541
X-49440Y38913
X-47320Y34244
X-48103Y38329
X-46533Y34252
X-47155Y37605
X-49389Y37109
X-48946Y35712
X-46585Y35910
X-49566Y33892
X-50343Y12700
X-44983Y12268
X-49200Y10431
X-31833Y31267
X-46107Y30855
X-40037Y22803
X-41199Y35966
X-45415Y32487
X-6045Y30175
X-11455Y13207
X-5785Y25038
X-10236Y14593
X-5232Y26161
X-11761Y5889
X-6223Y24384
X-11017Y14593
X-6231Y25700
X-12344Y7722
X-20072Y24994
X-15183Y14142
X-20529Y25648
X-13995Y14199
X-19609Y26086
X-12895Y14279
X-20552Y24375
X-12903Y13487
X-20494Y30281
X-9169Y6756
X-16923Y15371
X-34239Y25036
X-17043Y8458
X-7967Y7950
X-34678Y25826
X-8153Y10846
X-15646Y9303
X-33985Y26187
X-9157Y9131
X-15875Y10084
X-34631Y24349
X-7977Y6681
X-17824Y8321
X-34665Y30099
X-6862Y9225
X-16256Y10820
X-39370Y28143
X-26137Y33299
X-31420Y32480
X-7582Y13754
X-19710Y5766
X-5740Y14249
X-20104Y4204
X-6756Y13768
X-19914Y4985
X-13589Y3277
X-26784Y16574
X-27813Y4928
X-39726Y11130
X-36195Y12573
X-43078Y25222
X-5144Y34561
X-12497Y15397
X-34138Y33858
X-22257Y34411
X-16648Y20208
X-11887Y14890
X-4274Y32186
X-20301Y27451
X-34114Y27549
X-5736Y27473
X-16916Y26670
X-31224Y26623
X-45385Y26772
X-40843Y7908
X-45136Y21865
X-43726Y9085
X-29274Y25095
X-37313Y20544
X-37338Y22657
X-23165Y22606
X-23089Y19228
X-47371Y17831
X-26212Y22683
X-17348Y2413
X-23812Y27978
X-26035Y31601
X-11188Y30289
X-45720Y12548
X-46355Y10389
X-8204Y29388
X-13144Y31347
X-27407Y30912
X-41599Y31474
X-14823Y28918
X-43561Y28270
X-15037Y24765
X-11386Y25736
X-47396Y31394
X-9638Y38611
X-16473Y38557
X-16764Y35052
X-27708Y38269
X-27915Y33757
X-35355Y38915
X-46625Y39700
X-27121Y28188
X-37973Y28143
X-40843Y21895
X-26416Y21895
X-12103Y21628
X-17483Y30310
X-31826Y30480
X-45339Y30150
X-31223Y27404
X-45930Y27502
X-16923Y27483
X-12802Y33503
X-26772Y35230
X-41707Y34265
X-27813Y8204
M30