G04 EAGLE Gerber RS-274X export*
G75*
%MOMM*%
%FSLAX34Y34*%
%LPD*%
%INCopper Layer 15*%
%IPPOS*%
%AMOC8*
5,1,8,0,0,1.08239X$1,22.5*%
G01*
%ADD10C,1.676400*%
%ADD11C,1.350000*%
%ADD12C,0.910000*%
%ADD13C,1.065000*%
%ADD14C,1.785000*%
%ADD15C,0.631000*%
%ADD16C,0.304800*%
%ADD17C,0.812800*%
%ADD18C,0.381000*%
%ADD19C,1.125000*%
%ADD20C,1.500000*%
%ADD21C,0.975000*%
%ADD22C,0.152400*%
%ADD23C,1.275000*%

G36*
X-527610Y183275D02*
X-527610Y183275D01*
X-527486Y183278D01*
X-527417Y183294D01*
X-527347Y183302D01*
X-527228Y183339D01*
X-527107Y183368D01*
X-527043Y183398D01*
X-526975Y183420D01*
X-526866Y183481D01*
X-526754Y183534D01*
X-526697Y183576D01*
X-526635Y183611D01*
X-526542Y183693D01*
X-526442Y183767D01*
X-526395Y183821D01*
X-526342Y183867D01*
X-526267Y183966D01*
X-526184Y184060D01*
X-526149Y184122D01*
X-526106Y184178D01*
X-526053Y184291D01*
X-525991Y184399D01*
X-525970Y184466D01*
X-525939Y184530D01*
X-525910Y184651D01*
X-525872Y184770D01*
X-525864Y184840D01*
X-525847Y184909D01*
X-525843Y185033D01*
X-525830Y185157D01*
X-525837Y185228D01*
X-525835Y185299D01*
X-525856Y185421D01*
X-525868Y185545D01*
X-525887Y185599D01*
X-525901Y185683D01*
X-526025Y185994D01*
X-526038Y186031D01*
X-526457Y186853D01*
X-526830Y188001D01*
X-518247Y188001D01*
X-518181Y188008D01*
X-518115Y188005D01*
X-517988Y188027D01*
X-517859Y188041D01*
X-517796Y188061D01*
X-517731Y188072D01*
X-517657Y188101D01*
X-517628Y188094D01*
X-517566Y188070D01*
X-517479Y188058D01*
X-517314Y188018D01*
X-517144Y188013D01*
X-517057Y188001D01*
X-508474Y188001D01*
X-508847Y186853D01*
X-509266Y186031D01*
X-509311Y185914D01*
X-509365Y185802D01*
X-509381Y185733D01*
X-509407Y185667D01*
X-509427Y185544D01*
X-509457Y185423D01*
X-509459Y185352D01*
X-509470Y185282D01*
X-509465Y185158D01*
X-509469Y185033D01*
X-509457Y184964D01*
X-509454Y184893D01*
X-509424Y184772D01*
X-509403Y184649D01*
X-509376Y184584D01*
X-509359Y184515D01*
X-509305Y184403D01*
X-509259Y184287D01*
X-509220Y184228D01*
X-509189Y184164D01*
X-509113Y184065D01*
X-509045Y183962D01*
X-508994Y183912D01*
X-508951Y183855D01*
X-508857Y183774D01*
X-508768Y183686D01*
X-508709Y183648D01*
X-508655Y183602D01*
X-508546Y183541D01*
X-508442Y183473D01*
X-508376Y183447D01*
X-508314Y183413D01*
X-508195Y183377D01*
X-508079Y183331D01*
X-508023Y183324D01*
X-507942Y183298D01*
X-507608Y183267D01*
X-507570Y183262D01*
X-471634Y183262D01*
X-471568Y183269D01*
X-471501Y183266D01*
X-471374Y183288D01*
X-471246Y183302D01*
X-471183Y183322D01*
X-471117Y183333D01*
X-470998Y183381D01*
X-470875Y183420D01*
X-470817Y183452D01*
X-470755Y183477D01*
X-470648Y183548D01*
X-470535Y183611D01*
X-470485Y183655D01*
X-470429Y183691D01*
X-470338Y183782D01*
X-470241Y183867D01*
X-470201Y183920D01*
X-470154Y183967D01*
X-470084Y184075D01*
X-470006Y184178D01*
X-469978Y184238D01*
X-469941Y184294D01*
X-469894Y184414D01*
X-469839Y184530D01*
X-469823Y184595D01*
X-469799Y184657D01*
X-469787Y184743D01*
X-469747Y184909D01*
X-469742Y185079D01*
X-469730Y185166D01*
X-469730Y186854D01*
X-469021Y188565D01*
X-467711Y189875D01*
X-466000Y190584D01*
X-464148Y190584D01*
X-462437Y189875D01*
X-461127Y188565D01*
X-460418Y186854D01*
X-460418Y185166D01*
X-460411Y185100D01*
X-460414Y185033D01*
X-460392Y184906D01*
X-460378Y184778D01*
X-460358Y184715D01*
X-460347Y184649D01*
X-460299Y184530D01*
X-460260Y184407D01*
X-460228Y184349D01*
X-460203Y184287D01*
X-460132Y184180D01*
X-460069Y184067D01*
X-460025Y184017D01*
X-459989Y183962D01*
X-459898Y183870D01*
X-459813Y183773D01*
X-459760Y183733D01*
X-459713Y183686D01*
X-459605Y183616D01*
X-459502Y183538D01*
X-459442Y183510D01*
X-459386Y183473D01*
X-459266Y183426D01*
X-459150Y183371D01*
X-459085Y183355D01*
X-459023Y183331D01*
X-458937Y183319D01*
X-458771Y183279D01*
X-458601Y183274D01*
X-458514Y183262D01*
X-400373Y183262D01*
X-400274Y183272D01*
X-400174Y183272D01*
X-400080Y183292D01*
X-399985Y183302D01*
X-399890Y183332D01*
X-399793Y183352D01*
X-399705Y183391D01*
X-399613Y183420D01*
X-399527Y183469D01*
X-399435Y183508D01*
X-399377Y183553D01*
X-399274Y183611D01*
X-399092Y183769D01*
X-399026Y183820D01*
X-378339Y204506D01*
X-378277Y204583D01*
X-378206Y204654D01*
X-378154Y204734D01*
X-378094Y204809D01*
X-378048Y204897D01*
X-377993Y204980D01*
X-377958Y205070D01*
X-377914Y205155D01*
X-377887Y205251D01*
X-377851Y205343D01*
X-377841Y205416D01*
X-377809Y205530D01*
X-377793Y205770D01*
X-377782Y205853D01*
X-377782Y206368D01*
X-377073Y208079D01*
X-375763Y209389D01*
X-374052Y210098D01*
X-372200Y210098D01*
X-370489Y209389D01*
X-369179Y208079D01*
X-368470Y206368D01*
X-368470Y204516D01*
X-369179Y202805D01*
X-370489Y201495D01*
X-372200Y200786D01*
X-372715Y200786D01*
X-372814Y200776D01*
X-372914Y200776D01*
X-373008Y200756D01*
X-373103Y200746D01*
X-373198Y200716D01*
X-373295Y200696D01*
X-373383Y200657D01*
X-373475Y200628D01*
X-373561Y200579D01*
X-373653Y200540D01*
X-373711Y200495D01*
X-373814Y200437D01*
X-373996Y200279D01*
X-374062Y200229D01*
X-387778Y186513D01*
X-387799Y186487D01*
X-387824Y186465D01*
X-387922Y186336D01*
X-388024Y186210D01*
X-388039Y186181D01*
X-388059Y186154D01*
X-388129Y186008D01*
X-388203Y185864D01*
X-388212Y185832D01*
X-388226Y185802D01*
X-388264Y185645D01*
X-388308Y185489D01*
X-388310Y185455D01*
X-388318Y185423D01*
X-388323Y185261D01*
X-388334Y185100D01*
X-388330Y185067D01*
X-388331Y185033D01*
X-388303Y184874D01*
X-388281Y184714D01*
X-388270Y184682D01*
X-388264Y184649D01*
X-388205Y184499D01*
X-388150Y184346D01*
X-388133Y184318D01*
X-388121Y184287D01*
X-388032Y184152D01*
X-387947Y184014D01*
X-387925Y183989D01*
X-387906Y183962D01*
X-387791Y183847D01*
X-387681Y183729D01*
X-387654Y183710D01*
X-387630Y183686D01*
X-387494Y183598D01*
X-387362Y183505D01*
X-387332Y183492D01*
X-387304Y183473D01*
X-387153Y183414D01*
X-387004Y183350D01*
X-386972Y183343D01*
X-386941Y183331D01*
X-386858Y183320D01*
X-386623Y183271D01*
X-386504Y183272D01*
X-386431Y183262D01*
X-343843Y183262D01*
X-343810Y183265D01*
X-343777Y183263D01*
X-343616Y183285D01*
X-343455Y183302D01*
X-343423Y183312D01*
X-343390Y183316D01*
X-343238Y183371D01*
X-343084Y183420D01*
X-343055Y183436D01*
X-343023Y183447D01*
X-342885Y183531D01*
X-342744Y183611D01*
X-342719Y183633D01*
X-342690Y183650D01*
X-342572Y183761D01*
X-342450Y183867D01*
X-342430Y183894D01*
X-342406Y183916D01*
X-342313Y184049D01*
X-342215Y184178D01*
X-342201Y184208D01*
X-342182Y184235D01*
X-342117Y184384D01*
X-342048Y184530D01*
X-342040Y184562D01*
X-342027Y184593D01*
X-341994Y184752D01*
X-341956Y184909D01*
X-341955Y184942D01*
X-341948Y184975D01*
X-341949Y185137D01*
X-341943Y185299D01*
X-341949Y185331D01*
X-341949Y185365D01*
X-341982Y185523D01*
X-342010Y185683D01*
X-342022Y185713D01*
X-342029Y185746D01*
X-342094Y185895D01*
X-342154Y186045D01*
X-342172Y186073D01*
X-342185Y186103D01*
X-342236Y186170D01*
X-342368Y186371D01*
X-342452Y186454D01*
X-342496Y186513D01*
X-344513Y188529D01*
X-344513Y189953D01*
X-344516Y189986D01*
X-344514Y190019D01*
X-344536Y190180D01*
X-344553Y190340D01*
X-344563Y190372D01*
X-344567Y190405D01*
X-344622Y190558D01*
X-344671Y190712D01*
X-344687Y190741D01*
X-344698Y190772D01*
X-344782Y190910D01*
X-344862Y191052D01*
X-344884Y191077D01*
X-344901Y191105D01*
X-345012Y191223D01*
X-345118Y191345D01*
X-345145Y191365D01*
X-345168Y191390D01*
X-345300Y191483D01*
X-345429Y191581D01*
X-345459Y191595D01*
X-345486Y191614D01*
X-345635Y191678D01*
X-345781Y191748D01*
X-345813Y191755D01*
X-345844Y191769D01*
X-346003Y191801D01*
X-346160Y191839D01*
X-346193Y191841D01*
X-346226Y191847D01*
X-346388Y191847D01*
X-346550Y191852D01*
X-346582Y191847D01*
X-346616Y191847D01*
X-346775Y191813D01*
X-346934Y191785D01*
X-346964Y191773D01*
X-346997Y191766D01*
X-347146Y191701D01*
X-347296Y191642D01*
X-347324Y191624D01*
X-347354Y191610D01*
X-347421Y191560D01*
X-347622Y191428D01*
X-347706Y191343D01*
X-347764Y191299D01*
X-348249Y190813D01*
X-349094Y190249D01*
X-349632Y190026D01*
X-349632Y194818D01*
X-349638Y194884D01*
X-349636Y194950D01*
X-349658Y195077D01*
X-349671Y195205D01*
X-349692Y195269D01*
X-349703Y195334D01*
X-349750Y195454D01*
X-349789Y195577D01*
X-349822Y195635D01*
X-349847Y195697D01*
X-349917Y195804D01*
X-349981Y195917D01*
X-350024Y195967D01*
X-350061Y196022D01*
X-350152Y196113D01*
X-350237Y196210D01*
X-350238Y196211D01*
X-350290Y196251D01*
X-350337Y196297D01*
X-350338Y196298D01*
X-350446Y196368D01*
X-350548Y196446D01*
X-350608Y196474D01*
X-350664Y196511D01*
X-350784Y196558D01*
X-350900Y196613D01*
X-350965Y196629D01*
X-351027Y196653D01*
X-351114Y196665D01*
X-351279Y196705D01*
X-351449Y196711D01*
X-351536Y196722D01*
X-356328Y196722D01*
X-356105Y197260D01*
X-355541Y198104D01*
X-354726Y198919D01*
X-354705Y198945D01*
X-354680Y198967D01*
X-354582Y199096D01*
X-354480Y199222D01*
X-354464Y199251D01*
X-354444Y199278D01*
X-354375Y199424D01*
X-354301Y199568D01*
X-354292Y199600D01*
X-354277Y199630D01*
X-354239Y199787D01*
X-354196Y199943D01*
X-354193Y199977D01*
X-354185Y200009D01*
X-354180Y200171D01*
X-354169Y200332D01*
X-354174Y200365D01*
X-354173Y200399D01*
X-354200Y200558D01*
X-354223Y200718D01*
X-354234Y200750D01*
X-354239Y200783D01*
X-354299Y200933D01*
X-354353Y201086D01*
X-354371Y201114D01*
X-354383Y201145D01*
X-354472Y201280D01*
X-354556Y201418D01*
X-354579Y201443D01*
X-354597Y201471D01*
X-354712Y201585D01*
X-354823Y201703D01*
X-354850Y201722D01*
X-354874Y201746D01*
X-355009Y201834D01*
X-355142Y201927D01*
X-355172Y201941D01*
X-355200Y201959D01*
X-355350Y202018D01*
X-355499Y202082D01*
X-355532Y202089D01*
X-355563Y202101D01*
X-355645Y202112D01*
X-355881Y202161D01*
X-356000Y202160D01*
X-356072Y202170D01*
X-357017Y202170D01*
X-359636Y203255D01*
X-361641Y205260D01*
X-362726Y207879D01*
X-362726Y210713D01*
X-361641Y213332D01*
X-359636Y215337D01*
X-357017Y216422D01*
X-354183Y216422D01*
X-351564Y215337D01*
X-349559Y213332D01*
X-348474Y210713D01*
X-348474Y207879D01*
X-349559Y205260D01*
X-351693Y203126D01*
X-351719Y203094D01*
X-351750Y203066D01*
X-351842Y202943D01*
X-351939Y202824D01*
X-351958Y202787D01*
X-351982Y202753D01*
X-352047Y202614D01*
X-352118Y202478D01*
X-352129Y202437D01*
X-352146Y202400D01*
X-352181Y202250D01*
X-352223Y202102D01*
X-352226Y202061D01*
X-352235Y202020D01*
X-352239Y201866D01*
X-352249Y201713D01*
X-352243Y201672D01*
X-352244Y201631D01*
X-352217Y201479D01*
X-352196Y201327D01*
X-352182Y201288D01*
X-352174Y201247D01*
X-352116Y201105D01*
X-352065Y200960D01*
X-352043Y200925D01*
X-352028Y200886D01*
X-351942Y200758D01*
X-351862Y200627D01*
X-351834Y200597D01*
X-351810Y200562D01*
X-351701Y200455D01*
X-351596Y200343D01*
X-351562Y200319D01*
X-351532Y200290D01*
X-351402Y200207D01*
X-351277Y200118D01*
X-351239Y200102D01*
X-351204Y200079D01*
X-351121Y200051D01*
X-350919Y199964D01*
X-350791Y199937D01*
X-350718Y199912D01*
X-350032Y199776D01*
X-349094Y199387D01*
X-348249Y198823D01*
X-347764Y198337D01*
X-347738Y198316D01*
X-347716Y198291D01*
X-347587Y198193D01*
X-347461Y198091D01*
X-347432Y198076D01*
X-347405Y198055D01*
X-347259Y197986D01*
X-347115Y197912D01*
X-347083Y197903D01*
X-347053Y197888D01*
X-346896Y197850D01*
X-346740Y197807D01*
X-346706Y197804D01*
X-346674Y197797D01*
X-346512Y197791D01*
X-346351Y197780D01*
X-346318Y197785D01*
X-346285Y197784D01*
X-346125Y197811D01*
X-345965Y197834D01*
X-345933Y197845D01*
X-345900Y197851D01*
X-345751Y197910D01*
X-345597Y197964D01*
X-345569Y197982D01*
X-345538Y197994D01*
X-345403Y198083D01*
X-345265Y198167D01*
X-345240Y198190D01*
X-345213Y198208D01*
X-345098Y198323D01*
X-344980Y198434D01*
X-344961Y198461D01*
X-344937Y198485D01*
X-344849Y198620D01*
X-344756Y198753D01*
X-344743Y198783D01*
X-344724Y198811D01*
X-344665Y198962D01*
X-344601Y199110D01*
X-344594Y199143D01*
X-344582Y199174D01*
X-344571Y199256D01*
X-344522Y199492D01*
X-344523Y199611D01*
X-344513Y199683D01*
X-344513Y236932D01*
X-344520Y236998D01*
X-344517Y237065D01*
X-344540Y237192D01*
X-344553Y237320D01*
X-344573Y237383D01*
X-344584Y237449D01*
X-344632Y237568D01*
X-344671Y237691D01*
X-344703Y237749D01*
X-344728Y237811D01*
X-344799Y237918D01*
X-344862Y238031D01*
X-344906Y238081D01*
X-344942Y238137D01*
X-345034Y238228D01*
X-345118Y238325D01*
X-345171Y238365D01*
X-345218Y238412D01*
X-345326Y238482D01*
X-345429Y238560D01*
X-345489Y238588D01*
X-345545Y238625D01*
X-345665Y238672D01*
X-345781Y238727D01*
X-345846Y238743D01*
X-345908Y238767D01*
X-345995Y238779D01*
X-346160Y238819D01*
X-346330Y238824D01*
X-346417Y238836D01*
X-347240Y238836D01*
X-348951Y239545D01*
X-350261Y240855D01*
X-350970Y242566D01*
X-350970Y244418D01*
X-350261Y246129D01*
X-348951Y247439D01*
X-348223Y247741D01*
X-348150Y247780D01*
X-348073Y247811D01*
X-347979Y247872D01*
X-347880Y247926D01*
X-347817Y247979D01*
X-347747Y248025D01*
X-347668Y248104D01*
X-347582Y248177D01*
X-347531Y248242D01*
X-347472Y248301D01*
X-347411Y248395D01*
X-347342Y248484D01*
X-347305Y248558D01*
X-347259Y248627D01*
X-347218Y248732D01*
X-347168Y248833D01*
X-347147Y248913D01*
X-347117Y248990D01*
X-347106Y249071D01*
X-347070Y249210D01*
X-347060Y249411D01*
X-347048Y249500D01*
X-347048Y251292D01*
X-347034Y251339D01*
X-347006Y251399D01*
X-346978Y251525D01*
X-346941Y251649D01*
X-346936Y251715D01*
X-346921Y251780D01*
X-346919Y251908D01*
X-346908Y252037D01*
X-346916Y252103D01*
X-346915Y252169D01*
X-346939Y252296D01*
X-346955Y252424D01*
X-346976Y252487D01*
X-346988Y252552D01*
X-347038Y252671D01*
X-347079Y252793D01*
X-347113Y252851D01*
X-347138Y252912D01*
X-347211Y253018D01*
X-347276Y253130D01*
X-347321Y253179D01*
X-347358Y253234D01*
X-347451Y253323D01*
X-347538Y253419D01*
X-347591Y253458D01*
X-347639Y253504D01*
X-347715Y253548D01*
X-347852Y253649D01*
X-348008Y253719D01*
X-348083Y253763D01*
X-349413Y254314D01*
X-350723Y255624D01*
X-351432Y257335D01*
X-351432Y259187D01*
X-350723Y260898D01*
X-349413Y262208D01*
X-347702Y262917D01*
X-345732Y262917D01*
X-345649Y262925D01*
X-345566Y262924D01*
X-345456Y262945D01*
X-345344Y262957D01*
X-345265Y262982D01*
X-345183Y262997D01*
X-345080Y263041D01*
X-344973Y263075D01*
X-344900Y263115D01*
X-344824Y263147D01*
X-344731Y263211D01*
X-344633Y263266D01*
X-344570Y263320D01*
X-344502Y263367D01*
X-344424Y263448D01*
X-344339Y263522D01*
X-344289Y263588D01*
X-344232Y263648D01*
X-344190Y263719D01*
X-344104Y263833D01*
X-344017Y264015D01*
X-343972Y264092D01*
X-343799Y264511D01*
X-342489Y265821D01*
X-340778Y266530D01*
X-338926Y266530D01*
X-337215Y265821D01*
X-335848Y264454D01*
X-335807Y264378D01*
X-335617Y264152D01*
X-335579Y264103D01*
X-335484Y264008D01*
X-335458Y263987D01*
X-335436Y263961D01*
X-335307Y263864D01*
X-335181Y263762D01*
X-335152Y263746D01*
X-335125Y263726D01*
X-334979Y263657D01*
X-334835Y263582D01*
X-334803Y263573D01*
X-334773Y263559D01*
X-334616Y263521D01*
X-334460Y263477D01*
X-334426Y263475D01*
X-334394Y263467D01*
X-334233Y263462D01*
X-334071Y263451D01*
X-334038Y263455D01*
X-334004Y263454D01*
X-333845Y263482D01*
X-333685Y263504D01*
X-333653Y263515D01*
X-333620Y263521D01*
X-333470Y263581D01*
X-333318Y263635D01*
X-333289Y263652D01*
X-333258Y263665D01*
X-333123Y263754D01*
X-332985Y263838D01*
X-332960Y263861D01*
X-332932Y263879D01*
X-332818Y263994D01*
X-332700Y264104D01*
X-332681Y264131D01*
X-332657Y264155D01*
X-332569Y264291D01*
X-332476Y264423D01*
X-332463Y264454D01*
X-332444Y264482D01*
X-332385Y264632D01*
X-332321Y264781D01*
X-332314Y264813D01*
X-332302Y264845D01*
X-332291Y264927D01*
X-332242Y265162D01*
X-332243Y265282D01*
X-332233Y265354D01*
X-332233Y270260D01*
X-332243Y270359D01*
X-332243Y270458D01*
X-332263Y270552D01*
X-332273Y270648D01*
X-332303Y270742D01*
X-332323Y270840D01*
X-332362Y270928D01*
X-332391Y271019D01*
X-332439Y271106D01*
X-332479Y271197D01*
X-332524Y271255D01*
X-332582Y271359D01*
X-332740Y271540D01*
X-332790Y271606D01*
X-334268Y273084D01*
X-334319Y273126D01*
X-334365Y273174D01*
X-334470Y273248D01*
X-334570Y273330D01*
X-334629Y273360D01*
X-334684Y273399D01*
X-334802Y273450D01*
X-334916Y273509D01*
X-334980Y273527D01*
X-335041Y273553D01*
X-335168Y273579D01*
X-335292Y273614D01*
X-335358Y273619D01*
X-335423Y273632D01*
X-335552Y273632D01*
X-335681Y273640D01*
X-335746Y273631D01*
X-335813Y273631D01*
X-335939Y273605D01*
X-336067Y273587D01*
X-336129Y273565D01*
X-336194Y273551D01*
X-336313Y273499D01*
X-336434Y273456D01*
X-336491Y273422D01*
X-336552Y273395D01*
X-336621Y273342D01*
X-336767Y273253D01*
X-336891Y273137D01*
X-336961Y273084D01*
X-338500Y271545D01*
X-340211Y270836D01*
X-342063Y270836D01*
X-343774Y271545D01*
X-345084Y272855D01*
X-345793Y274566D01*
X-345793Y276418D01*
X-345360Y277463D01*
X-345336Y277543D01*
X-345303Y277619D01*
X-345280Y277729D01*
X-345248Y277837D01*
X-345241Y277919D01*
X-345224Y278001D01*
X-345225Y278113D01*
X-345215Y278225D01*
X-345225Y278307D01*
X-345225Y278390D01*
X-345248Y278501D01*
X-345262Y278612D01*
X-345288Y278691D01*
X-345305Y278772D01*
X-345350Y278875D01*
X-345386Y278981D01*
X-345428Y279053D01*
X-345461Y279129D01*
X-345511Y279194D01*
X-345583Y279318D01*
X-345718Y279467D01*
X-345773Y279538D01*
X-346847Y280613D01*
X-347556Y282324D01*
X-347556Y284176D01*
X-346847Y285887D01*
X-345308Y287426D01*
X-345266Y287477D01*
X-345218Y287523D01*
X-345143Y287629D01*
X-345062Y287728D01*
X-345032Y287787D01*
X-344993Y287842D01*
X-344942Y287960D01*
X-344883Y288075D01*
X-344865Y288139D01*
X-344839Y288200D01*
X-344813Y288326D01*
X-344778Y288450D01*
X-344773Y288516D01*
X-344760Y288581D01*
X-344760Y288710D01*
X-344752Y288839D01*
X-344761Y288905D01*
X-344761Y288971D01*
X-344787Y289097D01*
X-344805Y289225D01*
X-344827Y289288D01*
X-344841Y289353D01*
X-344893Y289471D01*
X-344936Y289592D01*
X-344970Y289649D01*
X-344997Y289710D01*
X-345050Y289780D01*
X-345139Y289925D01*
X-345255Y290049D01*
X-345308Y290119D01*
X-348908Y293719D01*
X-348908Y295880D01*
X-348918Y295979D01*
X-348918Y296078D01*
X-348938Y296172D01*
X-348948Y296267D01*
X-348978Y296362D01*
X-348998Y296460D01*
X-349037Y296548D01*
X-349066Y296639D01*
X-349115Y296726D01*
X-349154Y296817D01*
X-349199Y296875D01*
X-349257Y296979D01*
X-349415Y297160D01*
X-349465Y297226D01*
X-350592Y298353D01*
X-351301Y300064D01*
X-351301Y301916D01*
X-350592Y303627D01*
X-349282Y304937D01*
X-347571Y305646D01*
X-345395Y305646D01*
X-345329Y305653D01*
X-345262Y305650D01*
X-345135Y305672D01*
X-345007Y305686D01*
X-344944Y305706D01*
X-344878Y305717D01*
X-344759Y305765D01*
X-344636Y305804D01*
X-344578Y305836D01*
X-344516Y305861D01*
X-344409Y305932D01*
X-344296Y305995D01*
X-344246Y306039D01*
X-344190Y306075D01*
X-344099Y306166D01*
X-344002Y306251D01*
X-343962Y306304D01*
X-343915Y306351D01*
X-343845Y306459D01*
X-343767Y306562D01*
X-343739Y306622D01*
X-343702Y306678D01*
X-343655Y306798D01*
X-343600Y306914D01*
X-343584Y306979D01*
X-343560Y307041D01*
X-343548Y307127D01*
X-343508Y307293D01*
X-343503Y307463D01*
X-343491Y307550D01*
X-343491Y311009D01*
X-343499Y311091D01*
X-343498Y311174D01*
X-343519Y311285D01*
X-343531Y311396D01*
X-343556Y311475D01*
X-343571Y311557D01*
X-343615Y311661D01*
X-343649Y311768D01*
X-343689Y311840D01*
X-343721Y311917D01*
X-343785Y312010D01*
X-343840Y312108D01*
X-343894Y312170D01*
X-343941Y312239D01*
X-344022Y312317D01*
X-344096Y312401D01*
X-344162Y312451D01*
X-344222Y312509D01*
X-344293Y312550D01*
X-344407Y312636D01*
X-344589Y312723D01*
X-344666Y312768D01*
X-345410Y313076D01*
X-346720Y314386D01*
X-347429Y316097D01*
X-347429Y317949D01*
X-346720Y319660D01*
X-345410Y320970D01*
X-343699Y321679D01*
X-341847Y321679D01*
X-340136Y320970D01*
X-338826Y319660D01*
X-338117Y317949D01*
X-338117Y316097D01*
X-338820Y314400D01*
X-338854Y314288D01*
X-338896Y314180D01*
X-338904Y314118D01*
X-338932Y314026D01*
X-338957Y313732D01*
X-338965Y313671D01*
X-338965Y295241D01*
X-338955Y295143D01*
X-338955Y295043D01*
X-338935Y294949D01*
X-338925Y294854D01*
X-338895Y294759D01*
X-338875Y294661D01*
X-338836Y294574D01*
X-338807Y294482D01*
X-338758Y294395D01*
X-338719Y294304D01*
X-338675Y294246D01*
X-338616Y294143D01*
X-338458Y293961D01*
X-338408Y293895D01*
X-335191Y290678D01*
X-335139Y290636D01*
X-335094Y290587D01*
X-334988Y290513D01*
X-334888Y290432D01*
X-334829Y290401D01*
X-334775Y290363D01*
X-334657Y290312D01*
X-334542Y290253D01*
X-334478Y290235D01*
X-334417Y290208D01*
X-334291Y290182D01*
X-334167Y290148D01*
X-334100Y290143D01*
X-334035Y290130D01*
X-333906Y290130D01*
X-333778Y290121D01*
X-333712Y290130D01*
X-333645Y290131D01*
X-333519Y290157D01*
X-333392Y290175D01*
X-333329Y290197D01*
X-333264Y290211D01*
X-333146Y290262D01*
X-333024Y290306D01*
X-332968Y290340D01*
X-332907Y290367D01*
X-332837Y290420D01*
X-332692Y290509D01*
X-332567Y290625D01*
X-332498Y290678D01*
X-331380Y291796D01*
X-329669Y292504D01*
X-327817Y292504D01*
X-326105Y291796D01*
X-324796Y290486D01*
X-324087Y288775D01*
X-324087Y286923D01*
X-324796Y285211D01*
X-326105Y283902D01*
X-327817Y283193D01*
X-329103Y283193D01*
X-329136Y283189D01*
X-329169Y283192D01*
X-329330Y283170D01*
X-329491Y283153D01*
X-329523Y283143D01*
X-329556Y283138D01*
X-329708Y283084D01*
X-329862Y283035D01*
X-329891Y283019D01*
X-329923Y283007D01*
X-330061Y282923D01*
X-330202Y282844D01*
X-330227Y282822D01*
X-330256Y282805D01*
X-330374Y282694D01*
X-330496Y282587D01*
X-330516Y282561D01*
X-330540Y282538D01*
X-330633Y282406D01*
X-330731Y282277D01*
X-330745Y282247D01*
X-330764Y282219D01*
X-330829Y282071D01*
X-330898Y281925D01*
X-330906Y281892D01*
X-330919Y281862D01*
X-330952Y281703D01*
X-330990Y281546D01*
X-330991Y281512D01*
X-330998Y281480D01*
X-330997Y281317D01*
X-331003Y281156D01*
X-330997Y281123D01*
X-330997Y281090D01*
X-330964Y280931D01*
X-330936Y280772D01*
X-330924Y280741D01*
X-330917Y280709D01*
X-330852Y280560D01*
X-330792Y280410D01*
X-330774Y280382D01*
X-330761Y280351D01*
X-330710Y280285D01*
X-330578Y280084D01*
X-330494Y280000D01*
X-330450Y279942D01*
X-324683Y274176D01*
X-324683Y201054D01*
X-324679Y201013D01*
X-324681Y200971D01*
X-324659Y200819D01*
X-324643Y200666D01*
X-324631Y200627D01*
X-324625Y200586D01*
X-324572Y200441D01*
X-324525Y200295D01*
X-324505Y200259D01*
X-324491Y200220D01*
X-324409Y200089D01*
X-324334Y199955D01*
X-324307Y199924D01*
X-324285Y199889D01*
X-324179Y199777D01*
X-324078Y199662D01*
X-324045Y199636D01*
X-324016Y199606D01*
X-323889Y199519D01*
X-323767Y199426D01*
X-323729Y199408D01*
X-323695Y199385D01*
X-323554Y199325D01*
X-323415Y199259D01*
X-323374Y199249D01*
X-323336Y199233D01*
X-323185Y199204D01*
X-323036Y199167D01*
X-322994Y199166D01*
X-322954Y199158D01*
X-322800Y199160D01*
X-322646Y199155D01*
X-322606Y199162D01*
X-322564Y199162D01*
X-322414Y199195D01*
X-322262Y199221D01*
X-322224Y199237D01*
X-322183Y199246D01*
X-322104Y199284D01*
X-321900Y199365D01*
X-321791Y199437D01*
X-321721Y199471D01*
X-321339Y199726D01*
X-320801Y199949D01*
X-320801Y195157D01*
X-320795Y195091D01*
X-320797Y195025D01*
X-320775Y194898D01*
X-320761Y194770D01*
X-320741Y194706D01*
X-320730Y194641D01*
X-320683Y194521D01*
X-320643Y194398D01*
X-320611Y194340D01*
X-320586Y194278D01*
X-320516Y194171D01*
X-320452Y194058D01*
X-320409Y194008D01*
X-320372Y193953D01*
X-320372Y193952D01*
X-320280Y193862D01*
X-320196Y193765D01*
X-320195Y193764D01*
X-320143Y193724D01*
X-320095Y193677D01*
X-319987Y193607D01*
X-319885Y193529D01*
X-319825Y193501D01*
X-319769Y193464D01*
X-319649Y193417D01*
X-319533Y193362D01*
X-319468Y193346D01*
X-319406Y193322D01*
X-319319Y193310D01*
X-319154Y193270D01*
X-318984Y193264D01*
X-318897Y193253D01*
X-314077Y193253D01*
X-314115Y193124D01*
X-314120Y193074D01*
X-314131Y193026D01*
X-314136Y192881D01*
X-314148Y192736D01*
X-314143Y192686D01*
X-314144Y192636D01*
X-314119Y192493D01*
X-314102Y192349D01*
X-314086Y192302D01*
X-314077Y192252D01*
X-314024Y192117D01*
X-313977Y191980D01*
X-313952Y191936D01*
X-313934Y191890D01*
X-313854Y191769D01*
X-313780Y191643D01*
X-313747Y191606D01*
X-313719Y191564D01*
X-313616Y191462D01*
X-313519Y191354D01*
X-313479Y191325D01*
X-313443Y191289D01*
X-313321Y191210D01*
X-313204Y191124D01*
X-313159Y191104D01*
X-313117Y191076D01*
X-312981Y191023D01*
X-312849Y190963D01*
X-312800Y190952D01*
X-312754Y190934D01*
X-312665Y190922D01*
X-312469Y190878D01*
X-312325Y190876D01*
X-312245Y190865D01*
X-303442Y190865D01*
X-296396Y183820D01*
X-296319Y183757D01*
X-296249Y183686D01*
X-296168Y183634D01*
X-296094Y183574D01*
X-296006Y183528D01*
X-295922Y183473D01*
X-295833Y183438D01*
X-295748Y183394D01*
X-295652Y183367D01*
X-295559Y183331D01*
X-295487Y183321D01*
X-295372Y183289D01*
X-295133Y183273D01*
X-295050Y183262D01*
X-218274Y183262D01*
X-218216Y183268D01*
X-218158Y183265D01*
X-218022Y183288D01*
X-217886Y183302D01*
X-217830Y183319D01*
X-217773Y183329D01*
X-217645Y183378D01*
X-217514Y183420D01*
X-217464Y183448D01*
X-217409Y183469D01*
X-217294Y183544D01*
X-217175Y183611D01*
X-217131Y183649D01*
X-217082Y183681D01*
X-216984Y183777D01*
X-216881Y183867D01*
X-216846Y183914D01*
X-216805Y183954D01*
X-216729Y184069D01*
X-216646Y184178D01*
X-216621Y184231D01*
X-216589Y184279D01*
X-216538Y184406D01*
X-216479Y184530D01*
X-216478Y184532D01*
X-211328Y184532D01*
X-211262Y184538D01*
X-211196Y184536D01*
X-211069Y184558D01*
X-210941Y184571D01*
X-210877Y184592D01*
X-210812Y184603D01*
X-210692Y184650D01*
X-210569Y184689D01*
X-210511Y184722D01*
X-210449Y184747D01*
X-210342Y184817D01*
X-210229Y184881D01*
X-210179Y184924D01*
X-210124Y184961D01*
X-210123Y184961D01*
X-210033Y185052D01*
X-209936Y185137D01*
X-209935Y185138D01*
X-209895Y185190D01*
X-209848Y185238D01*
X-209778Y185346D01*
X-209700Y185448D01*
X-209671Y185508D01*
X-209635Y185564D01*
X-209588Y185684D01*
X-209533Y185800D01*
X-209517Y185865D01*
X-209493Y185927D01*
X-209481Y186014D01*
X-209441Y186179D01*
X-209435Y186349D01*
X-209424Y186436D01*
X-209424Y191228D01*
X-208886Y191005D01*
X-208041Y190441D01*
X-207323Y189723D01*
X-207100Y189389D01*
X-207084Y189370D01*
X-207072Y189348D01*
X-206960Y189219D01*
X-206852Y189089D01*
X-206832Y189073D01*
X-206816Y189054D01*
X-206680Y188951D01*
X-206547Y188845D01*
X-206525Y188834D01*
X-206505Y188819D01*
X-206351Y188746D01*
X-206200Y188669D01*
X-206175Y188663D01*
X-206153Y188652D01*
X-205988Y188612D01*
X-205823Y188567D01*
X-205798Y188566D01*
X-205774Y188560D01*
X-205604Y188554D01*
X-205434Y188544D01*
X-205409Y188548D01*
X-205384Y188547D01*
X-205217Y188576D01*
X-205049Y188601D01*
X-205025Y188610D01*
X-205000Y188614D01*
X-204843Y188676D01*
X-204683Y188735D01*
X-204661Y188748D01*
X-204638Y188758D01*
X-204497Y188851D01*
X-204351Y188941D01*
X-204333Y188958D01*
X-204312Y188972D01*
X-204193Y189092D01*
X-204069Y189210D01*
X-204055Y189230D01*
X-204037Y189248D01*
X-203944Y189390D01*
X-203848Y189530D01*
X-203838Y189554D01*
X-203824Y189574D01*
X-203762Y189733D01*
X-203696Y189890D01*
X-203691Y189914D01*
X-203682Y189937D01*
X-203672Y190012D01*
X-203621Y190272D01*
X-203622Y190379D01*
X-203613Y190447D01*
X-203613Y205385D01*
X-203616Y205418D01*
X-203614Y205451D01*
X-203636Y205612D01*
X-203653Y205772D01*
X-203663Y205804D01*
X-203667Y205837D01*
X-203722Y205990D01*
X-203771Y206144D01*
X-203787Y206173D01*
X-203798Y206204D01*
X-203882Y206342D01*
X-203962Y206484D01*
X-203984Y206509D01*
X-204001Y206537D01*
X-204112Y206656D01*
X-204218Y206777D01*
X-204245Y206797D01*
X-204267Y206822D01*
X-204400Y206915D01*
X-204529Y207013D01*
X-204559Y207027D01*
X-204586Y207046D01*
X-204735Y207110D01*
X-204881Y207180D01*
X-204913Y207187D01*
X-204944Y207201D01*
X-205103Y207233D01*
X-205260Y207272D01*
X-205293Y207273D01*
X-205326Y207279D01*
X-205488Y207279D01*
X-205650Y207284D01*
X-205682Y207279D01*
X-205716Y207279D01*
X-205874Y207245D01*
X-206034Y207218D01*
X-206064Y207205D01*
X-206097Y207198D01*
X-206246Y207133D01*
X-206396Y207074D01*
X-206424Y207056D01*
X-206454Y207042D01*
X-206521Y206992D01*
X-206721Y206860D01*
X-206805Y206775D01*
X-206864Y206731D01*
X-208816Y204779D01*
X-211435Y203694D01*
X-214269Y203694D01*
X-216888Y204779D01*
X-218893Y206784D01*
X-219978Y209403D01*
X-219978Y212237D01*
X-218893Y214856D01*
X-216888Y216861D01*
X-214269Y217946D01*
X-211435Y217946D01*
X-208816Y216861D01*
X-206864Y214909D01*
X-206838Y214888D01*
X-206816Y214863D01*
X-206687Y214765D01*
X-206561Y214663D01*
X-206532Y214648D01*
X-206505Y214627D01*
X-206359Y214558D01*
X-206215Y214484D01*
X-206183Y214475D01*
X-206153Y214460D01*
X-205996Y214422D01*
X-205840Y214379D01*
X-205806Y214376D01*
X-205774Y214368D01*
X-205612Y214363D01*
X-205451Y214352D01*
X-205418Y214357D01*
X-205384Y214356D01*
X-205225Y214383D01*
X-205065Y214406D01*
X-205033Y214417D01*
X-205000Y214422D01*
X-204850Y214482D01*
X-204697Y214536D01*
X-204669Y214554D01*
X-204638Y214566D01*
X-204503Y214655D01*
X-204365Y214739D01*
X-204340Y214762D01*
X-204312Y214780D01*
X-204198Y214895D01*
X-204080Y215006D01*
X-204061Y215033D01*
X-204037Y215057D01*
X-203949Y215192D01*
X-203856Y215325D01*
X-203843Y215355D01*
X-203824Y215383D01*
X-203765Y215534D01*
X-203701Y215682D01*
X-203694Y215715D01*
X-203682Y215746D01*
X-203671Y215828D01*
X-203622Y216064D01*
X-203623Y216183D01*
X-203613Y216255D01*
X-203613Y237186D01*
X-203620Y237252D01*
X-203617Y237319D01*
X-203639Y237446D01*
X-203653Y237574D01*
X-203673Y237637D01*
X-203684Y237703D01*
X-203732Y237822D01*
X-203771Y237945D01*
X-203803Y238003D01*
X-203828Y238065D01*
X-203899Y238172D01*
X-203962Y238285D01*
X-204006Y238335D01*
X-204042Y238391D01*
X-204133Y238482D01*
X-204218Y238579D01*
X-204271Y238619D01*
X-204318Y238666D01*
X-204426Y238736D01*
X-204529Y238814D01*
X-204589Y238842D01*
X-204645Y238879D01*
X-204765Y238926D01*
X-204881Y238981D01*
X-204946Y238997D01*
X-205008Y239021D01*
X-205094Y239033D01*
X-205260Y239073D01*
X-205430Y239078D01*
X-205517Y239090D01*
X-206447Y239090D01*
X-208158Y239799D01*
X-209468Y241109D01*
X-210177Y242820D01*
X-210177Y244672D01*
X-209468Y246383D01*
X-208158Y247693D01*
X-206550Y248359D01*
X-206477Y248399D01*
X-206400Y248429D01*
X-206306Y248491D01*
X-206207Y248544D01*
X-206144Y248598D01*
X-206074Y248643D01*
X-205995Y248723D01*
X-205909Y248795D01*
X-205858Y248861D01*
X-205799Y248920D01*
X-205738Y249014D01*
X-205669Y249102D01*
X-205632Y249176D01*
X-205586Y249246D01*
X-205545Y249351D01*
X-205495Y249451D01*
X-205474Y249532D01*
X-205444Y249609D01*
X-205433Y249690D01*
X-205397Y249828D01*
X-205390Y249968D01*
X-205388Y249976D01*
X-205387Y250019D01*
X-205387Y250030D01*
X-205375Y250118D01*
X-205375Y250200D01*
X-205383Y250283D01*
X-205382Y250366D01*
X-205403Y250476D01*
X-205415Y250588D01*
X-205440Y250667D01*
X-205455Y250749D01*
X-205499Y250852D01*
X-205533Y250960D01*
X-205573Y251032D01*
X-205605Y251109D01*
X-205669Y251201D01*
X-205724Y251299D01*
X-205778Y251362D01*
X-205825Y251430D01*
X-205906Y251508D01*
X-205980Y251593D01*
X-206046Y251643D01*
X-206106Y251701D01*
X-206177Y251742D01*
X-206291Y251828D01*
X-206473Y251915D01*
X-206550Y251960D01*
X-207931Y252532D01*
X-209240Y253841D01*
X-209949Y255552D01*
X-209949Y257405D01*
X-209240Y259116D01*
X-207931Y260425D01*
X-206220Y261134D01*
X-204367Y261134D01*
X-203263Y260677D01*
X-203200Y260658D01*
X-203139Y260630D01*
X-203014Y260602D01*
X-202890Y260565D01*
X-202824Y260560D01*
X-202759Y260545D01*
X-202630Y260543D01*
X-202502Y260532D01*
X-202436Y260540D01*
X-202369Y260539D01*
X-202243Y260563D01*
X-202115Y260579D01*
X-202052Y260600D01*
X-201986Y260613D01*
X-201867Y260662D01*
X-201745Y260703D01*
X-201688Y260737D01*
X-201626Y260763D01*
X-201520Y260835D01*
X-201409Y260900D01*
X-201360Y260945D01*
X-201305Y260983D01*
X-201215Y261075D01*
X-201120Y261162D01*
X-201081Y261216D01*
X-201034Y261263D01*
X-200990Y261339D01*
X-200890Y261477D01*
X-200820Y261632D01*
X-200775Y261708D01*
X-200035Y263495D01*
X-198496Y265034D01*
X-198454Y265085D01*
X-198406Y265131D01*
X-198332Y265236D01*
X-198250Y265336D01*
X-198220Y265395D01*
X-198181Y265450D01*
X-198130Y265568D01*
X-198071Y265683D01*
X-198053Y265746D01*
X-198027Y265807D01*
X-198001Y265934D01*
X-197966Y266058D01*
X-197962Y266124D01*
X-197948Y266189D01*
X-197948Y266318D01*
X-197940Y266447D01*
X-197949Y266513D01*
X-197949Y266579D01*
X-197975Y266705D01*
X-197993Y266833D01*
X-198015Y266896D01*
X-198029Y266961D01*
X-198081Y267079D01*
X-198124Y267200D01*
X-198158Y267257D01*
X-198185Y267318D01*
X-198238Y267388D01*
X-198327Y267533D01*
X-198443Y267657D01*
X-198496Y267727D01*
X-199968Y269198D01*
X-200153Y269383D01*
X-200217Y269436D01*
X-200275Y269495D01*
X-200368Y269559D01*
X-200455Y269629D01*
X-200529Y269667D01*
X-200597Y269714D01*
X-200701Y269757D01*
X-200801Y269809D01*
X-200881Y269831D01*
X-200958Y269863D01*
X-201068Y269883D01*
X-201176Y269914D01*
X-201259Y269919D01*
X-201341Y269935D01*
X-201453Y269932D01*
X-201565Y269940D01*
X-201648Y269929D01*
X-201731Y269927D01*
X-201810Y269906D01*
X-201951Y269887D01*
X-202035Y269857D01*
X-203934Y269857D01*
X-205645Y270566D01*
X-206954Y271875D01*
X-207663Y273586D01*
X-207663Y275439D01*
X-206939Y277188D01*
X-206902Y277240D01*
X-206821Y277340D01*
X-206790Y277399D01*
X-206752Y277453D01*
X-206701Y277571D01*
X-206642Y277686D01*
X-206624Y277750D01*
X-206597Y277811D01*
X-206571Y277937D01*
X-206537Y278061D01*
X-206532Y278128D01*
X-206519Y278193D01*
X-206519Y278322D01*
X-206510Y278450D01*
X-206519Y278516D01*
X-206519Y278583D01*
X-206546Y278709D01*
X-206563Y278836D01*
X-206586Y278899D01*
X-206599Y278964D01*
X-206651Y279082D01*
X-206694Y279203D01*
X-206729Y279260D01*
X-206756Y279321D01*
X-206809Y279391D01*
X-206897Y279536D01*
X-207014Y279661D01*
X-207067Y279730D01*
X-207147Y279811D01*
X-207856Y281522D01*
X-207856Y283374D01*
X-207147Y285085D01*
X-205608Y286624D01*
X-205566Y286675D01*
X-205518Y286721D01*
X-205443Y286827D01*
X-205362Y286926D01*
X-205332Y286985D01*
X-205293Y287040D01*
X-205242Y287158D01*
X-205183Y287273D01*
X-205165Y287337D01*
X-205139Y287398D01*
X-205113Y287524D01*
X-205078Y287648D01*
X-205073Y287714D01*
X-205060Y287779D01*
X-205060Y287908D01*
X-205052Y288037D01*
X-205061Y288103D01*
X-205061Y288169D01*
X-205087Y288295D01*
X-205105Y288423D01*
X-205127Y288486D01*
X-205141Y288551D01*
X-205193Y288669D01*
X-205236Y288790D01*
X-205270Y288847D01*
X-205297Y288908D01*
X-205350Y288978D01*
X-205439Y289123D01*
X-205490Y289178D01*
X-205505Y289200D01*
X-205564Y289259D01*
X-205608Y289317D01*
X-207198Y290907D01*
X-207198Y297700D01*
X-207208Y297799D01*
X-207209Y297899D01*
X-207228Y297993D01*
X-207238Y298088D01*
X-207268Y298183D01*
X-207289Y298280D01*
X-207327Y298368D01*
X-207356Y298460D01*
X-207405Y298546D01*
X-207445Y298638D01*
X-207489Y298696D01*
X-207547Y298799D01*
X-207705Y298980D01*
X-207756Y299047D01*
X-208882Y300173D01*
X-209591Y301885D01*
X-209591Y303737D01*
X-208882Y305448D01*
X-207573Y306758D01*
X-206002Y307408D01*
X-205958Y307432D01*
X-205911Y307449D01*
X-205787Y307524D01*
X-205659Y307593D01*
X-205621Y307626D01*
X-205578Y307652D01*
X-205472Y307751D01*
X-205361Y307845D01*
X-205330Y307884D01*
X-205293Y307918D01*
X-205210Y308037D01*
X-205120Y308151D01*
X-205098Y308196D01*
X-205069Y308237D01*
X-205012Y308370D01*
X-204947Y308500D01*
X-204934Y308549D01*
X-204914Y308595D01*
X-204885Y308737D01*
X-204848Y308878D01*
X-204846Y308928D01*
X-204836Y308976D01*
X-204836Y309122D01*
X-204829Y309267D01*
X-204836Y309316D01*
X-204837Y309366D01*
X-204867Y309509D01*
X-204889Y309652D01*
X-204906Y309699D01*
X-204917Y309748D01*
X-204975Y309881D01*
X-205026Y310017D01*
X-205053Y310059D01*
X-205073Y310105D01*
X-205127Y310176D01*
X-205235Y310346D01*
X-205335Y310449D01*
X-205384Y310514D01*
X-208130Y313260D01*
X-208130Y319375D01*
X-208140Y319474D01*
X-208140Y319573D01*
X-208160Y319667D01*
X-208170Y319762D01*
X-208200Y319857D01*
X-208220Y319955D01*
X-208259Y320043D01*
X-208288Y320134D01*
X-208337Y320221D01*
X-208376Y320312D01*
X-208421Y320370D01*
X-208479Y320474D01*
X-208637Y320655D01*
X-208687Y320721D01*
X-209814Y321848D01*
X-210523Y323559D01*
X-210523Y325411D01*
X-209814Y327122D01*
X-208504Y328432D01*
X-207113Y329008D01*
X-207069Y329032D01*
X-207022Y329049D01*
X-206898Y329124D01*
X-206770Y329193D01*
X-206732Y329226D01*
X-206689Y329252D01*
X-206583Y329351D01*
X-206472Y329445D01*
X-206441Y329484D01*
X-206405Y329518D01*
X-206321Y329637D01*
X-206231Y329751D01*
X-206209Y329796D01*
X-206180Y329837D01*
X-206123Y329970D01*
X-206058Y330100D01*
X-206045Y330149D01*
X-206026Y330195D01*
X-205996Y330337D01*
X-205960Y330478D01*
X-205957Y330528D01*
X-205947Y330576D01*
X-205947Y330722D01*
X-205940Y330867D01*
X-205948Y330916D01*
X-205948Y330966D01*
X-205978Y331109D01*
X-206000Y331252D01*
X-206018Y331299D01*
X-206028Y331348D01*
X-206086Y331481D01*
X-206137Y331617D01*
X-206164Y331659D01*
X-206184Y331705D01*
X-206238Y331776D01*
X-206346Y331946D01*
X-206446Y332049D01*
X-206495Y332114D01*
X-208780Y334399D01*
X-208831Y334441D01*
X-208877Y334489D01*
X-208982Y334564D01*
X-209082Y334645D01*
X-209141Y334675D01*
X-209196Y334714D01*
X-209314Y334765D01*
X-209428Y334824D01*
X-209492Y334842D01*
X-209553Y334868D01*
X-209680Y334894D01*
X-209804Y334929D01*
X-209870Y334934D01*
X-209935Y334947D01*
X-210064Y334947D01*
X-210193Y334955D01*
X-210259Y334946D01*
X-210325Y334946D01*
X-210451Y334920D01*
X-210579Y334902D01*
X-210641Y334880D01*
X-210707Y334866D01*
X-210825Y334814D01*
X-210946Y334771D01*
X-211003Y334737D01*
X-211064Y334710D01*
X-211134Y334657D01*
X-211279Y334568D01*
X-211403Y334452D01*
X-211473Y334399D01*
X-211485Y334387D01*
X-213196Y333678D01*
X-215048Y333678D01*
X-216759Y334387D01*
X-218069Y335697D01*
X-218778Y337408D01*
X-218778Y337788D01*
X-218783Y337837D01*
X-218780Y337887D01*
X-218803Y338031D01*
X-218818Y338175D01*
X-218833Y338223D01*
X-218840Y338272D01*
X-218892Y338408D01*
X-218936Y338547D01*
X-218960Y338590D01*
X-218978Y338637D01*
X-219056Y338760D01*
X-219127Y338887D01*
X-219160Y338924D01*
X-219186Y338966D01*
X-219288Y339071D01*
X-219383Y339180D01*
X-219423Y339210D01*
X-219458Y339246D01*
X-219578Y339328D01*
X-219694Y339416D01*
X-219739Y339437D01*
X-219780Y339465D01*
X-219915Y339520D01*
X-220046Y339583D01*
X-220095Y339594D01*
X-220141Y339613D01*
X-220284Y339640D01*
X-220425Y339674D01*
X-220475Y339676D01*
X-220524Y339685D01*
X-220669Y339682D01*
X-220815Y339687D01*
X-220864Y339679D01*
X-220914Y339678D01*
X-221000Y339655D01*
X-221199Y339620D01*
X-221332Y339568D01*
X-221411Y339547D01*
X-221640Y339452D01*
X-223493Y339452D01*
X-225204Y340161D01*
X-226513Y341470D01*
X-227222Y343181D01*
X-227222Y345034D01*
X-226513Y346745D01*
X-225204Y348054D01*
X-223493Y348763D01*
X-221640Y348763D01*
X-219929Y348054D01*
X-218803Y346928D01*
X-218726Y346865D01*
X-218655Y346795D01*
X-218575Y346742D01*
X-218500Y346682D01*
X-218412Y346636D01*
X-218329Y346582D01*
X-218239Y346547D01*
X-218154Y346503D01*
X-218058Y346476D01*
X-217966Y346440D01*
X-217893Y346430D01*
X-217779Y346398D01*
X-217539Y346382D01*
X-217456Y346370D01*
X-209567Y346370D01*
X-194909Y331713D01*
X-194909Y315781D01*
X-194899Y315682D01*
X-194899Y315583D01*
X-194879Y315489D01*
X-194869Y315394D01*
X-194839Y315299D01*
X-194819Y315201D01*
X-194780Y315113D01*
X-194751Y315022D01*
X-194702Y314935D01*
X-194663Y314844D01*
X-194618Y314786D01*
X-194560Y314682D01*
X-194402Y314501D01*
X-194352Y314435D01*
X-190954Y311037D01*
X-190954Y294681D01*
X-190943Y294582D01*
X-190943Y294482D01*
X-190924Y294389D01*
X-190914Y294293D01*
X-190884Y294199D01*
X-190863Y294101D01*
X-190825Y294013D01*
X-190796Y293922D01*
X-190747Y293835D01*
X-190707Y293744D01*
X-190663Y293686D01*
X-190605Y293582D01*
X-190446Y293401D01*
X-190396Y293335D01*
X-186142Y289081D01*
X-186078Y289029D01*
X-186020Y288969D01*
X-185927Y288906D01*
X-185840Y288835D01*
X-185766Y288797D01*
X-185698Y288750D01*
X-185594Y288708D01*
X-185494Y288656D01*
X-185414Y288634D01*
X-185337Y288602D01*
X-185227Y288581D01*
X-185119Y288551D01*
X-185036Y288545D01*
X-184954Y288530D01*
X-184842Y288532D01*
X-184730Y288525D01*
X-184647Y288536D01*
X-184564Y288538D01*
X-184485Y288558D01*
X-184344Y288578D01*
X-184154Y288646D01*
X-184067Y288668D01*
X-183552Y288882D01*
X-181700Y288882D01*
X-179989Y288173D01*
X-178679Y286863D01*
X-177970Y285152D01*
X-177970Y283300D01*
X-178679Y281589D01*
X-179989Y280279D01*
X-181700Y279570D01*
X-183552Y279570D01*
X-183623Y279600D01*
X-183671Y279614D01*
X-183716Y279635D01*
X-183857Y279669D01*
X-183996Y279711D01*
X-184046Y279715D01*
X-184094Y279727D01*
X-184240Y279732D01*
X-184385Y279744D01*
X-184434Y279738D01*
X-184484Y279740D01*
X-184627Y279715D01*
X-184772Y279698D01*
X-184819Y279682D01*
X-184868Y279673D01*
X-185003Y279620D01*
X-185141Y279573D01*
X-185184Y279548D01*
X-185230Y279530D01*
X-185352Y279450D01*
X-185477Y279376D01*
X-185514Y279343D01*
X-185556Y279315D01*
X-185659Y279212D01*
X-185766Y279115D01*
X-185796Y279074D01*
X-185831Y279039D01*
X-185911Y278917D01*
X-185996Y278800D01*
X-186017Y278754D01*
X-186044Y278713D01*
X-186097Y278577D01*
X-186157Y278445D01*
X-186168Y278396D01*
X-186186Y278350D01*
X-186198Y278261D01*
X-186243Y278064D01*
X-186245Y277921D01*
X-186256Y277840D01*
X-186256Y275505D01*
X-186246Y275406D01*
X-186245Y275307D01*
X-186226Y275213D01*
X-186216Y275117D01*
X-186186Y275023D01*
X-186165Y274925D01*
X-186127Y274837D01*
X-186098Y274746D01*
X-186049Y274659D01*
X-186009Y274568D01*
X-185965Y274510D01*
X-185907Y274406D01*
X-185748Y274225D01*
X-185698Y274159D01*
X-179803Y268263D01*
X-179802Y268263D01*
X-177919Y266380D01*
X-177919Y254545D01*
X-177917Y254520D01*
X-177919Y254495D01*
X-177897Y254326D01*
X-177879Y254157D01*
X-177872Y254133D01*
X-177869Y254108D01*
X-177813Y253948D01*
X-177761Y253786D01*
X-177749Y253764D01*
X-177741Y253740D01*
X-177654Y253594D01*
X-177570Y253446D01*
X-177554Y253427D01*
X-177541Y253406D01*
X-177426Y253280D01*
X-177314Y253152D01*
X-177294Y253137D01*
X-177277Y253119D01*
X-177139Y253020D01*
X-177003Y252917D01*
X-176980Y252906D01*
X-176960Y252892D01*
X-176804Y252823D01*
X-176651Y252750D01*
X-176626Y252744D01*
X-176603Y252734D01*
X-176437Y252698D01*
X-176272Y252658D01*
X-176247Y252657D01*
X-176222Y252652D01*
X-176052Y252651D01*
X-175882Y252645D01*
X-175858Y252650D01*
X-175833Y252650D01*
X-175665Y252683D01*
X-175498Y252712D01*
X-175475Y252721D01*
X-175450Y252726D01*
X-175294Y252793D01*
X-175136Y252856D01*
X-175115Y252870D01*
X-175092Y252879D01*
X-174953Y252977D01*
X-174811Y253070D01*
X-174793Y253088D01*
X-174772Y253102D01*
X-174722Y253159D01*
X-174535Y253346D01*
X-174477Y253436D01*
X-174459Y253457D01*
X-173721Y254195D01*
X-172876Y254759D01*
X-172338Y254982D01*
X-172338Y250190D01*
X-172338Y245398D01*
X-172876Y245621D01*
X-173721Y246185D01*
X-174448Y246912D01*
X-174460Y246934D01*
X-174572Y247062D01*
X-174680Y247193D01*
X-174700Y247209D01*
X-174716Y247228D01*
X-174852Y247330D01*
X-174984Y247436D01*
X-175007Y247448D01*
X-175027Y247463D01*
X-175180Y247536D01*
X-175332Y247613D01*
X-175356Y247619D01*
X-175379Y247630D01*
X-175544Y247670D01*
X-175708Y247714D01*
X-175734Y247716D01*
X-175758Y247722D01*
X-175927Y247727D01*
X-176098Y247737D01*
X-176122Y247734D01*
X-176148Y247735D01*
X-176315Y247706D01*
X-176483Y247681D01*
X-176507Y247672D01*
X-176532Y247668D01*
X-176689Y247605D01*
X-176849Y247547D01*
X-176871Y247533D01*
X-176894Y247524D01*
X-177035Y247431D01*
X-177180Y247341D01*
X-177199Y247324D01*
X-177220Y247310D01*
X-177340Y247189D01*
X-177463Y247072D01*
X-177477Y247052D01*
X-177495Y247034D01*
X-177588Y246891D01*
X-177684Y246752D01*
X-177694Y246728D01*
X-177708Y246707D01*
X-177770Y246549D01*
X-177836Y246393D01*
X-177841Y246368D01*
X-177850Y246344D01*
X-177860Y246270D01*
X-177911Y246010D01*
X-177910Y245902D01*
X-177919Y245835D01*
X-177919Y208368D01*
X-177909Y208269D01*
X-177909Y208169D01*
X-177889Y208075D01*
X-177879Y207980D01*
X-177849Y207885D01*
X-177829Y207788D01*
X-177790Y207700D01*
X-177761Y207609D01*
X-177713Y207522D01*
X-177673Y207431D01*
X-177628Y207373D01*
X-177570Y207269D01*
X-177412Y207088D01*
X-177362Y207021D01*
X-175239Y204899D01*
X-175162Y204837D01*
X-175092Y204766D01*
X-175011Y204714D01*
X-174937Y204653D01*
X-174849Y204608D01*
X-174765Y204553D01*
X-174676Y204518D01*
X-174591Y204474D01*
X-174495Y204447D01*
X-174402Y204411D01*
X-174330Y204401D01*
X-174216Y204369D01*
X-173976Y204353D01*
X-173893Y204342D01*
X-171585Y204342D01*
X-171486Y204352D01*
X-171387Y204352D01*
X-171293Y204372D01*
X-171198Y204382D01*
X-171103Y204412D01*
X-171005Y204432D01*
X-170917Y204471D01*
X-170826Y204500D01*
X-170739Y204549D01*
X-170648Y204588D01*
X-170590Y204633D01*
X-170486Y204691D01*
X-170305Y204849D01*
X-170239Y204899D01*
X-169112Y206026D01*
X-167401Y206735D01*
X-165549Y206735D01*
X-163838Y206026D01*
X-162528Y204716D01*
X-162229Y203993D01*
X-162189Y203920D01*
X-162159Y203843D01*
X-162097Y203749D01*
X-162043Y203650D01*
X-161990Y203587D01*
X-161944Y203517D01*
X-161865Y203438D01*
X-161792Y203352D01*
X-161727Y203301D01*
X-161668Y203242D01*
X-161574Y203181D01*
X-161486Y203112D01*
X-161411Y203075D01*
X-161342Y203029D01*
X-161237Y202988D01*
X-161136Y202938D01*
X-161056Y202917D01*
X-160979Y202887D01*
X-160898Y202876D01*
X-160759Y202840D01*
X-160558Y202830D01*
X-160469Y202818D01*
X-153092Y202818D01*
X-134094Y183820D01*
X-134016Y183757D01*
X-133946Y183686D01*
X-133865Y183634D01*
X-133791Y183574D01*
X-133703Y183528D01*
X-133619Y183473D01*
X-133530Y183438D01*
X-133445Y183394D01*
X-133349Y183367D01*
X-133256Y183331D01*
X-133184Y183321D01*
X-133070Y183289D01*
X-132830Y183273D01*
X-132747Y183262D01*
X-83491Y183262D01*
X-83442Y183267D01*
X-83392Y183264D01*
X-83248Y183287D01*
X-83103Y183302D01*
X-83056Y183317D01*
X-83007Y183324D01*
X-82870Y183376D01*
X-82732Y183420D01*
X-82688Y183444D01*
X-82642Y183462D01*
X-82519Y183540D01*
X-82392Y183611D01*
X-82355Y183644D01*
X-82313Y183670D01*
X-82208Y183772D01*
X-82099Y183867D01*
X-82068Y183907D01*
X-82033Y183942D01*
X-81951Y184062D01*
X-81863Y184178D01*
X-81842Y184223D01*
X-81814Y184264D01*
X-81759Y184399D01*
X-81696Y184530D01*
X-81684Y184579D01*
X-81665Y184625D01*
X-81639Y184768D01*
X-81604Y184909D01*
X-81603Y184959D01*
X-81593Y185008D01*
X-81596Y185153D01*
X-81592Y185299D01*
X-81600Y185348D01*
X-81601Y185398D01*
X-81624Y185484D01*
X-81658Y185683D01*
X-81711Y185816D01*
X-81732Y185895D01*
X-82380Y187459D01*
X-82380Y189311D01*
X-81671Y191022D01*
X-80361Y192332D01*
X-78650Y193041D01*
X-76798Y193041D01*
X-75087Y192332D01*
X-73586Y190831D01*
X-73560Y190810D01*
X-73538Y190785D01*
X-73409Y190687D01*
X-73283Y190585D01*
X-73254Y190569D01*
X-73227Y190549D01*
X-73081Y190480D01*
X-72937Y190405D01*
X-72905Y190396D01*
X-72875Y190382D01*
X-72718Y190344D01*
X-72562Y190300D01*
X-72528Y190298D01*
X-72496Y190290D01*
X-72334Y190285D01*
X-72173Y190274D01*
X-72140Y190279D01*
X-72106Y190278D01*
X-71947Y190305D01*
X-71787Y190327D01*
X-71755Y190339D01*
X-71722Y190344D01*
X-71572Y190404D01*
X-71419Y190458D01*
X-71391Y190476D01*
X-71360Y190488D01*
X-71225Y190577D01*
X-71087Y190661D01*
X-71062Y190684D01*
X-71034Y190702D01*
X-70920Y190817D01*
X-70802Y190928D01*
X-70783Y190955D01*
X-70759Y190978D01*
X-70671Y191114D01*
X-70578Y191246D01*
X-70564Y191277D01*
X-70546Y191305D01*
X-70487Y191455D01*
X-70423Y191604D01*
X-70416Y191637D01*
X-70404Y191668D01*
X-70393Y191750D01*
X-70344Y191986D01*
X-70345Y192105D01*
X-70335Y192177D01*
X-70335Y312087D01*
X-64278Y318144D01*
X-64236Y318196D01*
X-64187Y318241D01*
X-64113Y318347D01*
X-64032Y318447D01*
X-64001Y318506D01*
X-63963Y318560D01*
X-63912Y318679D01*
X-63852Y318793D01*
X-63834Y318857D01*
X-63808Y318918D01*
X-63782Y319044D01*
X-63747Y319168D01*
X-63743Y319235D01*
X-63729Y319300D01*
X-63730Y319429D01*
X-63721Y319557D01*
X-63730Y319623D01*
X-63730Y319690D01*
X-63757Y319816D01*
X-63774Y319943D01*
X-63797Y320006D01*
X-63810Y320071D01*
X-63862Y320189D01*
X-63905Y320310D01*
X-63940Y320367D01*
X-63966Y320428D01*
X-64020Y320498D01*
X-64108Y320643D01*
X-64224Y320768D01*
X-64278Y320837D01*
X-64907Y321467D01*
X-65616Y323178D01*
X-65616Y325030D01*
X-64907Y326741D01*
X-63597Y328051D01*
X-61886Y328760D01*
X-60034Y328760D01*
X-58323Y328051D01*
X-57013Y326741D01*
X-56304Y325030D01*
X-56304Y323178D01*
X-57013Y321467D01*
X-58140Y320340D01*
X-58202Y320263D01*
X-58273Y320192D01*
X-58325Y320112D01*
X-58385Y320038D01*
X-58431Y319950D01*
X-58486Y319866D01*
X-58521Y319777D01*
X-58565Y319692D01*
X-58592Y319596D01*
X-58628Y319503D01*
X-58638Y319431D01*
X-58670Y319316D01*
X-58686Y319076D01*
X-58697Y318994D01*
X-58697Y317325D01*
X-65252Y310770D01*
X-65314Y310693D01*
X-65385Y310623D01*
X-65437Y310542D01*
X-65497Y310468D01*
X-65543Y310380D01*
X-65598Y310296D01*
X-65633Y310207D01*
X-65677Y310122D01*
X-65704Y310026D01*
X-65740Y309933D01*
X-65750Y309861D01*
X-65782Y309747D01*
X-65798Y309507D01*
X-65809Y309424D01*
X-65809Y307422D01*
X-65804Y307373D01*
X-65807Y307323D01*
X-65784Y307179D01*
X-65769Y307034D01*
X-65754Y306987D01*
X-65747Y306938D01*
X-65695Y306802D01*
X-65651Y306663D01*
X-65627Y306619D01*
X-65609Y306573D01*
X-65532Y306450D01*
X-65460Y306323D01*
X-65427Y306286D01*
X-65401Y306244D01*
X-65299Y306139D01*
X-65204Y306030D01*
X-65164Y306000D01*
X-65129Y305964D01*
X-65009Y305882D01*
X-64893Y305794D01*
X-64848Y305773D01*
X-64807Y305745D01*
X-64672Y305690D01*
X-64541Y305627D01*
X-64492Y305616D01*
X-64446Y305597D01*
X-64303Y305570D01*
X-64162Y305535D01*
X-64112Y305534D01*
X-64063Y305525D01*
X-63918Y305527D01*
X-63772Y305523D01*
X-63723Y305531D01*
X-63673Y305532D01*
X-63587Y305555D01*
X-63388Y305589D01*
X-63255Y305642D01*
X-63176Y305663D01*
X-61378Y306408D01*
X-59526Y306408D01*
X-57815Y305699D01*
X-56505Y304389D01*
X-55796Y302678D01*
X-55796Y300826D01*
X-56505Y299115D01*
X-57815Y297805D01*
X-59339Y297174D01*
X-59412Y297134D01*
X-59489Y297104D01*
X-59583Y297042D01*
X-59682Y296989D01*
X-59745Y296935D01*
X-59815Y296889D01*
X-59894Y296810D01*
X-59980Y296737D01*
X-60031Y296672D01*
X-60090Y296613D01*
X-60151Y296519D01*
X-60220Y296431D01*
X-60257Y296356D01*
X-60303Y296287D01*
X-60344Y296182D01*
X-60394Y296082D01*
X-60415Y296001D01*
X-60445Y295924D01*
X-60456Y295843D01*
X-60492Y295704D01*
X-60502Y295503D01*
X-60514Y295415D01*
X-60514Y288475D01*
X-60509Y288426D01*
X-60512Y288376D01*
X-60489Y288232D01*
X-60474Y288088D01*
X-60459Y288040D01*
X-60452Y287991D01*
X-60400Y287855D01*
X-60356Y287716D01*
X-60332Y287673D01*
X-60314Y287626D01*
X-60237Y287503D01*
X-60165Y287376D01*
X-60132Y287339D01*
X-60106Y287297D01*
X-60004Y287192D01*
X-59909Y287083D01*
X-59869Y287053D01*
X-59834Y287017D01*
X-59714Y286935D01*
X-59598Y286847D01*
X-59553Y286826D01*
X-59512Y286798D01*
X-59377Y286743D01*
X-59246Y286680D01*
X-59197Y286669D01*
X-59151Y286650D01*
X-59008Y286623D01*
X-58867Y286588D01*
X-58817Y286587D01*
X-58768Y286578D01*
X-58623Y286580D01*
X-58477Y286576D01*
X-58428Y286584D01*
X-58378Y286585D01*
X-58292Y286608D01*
X-58093Y286642D01*
X-57960Y286695D01*
X-57881Y286716D01*
X-56723Y287196D01*
X-54871Y287196D01*
X-53160Y286487D01*
X-51850Y285177D01*
X-51141Y283466D01*
X-51141Y281614D01*
X-51850Y279903D01*
X-52798Y278955D01*
X-52851Y278890D01*
X-52910Y278832D01*
X-52973Y278739D01*
X-53044Y278652D01*
X-53082Y278579D01*
X-53129Y278510D01*
X-53172Y278406D01*
X-53223Y278306D01*
X-53246Y278226D01*
X-53277Y278149D01*
X-53298Y278039D01*
X-53328Y277931D01*
X-53334Y277848D01*
X-53349Y277766D01*
X-53347Y277654D01*
X-53355Y277542D01*
X-53343Y277460D01*
X-53342Y277377D01*
X-53321Y277298D01*
X-53301Y277156D01*
X-53234Y276966D01*
X-53211Y276879D01*
X-52704Y275656D01*
X-52704Y273804D01*
X-53483Y271923D01*
X-53498Y271875D01*
X-53519Y271830D01*
X-53553Y271688D01*
X-53595Y271549D01*
X-53599Y271500D01*
X-53611Y271451D01*
X-53616Y271306D01*
X-53628Y271161D01*
X-53622Y271111D01*
X-53624Y271061D01*
X-53599Y270918D01*
X-53582Y270774D01*
X-53566Y270727D01*
X-53557Y270677D01*
X-53504Y270543D01*
X-53457Y270404D01*
X-53432Y270361D01*
X-53413Y270315D01*
X-53334Y270194D01*
X-53260Y270068D01*
X-53227Y270031D01*
X-53199Y269989D01*
X-53096Y269887D01*
X-52999Y269779D01*
X-52958Y269750D01*
X-52923Y269714D01*
X-52801Y269635D01*
X-52684Y269549D01*
X-52638Y269529D01*
X-52597Y269501D01*
X-52461Y269448D01*
X-52329Y269388D01*
X-52280Y269377D01*
X-52234Y269359D01*
X-52145Y269347D01*
X-51948Y269303D01*
X-51805Y269301D01*
X-51724Y269290D01*
X-49143Y269290D01*
X-44122Y264269D01*
X-44122Y238256D01*
X-46006Y236373D01*
X-50084Y232295D01*
X-50146Y232218D01*
X-50217Y232148D01*
X-50269Y232067D01*
X-50329Y231993D01*
X-50375Y231905D01*
X-50430Y231821D01*
X-50465Y231732D01*
X-50509Y231647D01*
X-50536Y231551D01*
X-50572Y231458D01*
X-50582Y231386D01*
X-50614Y231271D01*
X-50624Y231126D01*
X-50624Y231125D01*
X-50624Y231120D01*
X-50630Y231031D01*
X-50641Y230949D01*
X-50641Y200437D01*
X-50638Y200404D01*
X-50640Y200371D01*
X-50618Y200210D01*
X-50601Y200049D01*
X-50591Y200018D01*
X-50587Y199985D01*
X-50532Y199832D01*
X-50483Y199678D01*
X-50467Y199649D01*
X-50456Y199617D01*
X-50372Y199479D01*
X-50292Y199338D01*
X-50270Y199313D01*
X-50253Y199285D01*
X-50142Y199166D01*
X-50036Y199044D01*
X-50009Y199024D01*
X-49987Y199000D01*
X-49854Y198907D01*
X-49725Y198809D01*
X-49695Y198795D01*
X-49668Y198776D01*
X-49519Y198711D01*
X-49373Y198642D01*
X-49341Y198634D01*
X-49310Y198621D01*
X-49151Y198588D01*
X-48994Y198550D01*
X-48961Y198549D01*
X-48928Y198542D01*
X-48766Y198543D01*
X-48604Y198537D01*
X-48572Y198543D01*
X-48538Y198543D01*
X-48380Y198576D01*
X-48220Y198604D01*
X-48190Y198616D01*
X-48157Y198623D01*
X-48008Y198688D01*
X-47858Y198748D01*
X-47830Y198766D01*
X-47800Y198779D01*
X-47733Y198830D01*
X-47533Y198962D01*
X-47449Y199046D01*
X-47391Y199090D01*
X-32182Y214300D01*
X-32165Y214320D01*
X-32147Y214335D01*
X-32107Y214388D01*
X-32048Y214447D01*
X-31996Y214528D01*
X-31936Y214602D01*
X-31914Y214643D01*
X-31912Y214646D01*
X-31906Y214660D01*
X-31890Y214690D01*
X-31835Y214774D01*
X-31800Y214863D01*
X-31756Y214948D01*
X-31729Y215044D01*
X-31693Y215137D01*
X-31683Y215209D01*
X-31651Y215323D01*
X-31635Y215563D01*
X-31624Y215646D01*
X-31624Y322197D01*
X-31632Y322279D01*
X-31631Y322362D01*
X-31652Y322473D01*
X-31664Y322584D01*
X-31689Y322663D01*
X-31704Y322745D01*
X-31748Y322849D01*
X-31782Y322956D01*
X-31822Y323028D01*
X-31854Y323105D01*
X-31918Y323198D01*
X-31973Y323295D01*
X-32027Y323358D01*
X-32074Y323427D01*
X-32155Y323505D01*
X-32229Y323589D01*
X-32295Y323639D01*
X-32355Y323697D01*
X-32426Y323738D01*
X-32540Y323824D01*
X-32722Y323911D01*
X-32799Y323956D01*
X-34516Y324667D01*
X-35162Y325313D01*
X-35175Y325323D01*
X-35186Y325336D01*
X-35325Y325445D01*
X-35464Y325559D01*
X-35479Y325566D01*
X-35492Y325577D01*
X-35652Y325656D01*
X-35810Y325738D01*
X-35826Y325742D01*
X-35841Y325750D01*
X-36014Y325795D01*
X-36186Y325843D01*
X-36202Y325844D01*
X-36219Y325848D01*
X-36397Y325857D01*
X-36575Y325869D01*
X-36591Y325867D01*
X-36608Y325868D01*
X-36785Y325840D01*
X-36961Y325816D01*
X-36976Y325810D01*
X-36993Y325808D01*
X-37160Y325745D01*
X-37328Y325685D01*
X-37342Y325676D01*
X-37358Y325670D01*
X-37508Y325575D01*
X-37661Y325482D01*
X-37673Y325471D01*
X-37687Y325462D01*
X-37815Y325338D01*
X-37945Y325216D01*
X-37955Y325202D01*
X-37967Y325190D01*
X-38067Y325043D01*
X-38170Y324897D01*
X-38176Y324881D01*
X-38186Y324868D01*
X-38253Y324703D01*
X-38324Y324539D01*
X-38328Y324523D01*
X-38334Y324507D01*
X-38367Y324332D01*
X-38403Y324157D01*
X-38403Y324141D01*
X-38406Y324124D01*
X-38403Y323946D01*
X-38402Y323768D01*
X-38399Y323751D01*
X-38399Y323735D01*
X-38383Y323675D01*
X-38322Y323386D01*
X-38284Y323298D01*
X-38268Y323237D01*
X-38080Y322785D01*
X-38080Y320933D01*
X-38789Y319221D01*
X-40099Y317912D01*
X-41810Y317203D01*
X-43662Y317203D01*
X-45373Y317912D01*
X-46683Y319221D01*
X-47392Y320933D01*
X-47392Y322785D01*
X-46683Y324496D01*
X-45373Y325806D01*
X-43662Y326515D01*
X-41810Y326515D01*
X-40083Y325799D01*
X-39984Y325722D01*
X-39846Y325609D01*
X-39831Y325602D01*
X-39818Y325591D01*
X-39658Y325512D01*
X-39500Y325430D01*
X-39484Y325425D01*
X-39469Y325418D01*
X-39295Y325373D01*
X-39124Y325325D01*
X-39108Y325324D01*
X-39091Y325320D01*
X-38913Y325311D01*
X-38735Y325299D01*
X-38719Y325301D01*
X-38702Y325300D01*
X-38526Y325328D01*
X-38349Y325352D01*
X-38334Y325358D01*
X-38317Y325360D01*
X-38150Y325423D01*
X-37982Y325483D01*
X-37968Y325491D01*
X-37952Y325497D01*
X-37801Y325593D01*
X-37649Y325686D01*
X-37637Y325697D01*
X-37623Y325706D01*
X-37495Y325830D01*
X-37365Y325952D01*
X-37355Y325966D01*
X-37343Y325977D01*
X-37243Y326125D01*
X-37140Y326271D01*
X-37134Y326286D01*
X-37124Y326300D01*
X-37056Y326466D01*
X-36986Y326629D01*
X-36982Y326645D01*
X-36976Y326660D01*
X-36943Y326835D01*
X-36907Y327010D01*
X-36907Y327027D01*
X-36904Y327043D01*
X-36907Y327221D01*
X-36908Y327400D01*
X-36911Y327416D01*
X-36911Y327433D01*
X-36927Y327493D01*
X-36988Y327782D01*
X-37026Y327870D01*
X-37042Y327930D01*
X-37606Y329291D01*
X-37606Y332125D01*
X-36521Y334744D01*
X-34516Y336749D01*
X-32799Y337460D01*
X-32726Y337500D01*
X-32649Y337530D01*
X-32555Y337592D01*
X-32456Y337645D01*
X-32393Y337699D01*
X-32324Y337745D01*
X-32244Y337824D01*
X-32158Y337897D01*
X-32107Y337962D01*
X-32048Y338021D01*
X-31987Y338115D01*
X-31918Y338203D01*
X-31881Y338278D01*
X-31835Y338347D01*
X-31794Y338452D01*
X-31744Y338552D01*
X-31723Y338633D01*
X-31693Y338710D01*
X-31682Y338791D01*
X-31646Y338930D01*
X-31636Y339131D01*
X-31624Y339219D01*
X-31624Y362712D01*
X-31631Y362778D01*
X-31628Y362845D01*
X-31650Y362972D01*
X-31664Y363100D01*
X-31684Y363163D01*
X-31695Y363229D01*
X-31743Y363348D01*
X-31782Y363471D01*
X-31814Y363529D01*
X-31839Y363591D01*
X-31910Y363698D01*
X-31973Y363811D01*
X-32017Y363861D01*
X-32053Y363917D01*
X-32144Y364008D01*
X-32229Y364105D01*
X-32282Y364145D01*
X-32329Y364192D01*
X-32437Y364262D01*
X-32540Y364340D01*
X-32600Y364368D01*
X-32656Y364405D01*
X-32776Y364452D01*
X-32892Y364507D01*
X-32957Y364523D01*
X-33019Y364547D01*
X-33105Y364559D01*
X-33271Y364599D01*
X-33441Y364604D01*
X-33528Y364616D01*
X-80098Y364616D01*
X-80214Y364604D01*
X-80330Y364602D01*
X-80390Y364586D01*
X-80486Y364576D01*
X-80767Y364487D01*
X-80827Y364471D01*
X-82517Y363771D01*
X-84369Y363771D01*
X-86059Y364471D01*
X-86170Y364505D01*
X-86278Y364547D01*
X-86340Y364555D01*
X-86433Y364583D01*
X-86727Y364608D01*
X-86788Y364616D01*
X-104862Y364616D01*
X-104945Y364608D01*
X-105029Y364609D01*
X-105139Y364588D01*
X-105250Y364576D01*
X-105330Y364551D01*
X-105411Y364535D01*
X-105515Y364492D01*
X-105622Y364458D01*
X-105694Y364418D01*
X-105771Y364386D01*
X-105864Y364322D01*
X-105961Y364267D01*
X-106024Y364213D01*
X-106093Y364165D01*
X-106171Y364085D01*
X-106255Y364011D01*
X-106305Y363944D01*
X-106363Y363884D01*
X-106404Y363814D01*
X-106490Y363700D01*
X-106505Y363668D01*
X-107853Y362321D01*
X-109564Y361612D01*
X-111416Y361612D01*
X-113127Y362321D01*
X-114488Y363682D01*
X-114490Y363684D01*
X-114543Y363783D01*
X-114597Y363847D01*
X-114643Y363917D01*
X-114722Y363996D01*
X-114794Y364081D01*
X-114860Y364133D01*
X-114919Y364192D01*
X-115013Y364253D01*
X-115101Y364322D01*
X-115175Y364359D01*
X-115245Y364405D01*
X-115349Y364446D01*
X-115450Y364495D01*
X-115531Y364517D01*
X-115608Y364547D01*
X-115689Y364558D01*
X-115827Y364594D01*
X-116029Y364604D01*
X-116118Y364616D01*
X-116148Y364616D01*
X-116187Y364612D01*
X-116217Y364614D01*
X-116224Y364613D01*
X-116247Y364614D01*
X-116391Y364591D01*
X-116535Y364576D01*
X-116583Y364561D01*
X-116632Y364554D01*
X-116768Y364502D01*
X-116907Y364458D01*
X-116950Y364434D01*
X-116997Y364416D01*
X-117120Y364339D01*
X-117246Y364267D01*
X-117284Y364234D01*
X-117326Y364208D01*
X-117431Y364106D01*
X-117540Y364011D01*
X-117570Y363971D01*
X-117606Y363936D01*
X-117688Y363816D01*
X-117775Y363700D01*
X-117797Y363655D01*
X-117825Y363614D01*
X-117880Y363479D01*
X-117942Y363348D01*
X-117954Y363299D01*
X-117973Y363253D01*
X-118000Y363110D01*
X-118034Y362969D01*
X-118036Y362919D01*
X-118045Y362870D01*
X-118042Y362725D01*
X-118047Y362579D01*
X-118039Y362530D01*
X-118038Y362480D01*
X-118015Y362394D01*
X-117980Y362195D01*
X-117928Y362062D01*
X-117907Y361983D01*
X-117481Y360954D01*
X-117481Y359102D01*
X-118189Y357391D01*
X-119499Y356081D01*
X-121210Y355372D01*
X-123062Y355372D01*
X-124774Y356081D01*
X-126083Y357391D01*
X-126795Y359109D01*
X-126799Y359146D01*
X-126797Y359213D01*
X-126819Y359340D01*
X-126832Y359468D01*
X-126852Y359531D01*
X-126863Y359597D01*
X-126911Y359716D01*
X-126950Y359839D01*
X-126983Y359897D01*
X-127007Y359959D01*
X-127078Y360066D01*
X-127141Y360179D01*
X-127185Y360229D01*
X-127221Y360285D01*
X-127313Y360376D01*
X-127397Y360473D01*
X-127450Y360513D01*
X-127497Y360560D01*
X-127605Y360630D01*
X-127708Y360708D01*
X-127768Y360736D01*
X-127824Y360773D01*
X-127944Y360820D01*
X-128060Y360875D01*
X-128125Y360891D01*
X-128187Y360915D01*
X-128274Y360927D01*
X-128439Y360967D01*
X-128604Y360972D01*
X-130344Y361693D01*
X-131654Y363003D01*
X-131835Y363441D01*
X-131875Y363514D01*
X-131905Y363591D01*
X-131967Y363685D01*
X-132020Y363784D01*
X-132074Y363847D01*
X-132120Y363917D01*
X-132199Y363996D01*
X-132272Y364082D01*
X-132337Y364133D01*
X-132396Y364192D01*
X-132490Y364253D01*
X-132578Y364322D01*
X-132653Y364359D01*
X-132722Y364405D01*
X-132827Y364446D01*
X-132927Y364496D01*
X-133008Y364517D01*
X-133085Y364547D01*
X-133166Y364558D01*
X-133305Y364594D01*
X-133506Y364604D01*
X-133595Y364616D01*
X-159238Y364616D01*
X-159304Y364609D01*
X-159371Y364612D01*
X-159498Y364590D01*
X-159626Y364576D01*
X-159689Y364556D01*
X-159755Y364545D01*
X-159874Y364497D01*
X-159997Y364458D01*
X-160055Y364426D01*
X-160117Y364401D01*
X-160224Y364330D01*
X-160337Y364267D01*
X-160387Y364223D01*
X-160443Y364187D01*
X-160534Y364096D01*
X-160631Y364011D01*
X-160671Y363958D01*
X-160718Y363911D01*
X-160788Y363803D01*
X-160866Y363700D01*
X-160894Y363640D01*
X-160931Y363584D01*
X-160978Y363464D01*
X-161033Y363348D01*
X-161049Y363283D01*
X-161073Y363221D01*
X-161085Y363135D01*
X-161125Y362969D01*
X-161130Y362799D01*
X-161142Y362712D01*
X-161142Y359112D01*
X-161135Y359046D01*
X-161138Y358979D01*
X-161116Y358852D01*
X-161102Y358724D01*
X-161082Y358661D01*
X-161071Y358595D01*
X-161023Y358476D01*
X-160984Y358353D01*
X-160952Y358295D01*
X-160927Y358233D01*
X-160856Y358126D01*
X-160793Y358013D01*
X-160749Y357963D01*
X-160713Y357907D01*
X-160622Y357816D01*
X-160537Y357719D01*
X-160484Y357679D01*
X-160437Y357632D01*
X-160329Y357562D01*
X-160226Y357484D01*
X-160166Y357456D01*
X-160110Y357419D01*
X-159990Y357372D01*
X-159874Y357317D01*
X-159809Y357301D01*
X-159747Y357277D01*
X-159661Y357265D01*
X-159495Y357225D01*
X-159325Y357220D01*
X-159238Y357208D01*
X-157062Y357208D01*
X-155351Y356499D01*
X-154041Y355189D01*
X-153332Y353478D01*
X-153332Y351626D01*
X-154041Y349915D01*
X-155351Y348605D01*
X-157062Y347896D01*
X-158914Y347896D01*
X-160199Y348429D01*
X-160279Y348452D01*
X-160355Y348485D01*
X-160465Y348508D01*
X-160573Y348540D01*
X-160655Y348547D01*
X-160737Y348564D01*
X-160849Y348564D01*
X-160961Y348573D01*
X-161044Y348563D01*
X-161127Y348563D01*
X-161237Y348540D01*
X-161348Y348527D01*
X-161427Y348500D01*
X-161508Y348483D01*
X-161611Y348438D01*
X-161718Y348402D01*
X-161789Y348360D01*
X-161865Y348327D01*
X-161930Y348277D01*
X-162054Y348205D01*
X-162203Y348070D01*
X-162275Y348016D01*
X-163555Y346735D01*
X-165600Y345888D01*
X-166277Y345888D01*
X-166393Y345876D01*
X-166509Y345874D01*
X-166546Y345864D01*
X-168566Y345864D01*
X-170277Y346573D01*
X-171587Y347883D01*
X-172296Y349594D01*
X-172296Y351638D01*
X-172280Y351822D01*
X-172272Y351883D01*
X-172272Y362712D01*
X-172279Y362778D01*
X-172276Y362845D01*
X-172298Y362972D01*
X-172312Y363100D01*
X-172332Y363163D01*
X-172343Y363229D01*
X-172391Y363348D01*
X-172430Y363471D01*
X-172462Y363529D01*
X-172487Y363591D01*
X-172558Y363698D01*
X-172621Y363811D01*
X-172665Y363861D01*
X-172701Y363917D01*
X-172792Y364008D01*
X-172877Y364105D01*
X-172930Y364145D01*
X-172977Y364192D01*
X-173085Y364262D01*
X-173188Y364340D01*
X-173248Y364368D01*
X-173304Y364405D01*
X-173424Y364452D01*
X-173540Y364507D01*
X-173605Y364523D01*
X-173667Y364547D01*
X-173753Y364559D01*
X-173919Y364599D01*
X-174089Y364604D01*
X-174176Y364616D01*
X-198604Y364616D01*
X-198686Y364608D01*
X-198769Y364609D01*
X-198880Y364588D01*
X-198992Y364576D01*
X-199071Y364551D01*
X-199152Y364536D01*
X-199256Y364492D01*
X-199363Y364458D01*
X-199435Y364418D01*
X-199512Y364386D01*
X-199605Y364322D01*
X-199703Y364267D01*
X-199765Y364213D01*
X-199834Y364166D01*
X-199912Y364085D01*
X-199996Y364011D01*
X-200046Y363945D01*
X-200104Y363885D01*
X-200145Y363814D01*
X-200232Y363700D01*
X-200318Y363518D01*
X-200363Y363441D01*
X-200969Y361978D01*
X-202974Y359973D01*
X-205593Y358888D01*
X-208427Y358888D01*
X-211046Y359973D01*
X-213051Y361978D01*
X-213657Y363441D01*
X-213696Y363514D01*
X-213727Y363591D01*
X-213789Y363685D01*
X-213842Y363784D01*
X-213896Y363847D01*
X-213941Y363917D01*
X-214021Y363996D01*
X-214093Y364082D01*
X-214159Y364133D01*
X-214217Y364192D01*
X-214312Y364253D01*
X-214400Y364322D01*
X-214474Y364359D01*
X-214544Y364405D01*
X-214648Y364446D01*
X-214749Y364496D01*
X-214830Y364517D01*
X-214907Y364547D01*
X-214988Y364558D01*
X-215126Y364594D01*
X-215328Y364604D01*
X-215416Y364616D01*
X-225927Y364616D01*
X-226026Y364606D01*
X-226125Y364606D01*
X-226219Y364586D01*
X-226315Y364576D01*
X-226409Y364546D01*
X-226507Y364526D01*
X-226595Y364487D01*
X-226686Y364458D01*
X-226773Y364409D01*
X-226864Y364370D01*
X-226922Y364325D01*
X-227026Y364267D01*
X-227207Y364109D01*
X-227273Y364058D01*
X-227487Y363845D01*
X-229198Y363136D01*
X-231125Y363136D01*
X-231229Y363167D01*
X-231296Y363173D01*
X-231360Y363187D01*
X-231489Y363189D01*
X-231618Y363200D01*
X-231684Y363192D01*
X-231750Y363194D01*
X-231877Y363169D01*
X-232005Y363154D01*
X-232068Y363133D01*
X-232133Y363120D01*
X-232252Y363070D01*
X-232374Y363029D01*
X-232431Y362996D01*
X-232493Y362970D01*
X-232599Y362897D01*
X-232710Y362832D01*
X-232759Y362788D01*
X-232815Y362750D01*
X-232904Y362657D01*
X-232999Y362571D01*
X-233039Y362517D01*
X-233085Y362469D01*
X-233129Y362393D01*
X-233229Y362256D01*
X-233300Y362101D01*
X-233344Y362025D01*
X-233935Y360598D01*
X-235245Y359288D01*
X-236956Y358579D01*
X-238808Y358579D01*
X-240519Y359288D01*
X-241829Y360598D01*
X-242538Y362309D01*
X-242538Y362712D01*
X-242545Y362778D01*
X-242542Y362845D01*
X-242564Y362972D01*
X-242578Y363100D01*
X-242598Y363163D01*
X-242609Y363229D01*
X-242657Y363348D01*
X-242696Y363471D01*
X-242728Y363529D01*
X-242753Y363591D01*
X-242824Y363698D01*
X-242887Y363811D01*
X-242931Y363861D01*
X-242967Y363917D01*
X-243058Y364008D01*
X-243143Y364105D01*
X-243196Y364145D01*
X-243243Y364192D01*
X-243351Y364262D01*
X-243454Y364340D01*
X-243514Y364368D01*
X-243570Y364405D01*
X-243690Y364452D01*
X-243806Y364507D01*
X-243871Y364523D01*
X-243933Y364547D01*
X-244019Y364559D01*
X-244185Y364599D01*
X-244355Y364604D01*
X-244442Y364616D01*
X-272153Y364616D01*
X-272219Y364609D01*
X-272285Y364612D01*
X-272412Y364590D01*
X-272541Y364576D01*
X-272604Y364556D01*
X-272670Y364545D01*
X-272789Y364497D01*
X-272912Y364458D01*
X-272970Y364426D01*
X-273032Y364401D01*
X-273139Y364330D01*
X-273252Y364267D01*
X-273302Y364223D01*
X-273357Y364187D01*
X-273448Y364096D01*
X-273546Y364011D01*
X-273586Y363958D01*
X-273633Y363911D01*
X-273703Y363803D01*
X-273781Y363700D01*
X-273809Y363640D01*
X-273846Y363584D01*
X-273893Y363464D01*
X-273948Y363348D01*
X-273964Y363283D01*
X-273988Y363221D01*
X-274000Y363135D01*
X-274040Y362969D01*
X-274045Y362799D01*
X-274057Y362712D01*
X-274057Y357824D01*
X-274053Y357783D01*
X-274055Y357741D01*
X-274033Y357589D01*
X-274017Y357437D01*
X-274005Y357397D01*
X-273999Y357356D01*
X-273946Y357211D01*
X-273899Y357065D01*
X-273879Y357029D01*
X-273865Y356990D01*
X-273784Y356860D01*
X-273708Y356725D01*
X-273681Y356694D01*
X-273659Y356659D01*
X-273553Y356547D01*
X-273452Y356432D01*
X-273419Y356407D01*
X-273390Y356377D01*
X-273263Y356289D01*
X-273141Y356196D01*
X-273103Y356179D01*
X-273069Y356155D01*
X-272927Y356095D01*
X-272789Y356029D01*
X-272749Y356020D01*
X-272710Y356003D01*
X-272559Y355974D01*
X-272410Y355937D01*
X-272368Y355936D01*
X-272328Y355928D01*
X-272174Y355930D01*
X-272020Y355925D01*
X-271979Y355932D01*
X-271938Y355932D01*
X-271788Y355965D01*
X-271636Y355991D01*
X-271598Y356007D01*
X-271557Y356016D01*
X-271478Y356054D01*
X-271274Y356135D01*
X-271165Y356207D01*
X-271095Y356241D01*
X-270158Y356867D01*
X-269620Y357090D01*
X-269620Y352298D01*
X-269620Y347506D01*
X-270158Y347729D01*
X-271095Y348355D01*
X-271132Y348374D01*
X-271165Y348400D01*
X-271304Y348465D01*
X-271440Y348537D01*
X-271480Y348549D01*
X-271517Y348567D01*
X-271666Y348603D01*
X-271814Y348646D01*
X-271856Y348649D01*
X-271896Y348659D01*
X-272049Y348664D01*
X-272203Y348675D01*
X-272244Y348670D01*
X-272285Y348671D01*
X-272437Y348645D01*
X-272589Y348625D01*
X-272629Y348612D01*
X-272670Y348605D01*
X-272812Y348548D01*
X-272958Y348498D01*
X-272993Y348476D01*
X-273032Y348461D01*
X-273160Y348377D01*
X-273292Y348298D01*
X-273323Y348269D01*
X-273357Y348247D01*
X-273466Y348138D01*
X-273579Y348034D01*
X-273603Y348000D01*
X-273633Y347970D01*
X-273717Y347841D01*
X-273806Y347717D01*
X-273823Y347679D01*
X-273846Y347644D01*
X-273902Y347500D01*
X-273964Y347360D01*
X-273973Y347320D01*
X-273988Y347281D01*
X-274000Y347194D01*
X-274046Y346979D01*
X-274047Y346849D01*
X-274057Y346772D01*
X-274057Y338363D01*
X-274066Y338354D01*
X-274118Y338274D01*
X-274178Y338199D01*
X-274224Y338111D01*
X-274279Y338028D01*
X-274314Y337938D01*
X-274358Y337853D01*
X-274385Y337757D01*
X-274421Y337665D01*
X-274431Y337592D01*
X-274463Y337478D01*
X-274479Y337238D01*
X-274490Y337155D01*
X-274490Y336640D01*
X-275199Y334929D01*
X-276509Y333619D01*
X-278220Y332910D01*
X-280072Y332910D01*
X-281783Y333619D01*
X-283093Y334929D01*
X-283802Y336640D01*
X-283802Y338492D01*
X-283093Y340203D01*
X-281783Y341513D01*
X-281282Y341720D01*
X-281209Y341760D01*
X-281132Y341791D01*
X-281038Y341852D01*
X-280939Y341906D01*
X-280876Y341959D01*
X-280806Y342005D01*
X-280727Y342084D01*
X-280641Y342157D01*
X-280590Y342222D01*
X-280531Y342281D01*
X-280470Y342375D01*
X-280401Y342464D01*
X-280364Y342538D01*
X-280318Y342607D01*
X-280277Y342712D01*
X-280227Y342813D01*
X-280206Y342893D01*
X-280176Y342970D01*
X-280165Y343051D01*
X-280129Y343190D01*
X-280119Y343391D01*
X-280107Y343480D01*
X-280107Y362712D01*
X-280113Y362778D01*
X-280111Y362845D01*
X-280133Y362972D01*
X-280147Y363100D01*
X-280167Y363163D01*
X-280178Y363229D01*
X-280226Y363348D01*
X-280265Y363471D01*
X-280297Y363529D01*
X-280322Y363591D01*
X-280392Y363698D01*
X-280456Y363811D01*
X-280499Y363861D01*
X-280536Y363917D01*
X-280627Y364008D01*
X-280712Y364105D01*
X-280765Y364145D01*
X-280812Y364192D01*
X-280920Y364262D01*
X-281023Y364340D01*
X-281083Y364368D01*
X-281139Y364405D01*
X-281259Y364452D01*
X-281375Y364507D01*
X-281440Y364523D01*
X-281502Y364547D01*
X-281588Y364559D01*
X-281754Y364599D01*
X-281924Y364604D01*
X-282011Y364616D01*
X-327450Y364616D01*
X-327516Y364609D01*
X-327583Y364612D01*
X-327710Y364590D01*
X-327838Y364576D01*
X-327901Y364556D01*
X-327967Y364545D01*
X-328086Y364497D01*
X-328209Y364458D01*
X-328267Y364426D01*
X-328329Y364401D01*
X-328436Y364330D01*
X-328549Y364267D01*
X-328599Y364223D01*
X-328655Y364187D01*
X-328746Y364096D01*
X-328843Y364011D01*
X-328883Y363958D01*
X-328930Y363911D01*
X-329000Y363803D01*
X-329078Y363700D01*
X-329106Y363640D01*
X-329143Y363584D01*
X-329190Y363464D01*
X-329245Y363348D01*
X-329261Y363283D01*
X-329285Y363221D01*
X-329297Y363135D01*
X-329337Y362969D01*
X-329342Y362799D01*
X-329354Y362712D01*
X-329354Y361278D01*
X-330063Y359567D01*
X-331373Y358257D01*
X-333084Y357548D01*
X-334936Y357548D01*
X-336647Y358257D01*
X-337957Y359567D01*
X-338666Y361278D01*
X-338666Y362712D01*
X-338673Y362778D01*
X-338670Y362845D01*
X-338692Y362972D01*
X-338706Y363100D01*
X-338726Y363163D01*
X-338737Y363229D01*
X-338785Y363348D01*
X-338824Y363471D01*
X-338856Y363529D01*
X-338881Y363591D01*
X-338952Y363698D01*
X-339015Y363811D01*
X-339059Y363861D01*
X-339095Y363917D01*
X-339186Y364008D01*
X-339271Y364105D01*
X-339324Y364145D01*
X-339371Y364192D01*
X-339479Y364262D01*
X-339582Y364340D01*
X-339642Y364368D01*
X-339698Y364405D01*
X-339818Y364452D01*
X-339934Y364507D01*
X-339999Y364523D01*
X-340061Y364547D01*
X-340147Y364559D01*
X-340313Y364599D01*
X-340483Y364604D01*
X-340570Y364616D01*
X-406150Y364616D01*
X-406200Y364611D01*
X-406249Y364614D01*
X-406393Y364591D01*
X-406538Y364576D01*
X-406585Y364561D01*
X-406635Y364554D01*
X-406771Y364502D01*
X-406909Y364458D01*
X-406953Y364434D01*
X-406999Y364416D01*
X-407122Y364339D01*
X-407249Y364267D01*
X-407287Y364234D01*
X-407329Y364208D01*
X-407433Y364106D01*
X-407543Y364011D01*
X-407573Y363971D01*
X-407609Y363936D01*
X-407690Y363816D01*
X-407778Y363700D01*
X-407799Y363655D01*
X-407827Y363614D01*
X-407883Y363479D01*
X-407945Y363348D01*
X-407957Y363299D01*
X-407976Y363253D01*
X-408003Y363110D01*
X-408037Y362969D01*
X-408038Y362919D01*
X-408048Y362870D01*
X-408045Y362725D01*
X-408050Y362579D01*
X-408041Y362530D01*
X-408040Y362480D01*
X-408017Y362394D01*
X-407983Y362195D01*
X-407930Y362062D01*
X-407909Y361983D01*
X-407332Y360590D01*
X-407332Y358743D01*
X-407322Y358644D01*
X-407322Y358544D01*
X-407302Y358450D01*
X-407292Y358355D01*
X-407262Y358260D01*
X-407242Y358163D01*
X-407203Y358075D01*
X-407174Y357984D01*
X-407125Y357897D01*
X-407086Y357806D01*
X-407041Y357748D01*
X-406983Y357644D01*
X-406825Y357463D01*
X-406775Y357397D01*
X-399819Y350441D01*
X-399819Y325453D01*
X-401145Y324127D01*
X-448146Y324127D01*
X-448229Y324119D01*
X-448312Y324120D01*
X-448422Y324099D01*
X-448534Y324087D01*
X-448613Y324062D01*
X-448695Y324047D01*
X-448798Y324003D01*
X-448906Y323969D01*
X-448978Y323929D01*
X-449055Y323897D01*
X-449147Y323833D01*
X-449245Y323778D01*
X-449308Y323723D01*
X-449376Y323677D01*
X-449454Y323596D01*
X-449539Y323522D01*
X-449589Y323456D01*
X-449647Y323396D01*
X-449688Y323325D01*
X-449774Y323211D01*
X-449861Y323029D01*
X-449906Y322952D01*
X-450205Y322229D01*
X-451515Y320919D01*
X-453226Y320210D01*
X-455078Y320210D01*
X-456789Y320919D01*
X-457888Y322017D01*
X-457926Y322049D01*
X-457960Y322086D01*
X-458077Y322172D01*
X-458190Y322263D01*
X-458234Y322286D01*
X-458275Y322316D01*
X-458407Y322376D01*
X-458536Y322443D01*
X-458584Y322456D01*
X-458630Y322477D01*
X-458772Y322509D01*
X-458912Y322548D01*
X-458961Y322551D01*
X-459010Y322562D01*
X-459156Y322564D01*
X-459300Y322574D01*
X-459350Y322567D01*
X-459400Y322568D01*
X-459543Y322541D01*
X-459687Y322521D01*
X-459734Y322504D01*
X-459783Y322494D01*
X-459917Y322438D01*
X-460054Y322390D01*
X-460096Y322364D01*
X-460143Y322345D01*
X-460262Y322263D01*
X-460387Y322187D01*
X-460423Y322153D01*
X-460464Y322125D01*
X-460565Y322020D01*
X-460671Y321920D01*
X-460700Y321880D01*
X-460734Y321844D01*
X-460779Y321766D01*
X-460895Y321602D01*
X-460916Y321555D01*
X-462248Y320223D01*
X-463959Y319514D01*
X-465812Y319514D01*
X-467523Y320223D01*
X-468832Y321532D01*
X-469541Y323243D01*
X-469541Y325234D01*
X-469546Y325284D01*
X-469544Y325333D01*
X-469566Y325477D01*
X-469581Y325622D01*
X-469596Y325669D01*
X-469604Y325719D01*
X-469655Y325855D01*
X-469699Y325993D01*
X-469724Y326037D01*
X-469741Y326083D01*
X-469819Y326206D01*
X-469890Y326333D01*
X-469923Y326370D01*
X-469950Y326413D01*
X-470051Y326517D01*
X-470147Y326627D01*
X-470186Y326657D01*
X-470221Y326692D01*
X-470342Y326774D01*
X-470457Y326862D01*
X-470503Y326883D01*
X-470544Y326911D01*
X-470678Y326967D01*
X-470810Y327029D01*
X-470858Y327041D01*
X-470904Y327060D01*
X-471047Y327087D01*
X-471188Y327121D01*
X-471238Y327122D01*
X-471287Y327132D01*
X-471433Y327129D01*
X-471578Y327134D01*
X-471627Y327125D01*
X-471677Y327124D01*
X-471764Y327101D01*
X-471962Y327067D01*
X-472010Y327048D01*
X-473894Y327048D01*
X-475606Y327757D01*
X-476915Y329066D01*
X-477624Y330778D01*
X-477624Y332630D01*
X-476915Y334341D01*
X-475649Y335607D01*
X-475607Y335659D01*
X-475558Y335704D01*
X-475484Y335810D01*
X-475403Y335910D01*
X-475372Y335969D01*
X-475334Y336023D01*
X-475283Y336141D01*
X-475224Y336256D01*
X-475206Y336320D01*
X-475179Y336381D01*
X-475153Y336507D01*
X-475119Y336631D01*
X-475114Y336698D01*
X-475101Y336763D01*
X-475101Y336892D01*
X-475092Y337020D01*
X-475101Y337086D01*
X-475101Y337153D01*
X-475128Y337279D01*
X-475146Y337406D01*
X-475168Y337469D01*
X-475181Y337534D01*
X-475233Y337652D01*
X-475276Y337774D01*
X-475311Y337830D01*
X-475338Y337891D01*
X-475391Y337961D01*
X-475479Y338106D01*
X-475596Y338231D01*
X-475649Y338300D01*
X-477149Y339801D01*
X-477858Y341512D01*
X-477858Y343364D01*
X-477149Y345075D01*
X-475839Y346385D01*
X-474128Y347094D01*
X-472276Y347094D01*
X-470551Y346379D01*
X-470451Y346309D01*
X-470351Y346227D01*
X-470292Y346197D01*
X-470237Y346158D01*
X-470119Y346107D01*
X-470005Y346048D01*
X-469941Y346030D01*
X-469879Y346004D01*
X-469753Y345978D01*
X-469629Y345943D01*
X-469563Y345939D01*
X-469498Y345925D01*
X-469369Y345925D01*
X-469240Y345917D01*
X-469175Y345926D01*
X-469108Y345926D01*
X-468982Y345952D01*
X-468854Y345970D01*
X-468792Y345992D01*
X-468726Y346006D01*
X-468608Y346058D01*
X-468487Y346101D01*
X-468430Y346135D01*
X-468369Y346162D01*
X-468300Y346215D01*
X-468154Y346304D01*
X-468030Y346420D01*
X-467969Y346466D01*
X-466254Y347177D01*
X-464402Y347177D01*
X-462691Y346468D01*
X-461381Y345158D01*
X-460672Y343447D01*
X-460672Y341595D01*
X-461381Y339884D01*
X-462691Y338574D01*
X-464402Y337865D01*
X-466254Y337865D01*
X-468150Y338651D01*
X-468166Y338655D01*
X-468181Y338663D01*
X-468352Y338711D01*
X-468524Y338762D01*
X-468540Y338764D01*
X-468556Y338768D01*
X-468734Y338780D01*
X-468912Y338795D01*
X-468929Y338793D01*
X-468945Y338794D01*
X-469122Y338770D01*
X-469299Y338749D01*
X-469315Y338743D01*
X-469331Y338741D01*
X-469500Y338681D01*
X-469669Y338624D01*
X-469683Y338616D01*
X-469699Y338610D01*
X-469851Y338517D01*
X-470005Y338427D01*
X-470017Y338416D01*
X-470031Y338407D01*
X-470162Y338285D01*
X-470294Y338166D01*
X-470304Y338152D01*
X-470316Y338141D01*
X-470418Y337996D01*
X-470524Y337851D01*
X-470531Y337836D01*
X-470540Y337822D01*
X-470611Y337659D01*
X-470685Y337496D01*
X-470688Y337480D01*
X-470695Y337464D01*
X-470731Y337289D01*
X-470770Y337116D01*
X-470770Y337099D01*
X-470774Y337083D01*
X-470773Y336904D01*
X-470776Y336726D01*
X-470773Y336709D01*
X-470773Y336693D01*
X-470736Y336517D01*
X-470703Y336343D01*
X-470696Y336328D01*
X-470693Y336311D01*
X-470621Y336147D01*
X-470553Y335983D01*
X-470543Y335969D01*
X-470537Y335954D01*
X-470499Y335905D01*
X-470333Y335661D01*
X-470263Y335595D01*
X-470225Y335545D01*
X-469021Y334341D01*
X-468313Y332630D01*
X-468313Y330639D01*
X-468308Y330590D01*
X-468310Y330540D01*
X-468288Y330396D01*
X-468273Y330251D01*
X-468258Y330204D01*
X-468250Y330154D01*
X-468199Y330018D01*
X-468155Y329880D01*
X-468130Y329836D01*
X-468113Y329790D01*
X-468035Y329667D01*
X-467964Y329540D01*
X-467931Y329503D01*
X-467904Y329460D01*
X-467803Y329356D01*
X-467707Y329247D01*
X-467667Y329216D01*
X-467633Y329181D01*
X-467512Y329099D01*
X-467396Y329011D01*
X-467351Y328990D01*
X-467310Y328962D01*
X-467176Y328906D01*
X-467044Y328844D01*
X-466996Y328832D01*
X-466950Y328813D01*
X-466807Y328787D01*
X-466665Y328752D01*
X-466616Y328751D01*
X-466567Y328741D01*
X-466421Y328744D01*
X-466276Y328739D01*
X-466227Y328748D01*
X-466177Y328749D01*
X-466090Y328772D01*
X-465892Y328806D01*
X-465844Y328825D01*
X-463959Y328825D01*
X-462248Y328116D01*
X-461150Y327018D01*
X-461111Y326987D01*
X-461078Y326949D01*
X-460960Y326864D01*
X-460847Y326772D01*
X-460803Y326749D01*
X-460763Y326720D01*
X-460630Y326660D01*
X-460501Y326593D01*
X-460453Y326579D01*
X-460408Y326559D01*
X-460266Y326527D01*
X-460126Y326488D01*
X-460076Y326484D01*
X-460027Y326474D01*
X-459882Y326471D01*
X-459737Y326461D01*
X-459688Y326468D01*
X-459638Y326468D01*
X-459495Y326495D01*
X-459351Y326515D01*
X-459304Y326532D01*
X-459255Y326541D01*
X-459120Y326597D01*
X-458984Y326646D01*
X-458941Y326672D01*
X-458895Y326691D01*
X-458775Y326773D01*
X-458651Y326849D01*
X-458614Y326883D01*
X-458573Y326911D01*
X-458472Y327016D01*
X-458366Y327115D01*
X-458338Y327156D01*
X-458303Y327192D01*
X-458258Y327269D01*
X-458142Y327434D01*
X-458122Y327480D01*
X-456789Y328813D01*
X-455078Y329522D01*
X-453226Y329522D01*
X-451478Y328798D01*
X-451367Y328764D01*
X-451259Y328722D01*
X-451197Y328714D01*
X-451104Y328686D01*
X-450810Y328661D01*
X-450749Y328653D01*
X-406249Y328653D01*
X-406183Y328660D01*
X-406116Y328657D01*
X-405989Y328679D01*
X-405861Y328693D01*
X-405798Y328713D01*
X-405732Y328724D01*
X-405613Y328772D01*
X-405490Y328811D01*
X-405432Y328843D01*
X-405370Y328868D01*
X-405263Y328939D01*
X-405150Y329002D01*
X-405100Y329046D01*
X-405044Y329082D01*
X-404953Y329173D01*
X-404856Y329258D01*
X-404816Y329311D01*
X-404769Y329358D01*
X-404699Y329466D01*
X-404621Y329569D01*
X-404593Y329629D01*
X-404556Y329685D01*
X-404509Y329805D01*
X-404454Y329921D01*
X-404438Y329986D01*
X-404414Y330048D01*
X-404402Y330134D01*
X-404362Y330300D01*
X-404357Y330470D01*
X-404345Y330557D01*
X-404345Y347778D01*
X-404355Y347877D01*
X-404355Y347977D01*
X-404375Y348071D01*
X-404385Y348166D01*
X-404415Y348261D01*
X-404435Y348358D01*
X-404474Y348446D01*
X-404503Y348537D01*
X-404552Y348624D01*
X-404591Y348715D01*
X-404636Y348773D01*
X-404694Y348877D01*
X-404852Y349058D01*
X-404902Y349124D01*
X-410229Y354451D01*
X-410306Y354513D01*
X-410376Y354584D01*
X-410457Y354636D01*
X-410531Y354696D01*
X-410619Y354742D01*
X-410703Y354797D01*
X-410792Y354832D01*
X-410877Y354876D01*
X-410973Y354903D01*
X-411066Y354939D01*
X-411138Y354949D01*
X-411252Y354981D01*
X-411492Y354997D01*
X-411575Y355008D01*
X-412914Y355008D01*
X-414625Y355717D01*
X-415935Y357027D01*
X-416644Y358738D01*
X-416644Y360590D01*
X-416067Y361983D01*
X-416052Y362031D01*
X-416031Y362076D01*
X-415997Y362217D01*
X-415955Y362357D01*
X-415951Y362406D01*
X-415939Y362455D01*
X-415934Y362600D01*
X-415922Y362745D01*
X-415928Y362795D01*
X-415926Y362845D01*
X-415951Y362988D01*
X-415969Y363132D01*
X-415985Y363179D01*
X-415993Y363229D01*
X-416047Y363364D01*
X-416093Y363502D01*
X-416118Y363545D01*
X-416137Y363591D01*
X-416217Y363712D01*
X-416290Y363838D01*
X-416324Y363875D01*
X-416351Y363917D01*
X-416454Y364019D01*
X-416552Y364127D01*
X-416592Y364156D01*
X-416627Y364192D01*
X-416749Y364271D01*
X-416866Y364357D01*
X-416912Y364377D01*
X-416954Y364405D01*
X-417089Y364458D01*
X-417221Y364518D01*
X-417270Y364529D01*
X-417317Y364547D01*
X-417405Y364559D01*
X-417602Y364603D01*
X-417745Y364605D01*
X-417826Y364616D01*
X-460252Y364616D01*
X-460301Y364611D01*
X-460351Y364614D01*
X-460495Y364591D01*
X-460639Y364576D01*
X-460687Y364561D01*
X-460736Y364554D01*
X-460872Y364502D01*
X-461011Y364458D01*
X-461054Y364434D01*
X-461101Y364416D01*
X-461224Y364339D01*
X-461351Y364267D01*
X-461388Y364234D01*
X-461430Y364208D01*
X-461535Y364106D01*
X-461644Y364011D01*
X-461674Y363971D01*
X-461710Y363936D01*
X-461792Y363816D01*
X-461880Y363700D01*
X-461901Y363655D01*
X-461929Y363614D01*
X-461984Y363479D01*
X-462047Y363348D01*
X-462058Y363299D01*
X-462077Y363253D01*
X-462104Y363110D01*
X-462138Y362969D01*
X-462140Y362919D01*
X-462149Y362870D01*
X-462146Y362725D01*
X-462151Y362579D01*
X-462143Y362530D01*
X-462142Y362480D01*
X-462119Y362394D01*
X-462084Y362195D01*
X-462032Y362062D01*
X-462011Y361983D01*
X-461199Y360023D01*
X-461199Y358171D01*
X-461908Y356460D01*
X-463217Y355150D01*
X-464929Y354441D01*
X-466781Y354441D01*
X-468492Y355150D01*
X-469802Y356460D01*
X-470510Y358171D01*
X-470510Y360023D01*
X-469699Y361983D01*
X-469684Y362031D01*
X-469663Y362076D01*
X-469629Y362217D01*
X-469587Y362357D01*
X-469583Y362406D01*
X-469571Y362455D01*
X-469566Y362600D01*
X-469554Y362745D01*
X-469560Y362795D01*
X-469558Y362845D01*
X-469583Y362988D01*
X-469601Y363132D01*
X-469616Y363179D01*
X-469625Y363229D01*
X-469679Y363364D01*
X-469725Y363502D01*
X-469750Y363545D01*
X-469769Y363591D01*
X-469848Y363712D01*
X-469922Y363838D01*
X-469956Y363875D01*
X-469983Y363917D01*
X-470086Y364019D01*
X-470184Y364127D01*
X-470224Y364156D01*
X-470259Y364192D01*
X-470381Y364271D01*
X-470498Y364357D01*
X-470544Y364377D01*
X-470586Y364405D01*
X-470721Y364458D01*
X-470853Y364518D01*
X-470902Y364529D01*
X-470948Y364547D01*
X-471037Y364559D01*
X-471234Y364603D01*
X-471377Y364605D01*
X-471458Y364616D01*
X-485807Y364616D01*
X-485823Y364615D01*
X-485840Y364616D01*
X-486018Y364595D01*
X-486194Y364576D01*
X-486210Y364571D01*
X-486227Y364569D01*
X-486396Y364512D01*
X-486566Y364458D01*
X-486580Y364450D01*
X-486596Y364445D01*
X-486750Y364355D01*
X-486905Y364267D01*
X-486918Y364256D01*
X-486932Y364248D01*
X-487065Y364128D01*
X-487199Y364011D01*
X-487209Y363998D01*
X-487221Y363986D01*
X-487327Y363842D01*
X-487434Y363700D01*
X-487442Y363685D01*
X-487451Y363672D01*
X-487525Y363509D01*
X-487601Y363348D01*
X-487605Y363332D01*
X-487612Y363317D01*
X-487651Y363143D01*
X-487693Y362969D01*
X-487694Y362952D01*
X-487698Y362936D01*
X-487700Y362758D01*
X-487706Y362579D01*
X-487703Y362563D01*
X-487704Y362546D01*
X-487670Y362371D01*
X-487639Y362195D01*
X-487633Y362180D01*
X-487630Y362164D01*
X-487561Y361999D01*
X-487496Y361833D01*
X-487487Y361819D01*
X-487480Y361804D01*
X-487379Y361656D01*
X-487281Y361508D01*
X-487270Y361496D01*
X-487260Y361482D01*
X-487131Y361358D01*
X-487005Y361232D01*
X-486991Y361223D01*
X-486979Y361212D01*
X-486937Y361187D01*
X-485511Y359761D01*
X-484802Y358050D01*
X-484802Y356198D01*
X-485511Y354487D01*
X-486821Y353177D01*
X-488532Y352468D01*
X-489894Y352468D01*
X-489958Y352462D01*
X-490022Y352464D01*
X-490152Y352442D01*
X-490282Y352428D01*
X-490343Y352409D01*
X-490407Y352398D01*
X-490528Y352350D01*
X-490653Y352310D01*
X-490709Y352279D01*
X-490769Y352255D01*
X-490879Y352183D01*
X-490993Y352119D01*
X-491041Y352077D01*
X-491095Y352041D01*
X-491188Y351949D01*
X-491286Y351863D01*
X-491325Y351811D01*
X-491371Y351766D01*
X-491443Y351656D01*
X-491522Y351552D01*
X-491549Y351494D01*
X-491585Y351440D01*
X-491633Y351318D01*
X-491689Y351200D01*
X-491704Y351137D01*
X-491728Y351077D01*
X-491740Y350990D01*
X-491781Y350821D01*
X-491786Y350654D01*
X-491798Y350568D01*
X-491815Y342181D01*
X-491803Y342064D01*
X-491801Y341946D01*
X-491785Y341886D01*
X-491776Y341793D01*
X-491685Y341504D01*
X-491670Y341448D01*
X-491006Y339845D01*
X-491006Y337993D01*
X-491683Y336358D01*
X-491716Y336248D01*
X-491758Y336142D01*
X-491766Y336079D01*
X-491795Y335984D01*
X-491803Y335893D01*
X-491811Y335859D01*
X-491814Y335757D01*
X-491819Y335698D01*
X-491828Y335633D01*
X-491909Y295636D01*
X-491902Y295568D01*
X-491904Y295499D01*
X-491882Y295374D01*
X-491870Y295248D01*
X-491849Y295183D01*
X-491837Y295115D01*
X-491791Y294997D01*
X-491752Y294876D01*
X-491719Y294816D01*
X-491694Y294753D01*
X-491624Y294647D01*
X-491562Y294536D01*
X-491517Y294484D01*
X-491479Y294427D01*
X-491390Y294338D01*
X-491306Y294242D01*
X-491252Y294201D01*
X-491203Y294152D01*
X-491097Y294083D01*
X-490996Y294006D01*
X-490934Y293977D01*
X-490877Y293939D01*
X-490759Y293893D01*
X-490644Y293838D01*
X-490578Y293822D01*
X-490514Y293797D01*
X-490428Y293785D01*
X-490265Y293746D01*
X-490092Y293740D01*
X-490005Y293728D01*
X-470565Y293728D01*
X-470466Y293738D01*
X-470367Y293738D01*
X-470273Y293758D01*
X-470178Y293768D01*
X-470083Y293798D01*
X-469985Y293818D01*
X-469897Y293857D01*
X-469806Y293886D01*
X-469719Y293935D01*
X-469628Y293974D01*
X-469570Y294019D01*
X-469466Y294077D01*
X-469285Y294235D01*
X-469247Y294264D01*
X-467524Y294978D01*
X-465672Y294978D01*
X-463961Y294269D01*
X-462651Y292959D01*
X-461942Y291248D01*
X-461942Y289396D01*
X-462651Y287685D01*
X-463961Y286375D01*
X-465672Y285666D01*
X-467524Y285666D01*
X-469243Y286378D01*
X-469296Y286421D01*
X-469367Y286492D01*
X-469447Y286544D01*
X-469521Y286604D01*
X-469609Y286650D01*
X-469693Y286705D01*
X-469782Y286740D01*
X-469867Y286784D01*
X-469963Y286811D01*
X-470056Y286847D01*
X-470128Y286857D01*
X-470243Y286889D01*
X-470483Y286905D01*
X-470565Y286916D01*
X-490026Y286916D01*
X-490090Y286910D01*
X-490155Y286912D01*
X-490284Y286890D01*
X-490414Y286876D01*
X-490475Y286857D01*
X-490539Y286846D01*
X-490660Y286798D01*
X-490785Y286758D01*
X-490841Y286727D01*
X-490901Y286703D01*
X-491011Y286631D01*
X-491125Y286567D01*
X-491174Y286525D01*
X-491227Y286489D01*
X-491320Y286397D01*
X-491419Y286311D01*
X-491457Y286259D01*
X-491503Y286214D01*
X-491575Y286104D01*
X-491654Y286000D01*
X-491681Y285942D01*
X-491717Y285888D01*
X-491765Y285766D01*
X-491821Y285648D01*
X-491836Y285585D01*
X-491860Y285525D01*
X-491872Y285438D01*
X-491913Y285269D01*
X-491918Y285102D01*
X-491930Y285016D01*
X-492061Y220380D01*
X-492049Y220263D01*
X-492046Y220145D01*
X-492031Y220086D01*
X-492021Y219993D01*
X-491930Y219703D01*
X-491916Y219648D01*
X-491476Y218587D01*
X-491476Y215753D01*
X-491929Y214661D01*
X-491961Y214551D01*
X-492003Y214445D01*
X-492012Y214382D01*
X-492040Y214287D01*
X-492065Y214001D01*
X-492074Y213936D01*
X-492091Y205358D01*
X-531094Y205358D01*
X-531185Y205349D01*
X-531276Y205350D01*
X-531378Y205329D01*
X-531482Y205318D01*
X-531569Y205291D01*
X-531658Y205273D01*
X-531754Y205232D01*
X-531854Y205200D01*
X-531933Y205156D01*
X-532016Y205120D01*
X-532102Y205060D01*
X-532193Y205009D01*
X-532262Y204949D01*
X-532336Y204898D01*
X-532408Y204822D01*
X-532487Y204753D01*
X-532542Y204680D01*
X-532604Y204614D01*
X-532659Y204525D01*
X-532722Y204442D01*
X-532761Y204360D01*
X-532809Y204283D01*
X-532845Y204184D01*
X-532889Y204090D01*
X-532911Y204002D01*
X-532942Y203916D01*
X-532950Y203839D01*
X-532981Y203711D01*
X-532988Y203493D01*
X-532998Y203405D01*
X-532529Y185117D01*
X-532524Y185075D01*
X-532525Y185033D01*
X-532499Y184883D01*
X-532479Y184731D01*
X-532466Y184691D01*
X-532458Y184649D01*
X-532402Y184507D01*
X-532352Y184362D01*
X-532330Y184326D01*
X-532315Y184287D01*
X-532231Y184159D01*
X-532152Y184028D01*
X-532124Y183997D01*
X-532100Y183962D01*
X-531992Y183853D01*
X-531888Y183741D01*
X-531854Y183716D01*
X-531824Y183686D01*
X-531696Y183603D01*
X-531572Y183513D01*
X-531533Y183496D01*
X-531498Y183473D01*
X-531355Y183417D01*
X-531215Y183355D01*
X-531174Y183346D01*
X-531135Y183331D01*
X-531048Y183319D01*
X-530834Y183273D01*
X-530703Y183272D01*
X-530626Y183262D01*
X-527734Y183262D01*
X-527610Y183275D01*
G37*
%LPC*%
G36*
X-132370Y308815D02*
X-132370Y308815D01*
X-134082Y309524D01*
X-135391Y310834D01*
X-136100Y312545D01*
X-136100Y314397D01*
X-135391Y316108D01*
X-134179Y317320D01*
X-134158Y317346D01*
X-134133Y317368D01*
X-134035Y317497D01*
X-133933Y317623D01*
X-133918Y317652D01*
X-133898Y317679D01*
X-133828Y317825D01*
X-133754Y317969D01*
X-133745Y318001D01*
X-133731Y318031D01*
X-133692Y318188D01*
X-133649Y318344D01*
X-133646Y318378D01*
X-133639Y318410D01*
X-133633Y318571D01*
X-133622Y318733D01*
X-133627Y318766D01*
X-133626Y318800D01*
X-133654Y318959D01*
X-133676Y319119D01*
X-133687Y319151D01*
X-133693Y319184D01*
X-133752Y319333D01*
X-133807Y319487D01*
X-133824Y319515D01*
X-133836Y319546D01*
X-133925Y319681D01*
X-134009Y319819D01*
X-134032Y319844D01*
X-134051Y319872D01*
X-134165Y319986D01*
X-134276Y320104D01*
X-134303Y320123D01*
X-134327Y320147D01*
X-134462Y320235D01*
X-134595Y320328D01*
X-134625Y320342D01*
X-134653Y320360D01*
X-134804Y320419D01*
X-134952Y320483D01*
X-134985Y320490D01*
X-135016Y320502D01*
X-135099Y320513D01*
X-135334Y320562D01*
X-135453Y320561D01*
X-135525Y320571D01*
X-163217Y320571D01*
X-163316Y320561D01*
X-163416Y320561D01*
X-163509Y320541D01*
X-163605Y320531D01*
X-163699Y320501D01*
X-163797Y320481D01*
X-163885Y320442D01*
X-163976Y320413D01*
X-164063Y320364D01*
X-164154Y320325D01*
X-164212Y320280D01*
X-164316Y320222D01*
X-164497Y320064D01*
X-164563Y320014D01*
X-165854Y318723D01*
X-167566Y318014D01*
X-169418Y318014D01*
X-171129Y318723D01*
X-172439Y320032D01*
X-173147Y321744D01*
X-173147Y323974D01*
X-173149Y323986D01*
X-173147Y324009D01*
X-173153Y324059D01*
X-173151Y324110D01*
X-173176Y324252D01*
X-173177Y324264D01*
X-173187Y324362D01*
X-173190Y324371D01*
X-173193Y324397D01*
X-173209Y324444D01*
X-173218Y324494D01*
X-173271Y324628D01*
X-173283Y324664D01*
X-173305Y324734D01*
X-173308Y324739D01*
X-173317Y324766D01*
X-173343Y324809D01*
X-173361Y324856D01*
X-173441Y324977D01*
X-173472Y325031D01*
X-173496Y325073D01*
X-173499Y325077D01*
X-173514Y325102D01*
X-173548Y325140D01*
X-173576Y325182D01*
X-173678Y325284D01*
X-173732Y325344D01*
X-173753Y325367D01*
X-173755Y325369D01*
X-173776Y325392D01*
X-173816Y325421D01*
X-173852Y325457D01*
X-173973Y325536D01*
X-174046Y325589D01*
X-174064Y325602D01*
X-174065Y325603D01*
X-174090Y325621D01*
X-174136Y325642D01*
X-174178Y325670D01*
X-174313Y325723D01*
X-174401Y325763D01*
X-174416Y325769D01*
X-174417Y325770D01*
X-174445Y325783D01*
X-174494Y325794D01*
X-174541Y325812D01*
X-174630Y325824D01*
X-174777Y325857D01*
X-174795Y325861D01*
X-174796Y325861D01*
X-174826Y325868D01*
X-174969Y325870D01*
X-175051Y325881D01*
X-177202Y325881D01*
X-178913Y326590D01*
X-180223Y327900D01*
X-180932Y329611D01*
X-180932Y331463D01*
X-180223Y333174D01*
X-178913Y334484D01*
X-177202Y335193D01*
X-175350Y335193D01*
X-173639Y334484D01*
X-172329Y333174D01*
X-171620Y331463D01*
X-171620Y329232D01*
X-171619Y329220D01*
X-171621Y329197D01*
X-171615Y329147D01*
X-171617Y329097D01*
X-171592Y328954D01*
X-171590Y328942D01*
X-171580Y328844D01*
X-171578Y328836D01*
X-171575Y328810D01*
X-171559Y328762D01*
X-171550Y328713D01*
X-171496Y328578D01*
X-171484Y328542D01*
X-171462Y328473D01*
X-171459Y328467D01*
X-171450Y328441D01*
X-171425Y328397D01*
X-171406Y328351D01*
X-171327Y328230D01*
X-171295Y328176D01*
X-171271Y328133D01*
X-171268Y328130D01*
X-171253Y328104D01*
X-171220Y328067D01*
X-171192Y328025D01*
X-171089Y327923D01*
X-171035Y327863D01*
X-171015Y327840D01*
X-171013Y327838D01*
X-170992Y327815D01*
X-170951Y327785D01*
X-170916Y327750D01*
X-170794Y327671D01*
X-170721Y327617D01*
X-170704Y327604D01*
X-170702Y327603D01*
X-170677Y327585D01*
X-170632Y327564D01*
X-170589Y327537D01*
X-170454Y327484D01*
X-170366Y327444D01*
X-170352Y327437D01*
X-170350Y327437D01*
X-170322Y327424D01*
X-170273Y327413D01*
X-170226Y327395D01*
X-170138Y327383D01*
X-169990Y327350D01*
X-169973Y327345D01*
X-169971Y327345D01*
X-169942Y327339D01*
X-169798Y327336D01*
X-169717Y327325D01*
X-167566Y327325D01*
X-165854Y326617D01*
X-164892Y325654D01*
X-164815Y325592D01*
X-164744Y325521D01*
X-164664Y325469D01*
X-164590Y325409D01*
X-164502Y325363D01*
X-164418Y325308D01*
X-164329Y325273D01*
X-164244Y325229D01*
X-164148Y325202D01*
X-164055Y325166D01*
X-163983Y325156D01*
X-163868Y325124D01*
X-163628Y325108D01*
X-163546Y325097D01*
X-122277Y325097D01*
X-122211Y325104D01*
X-122144Y325101D01*
X-122017Y325123D01*
X-121889Y325137D01*
X-121826Y325157D01*
X-121760Y325168D01*
X-121641Y325216D01*
X-121518Y325255D01*
X-121460Y325287D01*
X-121398Y325312D01*
X-121291Y325383D01*
X-121178Y325446D01*
X-121128Y325490D01*
X-121072Y325526D01*
X-120981Y325617D01*
X-120884Y325702D01*
X-120844Y325755D01*
X-120797Y325802D01*
X-120727Y325910D01*
X-120649Y326013D01*
X-120621Y326073D01*
X-120584Y326129D01*
X-120537Y326249D01*
X-120482Y326365D01*
X-120466Y326430D01*
X-120442Y326492D01*
X-120430Y326578D01*
X-120390Y326744D01*
X-120385Y326914D01*
X-120373Y327001D01*
X-120373Y330557D01*
X-120383Y330656D01*
X-120383Y330755D01*
X-120403Y330849D01*
X-120413Y330945D01*
X-120443Y331039D01*
X-120463Y331137D01*
X-120502Y331225D01*
X-120531Y331316D01*
X-120579Y331403D01*
X-120619Y331494D01*
X-120663Y331552D01*
X-120722Y331656D01*
X-120880Y331837D01*
X-120930Y331903D01*
X-121071Y332044D01*
X-121116Y332080D01*
X-121155Y332123D01*
X-121267Y332203D01*
X-121373Y332290D01*
X-121425Y332317D01*
X-121472Y332351D01*
X-121597Y332406D01*
X-121719Y332469D01*
X-121775Y332485D01*
X-121829Y332508D01*
X-121963Y332537D01*
X-122095Y332574D01*
X-122153Y332578D01*
X-122210Y332590D01*
X-122347Y332591D01*
X-122483Y332600D01*
X-122541Y332592D01*
X-122600Y332593D01*
X-122734Y332566D01*
X-122870Y332547D01*
X-122924Y332528D01*
X-122982Y332516D01*
X-123108Y332462D01*
X-123237Y332416D01*
X-123287Y332386D01*
X-123340Y332363D01*
X-123453Y332285D01*
X-123570Y332213D01*
X-123612Y332174D01*
X-123660Y332140D01*
X-123719Y332073D01*
X-123854Y331947D01*
X-123944Y331819D01*
X-124001Y331755D01*
X-124011Y331739D01*
X-124729Y331021D01*
X-125574Y330457D01*
X-126112Y330234D01*
X-126112Y335026D01*
X-126112Y339818D01*
X-125574Y339595D01*
X-124617Y338956D01*
X-124616Y338955D01*
X-124516Y338874D01*
X-124457Y338843D01*
X-124402Y338804D01*
X-124284Y338753D01*
X-124170Y338694D01*
X-124106Y338676D01*
X-124044Y338650D01*
X-123919Y338624D01*
X-123795Y338589D01*
X-123728Y338585D01*
X-123663Y338571D01*
X-123534Y338571D01*
X-123406Y338563D01*
X-123340Y338572D01*
X-123273Y338572D01*
X-123147Y338598D01*
X-123020Y338616D01*
X-122957Y338638D01*
X-122891Y338652D01*
X-122773Y338704D01*
X-122652Y338747D01*
X-122595Y338781D01*
X-122534Y338808D01*
X-122464Y338861D01*
X-122320Y338949D01*
X-122195Y339066D01*
X-122125Y339119D01*
X-121189Y340056D01*
X-119477Y340764D01*
X-117625Y340764D01*
X-115914Y340056D01*
X-114604Y338746D01*
X-113896Y337035D01*
X-113896Y335183D01*
X-114604Y333471D01*
X-115290Y332786D01*
X-115352Y332709D01*
X-115423Y332638D01*
X-115475Y332558D01*
X-115535Y332484D01*
X-115581Y332396D01*
X-115636Y332312D01*
X-115671Y332223D01*
X-115715Y332138D01*
X-115742Y332042D01*
X-115778Y331949D01*
X-115788Y331877D01*
X-115820Y331762D01*
X-115836Y331522D01*
X-115847Y331440D01*
X-115847Y321897D01*
X-117173Y320571D01*
X-127363Y320571D01*
X-127396Y320568D01*
X-127429Y320570D01*
X-127590Y320548D01*
X-127751Y320531D01*
X-127782Y320521D01*
X-127815Y320517D01*
X-127968Y320462D01*
X-128122Y320413D01*
X-128151Y320397D01*
X-128183Y320386D01*
X-128321Y320301D01*
X-128462Y320222D01*
X-128487Y320200D01*
X-128515Y320183D01*
X-128634Y320072D01*
X-128756Y319966D01*
X-128776Y319939D01*
X-128800Y319917D01*
X-128893Y319784D01*
X-128991Y319655D01*
X-129005Y319625D01*
X-129024Y319598D01*
X-129089Y319449D01*
X-129158Y319303D01*
X-129166Y319271D01*
X-129179Y319240D01*
X-129212Y319081D01*
X-129250Y318924D01*
X-129251Y318891D01*
X-129258Y318858D01*
X-129257Y318696D01*
X-129263Y318534D01*
X-129257Y318502D01*
X-129257Y318468D01*
X-129224Y318310D01*
X-129196Y318150D01*
X-129184Y318120D01*
X-129177Y318087D01*
X-129112Y317938D01*
X-129052Y317788D01*
X-129034Y317760D01*
X-129021Y317730D01*
X-128970Y317663D01*
X-128838Y317463D01*
X-128754Y317379D01*
X-128710Y317320D01*
X-127497Y316108D01*
X-126789Y314397D01*
X-126789Y312545D01*
X-127497Y310834D01*
X-128807Y309524D01*
X-130518Y308815D01*
X-132370Y308815D01*
G37*
%LPD*%
%LPC*%
G36*
X-262256Y218948D02*
X-262256Y218948D01*
X-262262Y219014D01*
X-262260Y219080D01*
X-262282Y219207D01*
X-262295Y219335D01*
X-262316Y219399D01*
X-262327Y219464D01*
X-262374Y219584D01*
X-262413Y219707D01*
X-262446Y219765D01*
X-262471Y219827D01*
X-262541Y219934D01*
X-262605Y220047D01*
X-262648Y220097D01*
X-262685Y220152D01*
X-262776Y220243D01*
X-262861Y220340D01*
X-262862Y220341D01*
X-262914Y220381D01*
X-262961Y220427D01*
X-262962Y220428D01*
X-263070Y220498D01*
X-263172Y220576D01*
X-263232Y220604D01*
X-263288Y220641D01*
X-263408Y220688D01*
X-263524Y220743D01*
X-263589Y220759D01*
X-263651Y220783D01*
X-263738Y220795D01*
X-263903Y220835D01*
X-264073Y220841D01*
X-264160Y220852D01*
X-268952Y220852D01*
X-268729Y221390D01*
X-268165Y222235D01*
X-267447Y222953D01*
X-267259Y223078D01*
X-267202Y223125D01*
X-267139Y223166D01*
X-267052Y223250D01*
X-266959Y223326D01*
X-266912Y223385D01*
X-266859Y223437D01*
X-266791Y223537D01*
X-266716Y223631D01*
X-266682Y223698D01*
X-266640Y223759D01*
X-266594Y223871D01*
X-266540Y223979D01*
X-266520Y224051D01*
X-266492Y224120D01*
X-266469Y224238D01*
X-266438Y224355D01*
X-266433Y224430D01*
X-266420Y224503D01*
X-266422Y224624D01*
X-266415Y224744D01*
X-266426Y224818D01*
X-266427Y224893D01*
X-266449Y224975D01*
X-266472Y225130D01*
X-266535Y225304D01*
X-266558Y225390D01*
X-266772Y225907D01*
X-266772Y227759D01*
X-266064Y229471D01*
X-264754Y230780D01*
X-263043Y231489D01*
X-261191Y231489D01*
X-259479Y230780D01*
X-258170Y229471D01*
X-258012Y229089D01*
X-257996Y229060D01*
X-257985Y229028D01*
X-257904Y228889D01*
X-257826Y228746D01*
X-257805Y228721D01*
X-257788Y228692D01*
X-257680Y228572D01*
X-257575Y228448D01*
X-257549Y228428D01*
X-257527Y228403D01*
X-257396Y228308D01*
X-257269Y228208D01*
X-257239Y228193D01*
X-257212Y228173D01*
X-257065Y228106D01*
X-256919Y228034D01*
X-256887Y228026D01*
X-256857Y228012D01*
X-256699Y227977D01*
X-256542Y227936D01*
X-256509Y227934D01*
X-256476Y227927D01*
X-256315Y227924D01*
X-256153Y227916D01*
X-256120Y227921D01*
X-256087Y227921D01*
X-255928Y227951D01*
X-255768Y227976D01*
X-255737Y227988D01*
X-255704Y227994D01*
X-255555Y228057D01*
X-255403Y228114D01*
X-255375Y228132D01*
X-255344Y228144D01*
X-255211Y228235D01*
X-255074Y228322D01*
X-255050Y228345D01*
X-255022Y228364D01*
X-254910Y228481D01*
X-254794Y228594D01*
X-254775Y228621D01*
X-254752Y228645D01*
X-254710Y228717D01*
X-254575Y228916D01*
X-254530Y229026D01*
X-254493Y229089D01*
X-254467Y229151D01*
X-253158Y230461D01*
X-251447Y231169D01*
X-249595Y231169D01*
X-247883Y230461D01*
X-246414Y228991D01*
X-246362Y228949D01*
X-246317Y228901D01*
X-246211Y228826D01*
X-246111Y228745D01*
X-246052Y228715D01*
X-245998Y228676D01*
X-245880Y228625D01*
X-245765Y228566D01*
X-245701Y228548D01*
X-245640Y228522D01*
X-245514Y228496D01*
X-245390Y228461D01*
X-245324Y228456D01*
X-245258Y228443D01*
X-245129Y228443D01*
X-245001Y228434D01*
X-244935Y228444D01*
X-244869Y228444D01*
X-244742Y228470D01*
X-244615Y228488D01*
X-244552Y228510D01*
X-244487Y228524D01*
X-244369Y228575D01*
X-244248Y228619D01*
X-244191Y228653D01*
X-244130Y228680D01*
X-244060Y228733D01*
X-243915Y228822D01*
X-243790Y228938D01*
X-243721Y228991D01*
X-242324Y230388D01*
X-240613Y231097D01*
X-238761Y231097D01*
X-237049Y230388D01*
X-236823Y230162D01*
X-236772Y230120D01*
X-236726Y230071D01*
X-236621Y229997D01*
X-236521Y229916D01*
X-236462Y229885D01*
X-236408Y229847D01*
X-236289Y229796D01*
X-236175Y229737D01*
X-236111Y229719D01*
X-236050Y229692D01*
X-235924Y229666D01*
X-235799Y229632D01*
X-235733Y229627D01*
X-235668Y229614D01*
X-235539Y229614D01*
X-235411Y229605D01*
X-235345Y229614D01*
X-235278Y229615D01*
X-235152Y229641D01*
X-235024Y229659D01*
X-234962Y229681D01*
X-234897Y229695D01*
X-234779Y229746D01*
X-234657Y229790D01*
X-234600Y229824D01*
X-234540Y229851D01*
X-234470Y229904D01*
X-234333Y229987D01*
X-232574Y230716D01*
X-230722Y230716D01*
X-229011Y230007D01*
X-227701Y228697D01*
X-226992Y226986D01*
X-226992Y225134D01*
X-227701Y223423D01*
X-229011Y222113D01*
X-230722Y221404D01*
X-232574Y221404D01*
X-234285Y222113D01*
X-234511Y222339D01*
X-234563Y222381D01*
X-234608Y222430D01*
X-234714Y222504D01*
X-234814Y222585D01*
X-234873Y222616D01*
X-234927Y222654D01*
X-235046Y222705D01*
X-235160Y222764D01*
X-235224Y222782D01*
X-235285Y222809D01*
X-235411Y222835D01*
X-235535Y222869D01*
X-235602Y222874D01*
X-235667Y222887D01*
X-235796Y222887D01*
X-235924Y222896D01*
X-235990Y222887D01*
X-236057Y222886D01*
X-236183Y222860D01*
X-236310Y222842D01*
X-236373Y222820D01*
X-236438Y222806D01*
X-236556Y222755D01*
X-236677Y222711D01*
X-236734Y222677D01*
X-236795Y222650D01*
X-236865Y222597D01*
X-237001Y222514D01*
X-239025Y221676D01*
X-239098Y221636D01*
X-239175Y221606D01*
X-239269Y221544D01*
X-239368Y221491D01*
X-239431Y221437D01*
X-239501Y221391D01*
X-239580Y221312D01*
X-239666Y221239D01*
X-239717Y221174D01*
X-239776Y221115D01*
X-239837Y221021D01*
X-239906Y220933D01*
X-239943Y220858D01*
X-239989Y220789D01*
X-240030Y220684D01*
X-240080Y220584D01*
X-240101Y220503D01*
X-240131Y220426D01*
X-240142Y220345D01*
X-240178Y220206D01*
X-240188Y220005D01*
X-240200Y219917D01*
X-240200Y218022D01*
X-240909Y216311D01*
X-242219Y215001D01*
X-243930Y214292D01*
X-245782Y214292D01*
X-247493Y215001D01*
X-248863Y216371D01*
X-248897Y216434D01*
X-248929Y216472D01*
X-248955Y216515D01*
X-249055Y216621D01*
X-249148Y216732D01*
X-249188Y216763D01*
X-249222Y216799D01*
X-249341Y216883D01*
X-249455Y216973D01*
X-249500Y216995D01*
X-249541Y217024D01*
X-249674Y217081D01*
X-249804Y217146D01*
X-249853Y217159D01*
X-249898Y217178D01*
X-250041Y217208D01*
X-250181Y217244D01*
X-250231Y217247D01*
X-250280Y217257D01*
X-250425Y217257D01*
X-250571Y217264D01*
X-250620Y217256D01*
X-250670Y217256D01*
X-250813Y217226D01*
X-250956Y217204D01*
X-251002Y217186D01*
X-251051Y217176D01*
X-251185Y217118D01*
X-251321Y217067D01*
X-251363Y217040D01*
X-251409Y217020D01*
X-251479Y216966D01*
X-251650Y216858D01*
X-251753Y216758D01*
X-251818Y216709D01*
X-253206Y215321D01*
X-254917Y214612D01*
X-256770Y214612D01*
X-258730Y215424D01*
X-258810Y215448D01*
X-258886Y215481D01*
X-258996Y215503D01*
X-259104Y215535D01*
X-259187Y215542D01*
X-259268Y215559D01*
X-259380Y215559D01*
X-259492Y215569D01*
X-259575Y215559D01*
X-259658Y215558D01*
X-259768Y215535D01*
X-259879Y215522D01*
X-259958Y215495D01*
X-260039Y215478D01*
X-260142Y215433D01*
X-260249Y215397D01*
X-260320Y215356D01*
X-260396Y215322D01*
X-260461Y215273D01*
X-260585Y215200D01*
X-260735Y215065D01*
X-260806Y215011D01*
X-260873Y214943D01*
X-261718Y214379D01*
X-262256Y214156D01*
X-262256Y218948D01*
G37*
%LPD*%
%LPC*%
G36*
X-400722Y213994D02*
X-400722Y213994D01*
X-402433Y214703D01*
X-402563Y214833D01*
X-402615Y214875D01*
X-402661Y214924D01*
X-402766Y214998D01*
X-402865Y215079D01*
X-402925Y215110D01*
X-402980Y215148D01*
X-403097Y215199D01*
X-403211Y215258D01*
X-403276Y215276D01*
X-403338Y215303D01*
X-403463Y215328D01*
X-403587Y215363D01*
X-403654Y215368D01*
X-403720Y215381D01*
X-403848Y215381D01*
X-403976Y215389D01*
X-404042Y215380D01*
X-404109Y215380D01*
X-404235Y215354D01*
X-404362Y215336D01*
X-404425Y215313D01*
X-404491Y215300D01*
X-404608Y215248D01*
X-404729Y215205D01*
X-404786Y215170D01*
X-404848Y215143D01*
X-404917Y215090D01*
X-404980Y215052D01*
X-404989Y215047D01*
X-405008Y215035D01*
X-405062Y215002D01*
X-405074Y214991D01*
X-405990Y214379D01*
X-406528Y214156D01*
X-406528Y218948D01*
X-406528Y223865D01*
X-406516Y223864D01*
X-406475Y223869D01*
X-406434Y223867D01*
X-406282Y223891D01*
X-406129Y223908D01*
X-406090Y223921D01*
X-406048Y223927D01*
X-405905Y223981D01*
X-405759Y224029D01*
X-405722Y224050D01*
X-405684Y224064D01*
X-405554Y224147D01*
X-405421Y224223D01*
X-405390Y224251D01*
X-405354Y224273D01*
X-405244Y224380D01*
X-405129Y224482D01*
X-405104Y224515D01*
X-405074Y224544D01*
X-404988Y224671D01*
X-404897Y224795D01*
X-404879Y224832D01*
X-404856Y224867D01*
X-404797Y225009D01*
X-404733Y225148D01*
X-404723Y225189D01*
X-404707Y225227D01*
X-404679Y225379D01*
X-404644Y225528D01*
X-404643Y225569D01*
X-404635Y225610D01*
X-404638Y225764D01*
X-404635Y225918D01*
X-404642Y225958D01*
X-404643Y226000D01*
X-404665Y226085D01*
X-404705Y226301D01*
X-404754Y226422D01*
X-404774Y226497D01*
X-405024Y227101D01*
X-405024Y228953D01*
X-404315Y230664D01*
X-403005Y231974D01*
X-401294Y232683D01*
X-399442Y232683D01*
X-397731Y231974D01*
X-396421Y230664D01*
X-395712Y228953D01*
X-395712Y227101D01*
X-396409Y225420D01*
X-396418Y225388D01*
X-396433Y225358D01*
X-396474Y225201D01*
X-396520Y225047D01*
X-396523Y225013D01*
X-396531Y224981D01*
X-396539Y224819D01*
X-396553Y224658D01*
X-396549Y224625D01*
X-396551Y224592D01*
X-396526Y224432D01*
X-396507Y224271D01*
X-396496Y224240D01*
X-396491Y224207D01*
X-396434Y224055D01*
X-396382Y223902D01*
X-396365Y223873D01*
X-396354Y223842D01*
X-396267Y223705D01*
X-396185Y223565D01*
X-396163Y223541D01*
X-396145Y223513D01*
X-396032Y223396D01*
X-395924Y223276D01*
X-395897Y223257D01*
X-395874Y223233D01*
X-395739Y223142D01*
X-395609Y223047D01*
X-395579Y223033D01*
X-395551Y223014D01*
X-395401Y222952D01*
X-395254Y222886D01*
X-395221Y222878D01*
X-395190Y222866D01*
X-395031Y222836D01*
X-394873Y222800D01*
X-394840Y222800D01*
X-394807Y222794D01*
X-394645Y222797D01*
X-394484Y222794D01*
X-394451Y222801D01*
X-394418Y222801D01*
X-394337Y222822D01*
X-394101Y222868D01*
X-393991Y222913D01*
X-393920Y222932D01*
X-392912Y223350D01*
X-392556Y223350D01*
X-392506Y223355D01*
X-392456Y223352D01*
X-392312Y223375D01*
X-392168Y223390D01*
X-392120Y223405D01*
X-392071Y223412D01*
X-391935Y223464D01*
X-391796Y223508D01*
X-391753Y223532D01*
X-391706Y223550D01*
X-391583Y223628D01*
X-391457Y223699D01*
X-391419Y223732D01*
X-391377Y223758D01*
X-391273Y223860D01*
X-391163Y223955D01*
X-391133Y223995D01*
X-391097Y224030D01*
X-391015Y224150D01*
X-390928Y224266D01*
X-390906Y224311D01*
X-390878Y224352D01*
X-390823Y224487D01*
X-390761Y224618D01*
X-390749Y224667D01*
X-390730Y224713D01*
X-390703Y224856D01*
X-390669Y224997D01*
X-390667Y225047D01*
X-390658Y225096D01*
X-390661Y225241D01*
X-390656Y225387D01*
X-390664Y225436D01*
X-390665Y225486D01*
X-390688Y225572D01*
X-390723Y225771D01*
X-390775Y225904D01*
X-390796Y225983D01*
X-390971Y226404D01*
X-390971Y228256D01*
X-390262Y229967D01*
X-388952Y231277D01*
X-387241Y231986D01*
X-385389Y231986D01*
X-383678Y231277D01*
X-382368Y229967D01*
X-381654Y228243D01*
X-381637Y228108D01*
X-381619Y227932D01*
X-381614Y227916D01*
X-381612Y227899D01*
X-381555Y227729D01*
X-381501Y227560D01*
X-381493Y227546D01*
X-381488Y227530D01*
X-381398Y227376D01*
X-381310Y227220D01*
X-381299Y227208D01*
X-381291Y227193D01*
X-381171Y227061D01*
X-381054Y226927D01*
X-381041Y226917D01*
X-381029Y226904D01*
X-380885Y226799D01*
X-380743Y226691D01*
X-380728Y226684D01*
X-380715Y226675D01*
X-380552Y226601D01*
X-380391Y226524D01*
X-380375Y226520D01*
X-380359Y226514D01*
X-380186Y226475D01*
X-380012Y226433D01*
X-379995Y226432D01*
X-379979Y226428D01*
X-379801Y226426D01*
X-379622Y226420D01*
X-379606Y226423D01*
X-379589Y226422D01*
X-379414Y226456D01*
X-379238Y226487D01*
X-379223Y226493D01*
X-379207Y226496D01*
X-379041Y226565D01*
X-378876Y226630D01*
X-378862Y226639D01*
X-378847Y226646D01*
X-378699Y226747D01*
X-378551Y226844D01*
X-378539Y226856D01*
X-378525Y226866D01*
X-378401Y226994D01*
X-378275Y227121D01*
X-378266Y227135D01*
X-378255Y227147D01*
X-378224Y227200D01*
X-378062Y227447D01*
X-378027Y227537D01*
X-377996Y227591D01*
X-377327Y229205D01*
X-376017Y230515D01*
X-374306Y231224D01*
X-372454Y231224D01*
X-370743Y230515D01*
X-369433Y229205D01*
X-368724Y227494D01*
X-368724Y225642D01*
X-369433Y223931D01*
X-370743Y222621D01*
X-372454Y221912D01*
X-374306Y221912D01*
X-374783Y222110D01*
X-374831Y222124D01*
X-374876Y222146D01*
X-375017Y222180D01*
X-375157Y222221D01*
X-375206Y222226D01*
X-375255Y222237D01*
X-375400Y222242D01*
X-375545Y222255D01*
X-375595Y222249D01*
X-375645Y222250D01*
X-375787Y222225D01*
X-375932Y222208D01*
X-375980Y222192D01*
X-376029Y222183D01*
X-376163Y222130D01*
X-376301Y222084D01*
X-376345Y222058D01*
X-376391Y222040D01*
X-376512Y221960D01*
X-376638Y221886D01*
X-376675Y221853D01*
X-376716Y221826D01*
X-376819Y221722D01*
X-376927Y221625D01*
X-376956Y221585D01*
X-376992Y221549D01*
X-377071Y221428D01*
X-377157Y221310D01*
X-377177Y221265D01*
X-377205Y221223D01*
X-377258Y221088D01*
X-377318Y220955D01*
X-377329Y220906D01*
X-377347Y220860D01*
X-377359Y220772D01*
X-377403Y220575D01*
X-377405Y220432D01*
X-377416Y220351D01*
X-377416Y219602D01*
X-378125Y217891D01*
X-379435Y216581D01*
X-381146Y215872D01*
X-382998Y215872D01*
X-384709Y216581D01*
X-384895Y216767D01*
X-384934Y216798D01*
X-384967Y216835D01*
X-385085Y216921D01*
X-385197Y217013D01*
X-385242Y217036D01*
X-385282Y217065D01*
X-385414Y217125D01*
X-385544Y217192D01*
X-385592Y217205D01*
X-385637Y217226D01*
X-385779Y217258D01*
X-385919Y217297D01*
X-385969Y217300D01*
X-386017Y217311D01*
X-386163Y217314D01*
X-386308Y217323D01*
X-386357Y217317D01*
X-386407Y217317D01*
X-386550Y217290D01*
X-386694Y217270D01*
X-386741Y217253D01*
X-386790Y217244D01*
X-386924Y217188D01*
X-387061Y217139D01*
X-387104Y217113D01*
X-387150Y217094D01*
X-387270Y217012D01*
X-387394Y216936D01*
X-387430Y216902D01*
X-387472Y216874D01*
X-387572Y216769D01*
X-387679Y216670D01*
X-387707Y216629D01*
X-387742Y216593D01*
X-387787Y216516D01*
X-387903Y216351D01*
X-387960Y216220D01*
X-388001Y216149D01*
X-388039Y216057D01*
X-389349Y214747D01*
X-391060Y214038D01*
X-392912Y214038D01*
X-394650Y214758D01*
X-394725Y214811D01*
X-394825Y214892D01*
X-394884Y214923D01*
X-394938Y214961D01*
X-395057Y215012D01*
X-395171Y215071D01*
X-395235Y215089D01*
X-395296Y215116D01*
X-395422Y215142D01*
X-395546Y215176D01*
X-395613Y215181D01*
X-395678Y215194D01*
X-395807Y215194D01*
X-395935Y215203D01*
X-396001Y215194D01*
X-396068Y215194D01*
X-396194Y215167D01*
X-396321Y215149D01*
X-396384Y215127D01*
X-396449Y215113D01*
X-396567Y215062D01*
X-396689Y215019D01*
X-396745Y214984D01*
X-396806Y214957D01*
X-396876Y214904D01*
X-397021Y214816D01*
X-397128Y214716D01*
X-398870Y213994D01*
X-400722Y213994D01*
G37*
%LPD*%
%LPC*%
G36*
X-261276Y311355D02*
X-261276Y311355D01*
X-262987Y312064D01*
X-264297Y313374D01*
X-265006Y315085D01*
X-265006Y316937D01*
X-264801Y317430D01*
X-264787Y317478D01*
X-264766Y317523D01*
X-264731Y317665D01*
X-264690Y317804D01*
X-264686Y317853D01*
X-264674Y317902D01*
X-264669Y318047D01*
X-264657Y318192D01*
X-264663Y318242D01*
X-264661Y318292D01*
X-264686Y318435D01*
X-264703Y318579D01*
X-264719Y318626D01*
X-264728Y318676D01*
X-264781Y318811D01*
X-264828Y318949D01*
X-264853Y318992D01*
X-264871Y319038D01*
X-264951Y319159D01*
X-265025Y319285D01*
X-265058Y319322D01*
X-265086Y319364D01*
X-265189Y319466D01*
X-265286Y319574D01*
X-265327Y319603D01*
X-265362Y319639D01*
X-265484Y319718D01*
X-265601Y319804D01*
X-265647Y319824D01*
X-265688Y319852D01*
X-265824Y319905D01*
X-265956Y319965D01*
X-266005Y319976D01*
X-266051Y319994D01*
X-266140Y320006D01*
X-266337Y320050D01*
X-266480Y320052D01*
X-266561Y320063D01*
X-312987Y320063D01*
X-313022Y320077D01*
X-313094Y320087D01*
X-313208Y320119D01*
X-313448Y320135D01*
X-313531Y320146D01*
X-314627Y320146D01*
X-314645Y320144D01*
X-314663Y320146D01*
X-314838Y320125D01*
X-315015Y320106D01*
X-315032Y320101D01*
X-315050Y320099D01*
X-315218Y320042D01*
X-315387Y319988D01*
X-315402Y319980D01*
X-315419Y319974D01*
X-315572Y319884D01*
X-315726Y319797D01*
X-315740Y319785D01*
X-315755Y319776D01*
X-315886Y319657D01*
X-316020Y319541D01*
X-316026Y319533D01*
X-316034Y319576D01*
X-316065Y319751D01*
X-316071Y319767D01*
X-316075Y319785D01*
X-316143Y319949D01*
X-316208Y320113D01*
X-316218Y320128D01*
X-316225Y320144D01*
X-316325Y320291D01*
X-316423Y320438D01*
X-316435Y320451D01*
X-316446Y320466D01*
X-316555Y320571D01*
X-316567Y320587D01*
X-318145Y322165D01*
X-318854Y323876D01*
X-318854Y325728D01*
X-318145Y327439D01*
X-316835Y328749D01*
X-315124Y329458D01*
X-313272Y329458D01*
X-311561Y328749D01*
X-310251Y327439D01*
X-309557Y325764D01*
X-309518Y325691D01*
X-309487Y325614D01*
X-309426Y325520D01*
X-309372Y325421D01*
X-309318Y325358D01*
X-309273Y325288D01*
X-309193Y325209D01*
X-309121Y325123D01*
X-309055Y325072D01*
X-308997Y325013D01*
X-308903Y324952D01*
X-308814Y324883D01*
X-308740Y324846D01*
X-308670Y324800D01*
X-308566Y324759D01*
X-308465Y324709D01*
X-308385Y324688D01*
X-308307Y324658D01*
X-308226Y324647D01*
X-308088Y324611D01*
X-307886Y324601D01*
X-307798Y324589D01*
X-265533Y324589D01*
X-265467Y324596D01*
X-265400Y324593D01*
X-265273Y324615D01*
X-265145Y324629D01*
X-265082Y324649D01*
X-265016Y324660D01*
X-264897Y324708D01*
X-264774Y324747D01*
X-264716Y324779D01*
X-264654Y324804D01*
X-264547Y324875D01*
X-264434Y324938D01*
X-264384Y324982D01*
X-264328Y325018D01*
X-264237Y325109D01*
X-264140Y325194D01*
X-264100Y325247D01*
X-264053Y325294D01*
X-263983Y325402D01*
X-263905Y325505D01*
X-263877Y325565D01*
X-263840Y325621D01*
X-263793Y325741D01*
X-263738Y325857D01*
X-263722Y325922D01*
X-263698Y325984D01*
X-263686Y326070D01*
X-263646Y326236D01*
X-263641Y326406D01*
X-263629Y326493D01*
X-263629Y327884D01*
X-263639Y327983D01*
X-263639Y328082D01*
X-263659Y328176D01*
X-263669Y328271D01*
X-263699Y328366D01*
X-263719Y328464D01*
X-263758Y328552D01*
X-263787Y328643D01*
X-263836Y328730D01*
X-263875Y328821D01*
X-263920Y328879D01*
X-263978Y328983D01*
X-264136Y329164D01*
X-264186Y329230D01*
X-265313Y330357D01*
X-266022Y332068D01*
X-266022Y333920D01*
X-265313Y335631D01*
X-264003Y336941D01*
X-262292Y337650D01*
X-260440Y337650D01*
X-258729Y336941D01*
X-257419Y335631D01*
X-256710Y333920D01*
X-256710Y332068D01*
X-257419Y330357D01*
X-258546Y329230D01*
X-258608Y329153D01*
X-258679Y329082D01*
X-258731Y329002D01*
X-258791Y328928D01*
X-258837Y328840D01*
X-258892Y328756D01*
X-258927Y328667D01*
X-258971Y328582D01*
X-258998Y328486D01*
X-259034Y328393D01*
X-259044Y328321D01*
X-259076Y328206D01*
X-259092Y327966D01*
X-259103Y327884D01*
X-259103Y321806D01*
X-259095Y321724D01*
X-259096Y321641D01*
X-259075Y321530D01*
X-259063Y321419D01*
X-259038Y321339D01*
X-259023Y321258D01*
X-258979Y321154D01*
X-258945Y321047D01*
X-258905Y320975D01*
X-258873Y320898D01*
X-258809Y320805D01*
X-258754Y320707D01*
X-258699Y320645D01*
X-258653Y320576D01*
X-258572Y320498D01*
X-258498Y320414D01*
X-258432Y320364D01*
X-258372Y320306D01*
X-258301Y320265D01*
X-258187Y320178D01*
X-258005Y320092D01*
X-257928Y320047D01*
X-257713Y319958D01*
X-256403Y318648D01*
X-255694Y316937D01*
X-255694Y315085D01*
X-256403Y313374D01*
X-257713Y312064D01*
X-259424Y311355D01*
X-261276Y311355D01*
G37*
%LPD*%
%LPC*%
G36*
X-276753Y202932D02*
X-276753Y202932D01*
X-279372Y204017D01*
X-281377Y206022D01*
X-282462Y208641D01*
X-282462Y211475D01*
X-281736Y213227D01*
X-281722Y213275D01*
X-281700Y213320D01*
X-281666Y213461D01*
X-281625Y213601D01*
X-281620Y213650D01*
X-281609Y213699D01*
X-281604Y213844D01*
X-281591Y213989D01*
X-281597Y214039D01*
X-281596Y214089D01*
X-281621Y214232D01*
X-281638Y214376D01*
X-281654Y214423D01*
X-281663Y214473D01*
X-281716Y214608D01*
X-281762Y214746D01*
X-281788Y214789D01*
X-281806Y214835D01*
X-281886Y214956D01*
X-281960Y215082D01*
X-281993Y215119D01*
X-282020Y215161D01*
X-282124Y215263D01*
X-282221Y215371D01*
X-282261Y215400D01*
X-282297Y215436D01*
X-282418Y215515D01*
X-282536Y215601D01*
X-282581Y215621D01*
X-282623Y215649D01*
X-282758Y215702D01*
X-282891Y215762D01*
X-282940Y215773D01*
X-282986Y215791D01*
X-283002Y215793D01*
X-284368Y216359D01*
X-284447Y216383D01*
X-284523Y216415D01*
X-284633Y216438D01*
X-284741Y216470D01*
X-284824Y216477D01*
X-284905Y216494D01*
X-285018Y216494D01*
X-285129Y216503D01*
X-285212Y216494D01*
X-285295Y216493D01*
X-285405Y216470D01*
X-285516Y216457D01*
X-285595Y216430D01*
X-285676Y216413D01*
X-285779Y216368D01*
X-285886Y216332D01*
X-285957Y216290D01*
X-286034Y216257D01*
X-286099Y216208D01*
X-286222Y216135D01*
X-286372Y216000D01*
X-286443Y215946D01*
X-287602Y214787D01*
X-289313Y214078D01*
X-291165Y214078D01*
X-292876Y214787D01*
X-293359Y215270D01*
X-293410Y215312D01*
X-293456Y215360D01*
X-293562Y215435D01*
X-293661Y215516D01*
X-293720Y215546D01*
X-293775Y215585D01*
X-293893Y215636D01*
X-294008Y215695D01*
X-294072Y215713D01*
X-294133Y215739D01*
X-294259Y215765D01*
X-294383Y215800D01*
X-294449Y215805D01*
X-294514Y215818D01*
X-294643Y215818D01*
X-294772Y215826D01*
X-294838Y215817D01*
X-294904Y215817D01*
X-295031Y215791D01*
X-295158Y215773D01*
X-295220Y215751D01*
X-295286Y215737D01*
X-295404Y215685D01*
X-295525Y215642D01*
X-295582Y215608D01*
X-295643Y215581D01*
X-295713Y215528D01*
X-295858Y215439D01*
X-295982Y215323D01*
X-296052Y215270D01*
X-296448Y214874D01*
X-298159Y214165D01*
X-300011Y214165D01*
X-301722Y214874D01*
X-303032Y216184D01*
X-303741Y217895D01*
X-303741Y219747D01*
X-303032Y221458D01*
X-301722Y222768D01*
X-299963Y223497D01*
X-299924Y223503D01*
X-299796Y223517D01*
X-299733Y223537D01*
X-299667Y223548D01*
X-299548Y223596D01*
X-299425Y223635D01*
X-299367Y223667D01*
X-299305Y223692D01*
X-299198Y223763D01*
X-299085Y223826D01*
X-299035Y223870D01*
X-298979Y223906D01*
X-298888Y223997D01*
X-298791Y224082D01*
X-298751Y224135D01*
X-298704Y224182D01*
X-298634Y224290D01*
X-298556Y224393D01*
X-298528Y224453D01*
X-298491Y224509D01*
X-298444Y224629D01*
X-298389Y224745D01*
X-298373Y224810D01*
X-298349Y224872D01*
X-298337Y224958D01*
X-298297Y225124D01*
X-298292Y225294D01*
X-298280Y225381D01*
X-298280Y226732D01*
X-297571Y228443D01*
X-296261Y229753D01*
X-294550Y230462D01*
X-292698Y230462D01*
X-290987Y229753D01*
X-289677Y228443D01*
X-288968Y226732D01*
X-288968Y224967D01*
X-288965Y224934D01*
X-288967Y224901D01*
X-288945Y224740D01*
X-288928Y224579D01*
X-288918Y224548D01*
X-288914Y224515D01*
X-288859Y224362D01*
X-288810Y224208D01*
X-288794Y224179D01*
X-288783Y224148D01*
X-288698Y224009D01*
X-288619Y223868D01*
X-288597Y223843D01*
X-288580Y223815D01*
X-288469Y223697D01*
X-288363Y223575D01*
X-288336Y223555D01*
X-288314Y223530D01*
X-288181Y223437D01*
X-288052Y223339D01*
X-288022Y223325D01*
X-287995Y223306D01*
X-287846Y223242D01*
X-287700Y223172D01*
X-287668Y223164D01*
X-287637Y223151D01*
X-287478Y223119D01*
X-287321Y223080D01*
X-287288Y223079D01*
X-287255Y223073D01*
X-287093Y223073D01*
X-286931Y223068D01*
X-286899Y223073D01*
X-286865Y223073D01*
X-286707Y223107D01*
X-286547Y223134D01*
X-286517Y223147D01*
X-286484Y223153D01*
X-286335Y223218D01*
X-286185Y223278D01*
X-286157Y223296D01*
X-286127Y223310D01*
X-286060Y223360D01*
X-285860Y223492D01*
X-285776Y223576D01*
X-285717Y223621D01*
X-284875Y224463D01*
X-283164Y225172D01*
X-281312Y225172D01*
X-279601Y224463D01*
X-278291Y223153D01*
X-277582Y221442D01*
X-277582Y219502D01*
X-277600Y219443D01*
X-277604Y219394D01*
X-277616Y219345D01*
X-277621Y219200D01*
X-277633Y219055D01*
X-277627Y219005D01*
X-277629Y218955D01*
X-277604Y218812D01*
X-277586Y218668D01*
X-277570Y218621D01*
X-277562Y218571D01*
X-277508Y218437D01*
X-277462Y218299D01*
X-277437Y218255D01*
X-277418Y218209D01*
X-277339Y218088D01*
X-277265Y217962D01*
X-277231Y217925D01*
X-277204Y217883D01*
X-277101Y217781D01*
X-277004Y217673D01*
X-276963Y217644D01*
X-276928Y217608D01*
X-276806Y217529D01*
X-276689Y217443D01*
X-276643Y217423D01*
X-276601Y217395D01*
X-276466Y217342D01*
X-276334Y217282D01*
X-276285Y217271D01*
X-276238Y217253D01*
X-276150Y217241D01*
X-275953Y217197D01*
X-275810Y217195D01*
X-275729Y217184D01*
X-273919Y217184D01*
X-271922Y216357D01*
X-271882Y216345D01*
X-271844Y216326D01*
X-271695Y216289D01*
X-271548Y216245D01*
X-271507Y216241D01*
X-271466Y216231D01*
X-271313Y216225D01*
X-271160Y216212D01*
X-271118Y216217D01*
X-271077Y216215D01*
X-270925Y216240D01*
X-270773Y216258D01*
X-270733Y216272D01*
X-270692Y216279D01*
X-270549Y216334D01*
X-270403Y216383D01*
X-270367Y216404D01*
X-270329Y216419D01*
X-270199Y216502D01*
X-270067Y216580D01*
X-270036Y216608D01*
X-270001Y216630D01*
X-269892Y216738D01*
X-269778Y216841D01*
X-269753Y216875D01*
X-269724Y216904D01*
X-269638Y217032D01*
X-269630Y217044D01*
X-266064Y217044D01*
X-266064Y214120D01*
X-266121Y214137D01*
X-266154Y214140D01*
X-266187Y214148D01*
X-266348Y214156D01*
X-266510Y214170D01*
X-266543Y214166D01*
X-266576Y214168D01*
X-266736Y214143D01*
X-266897Y214123D01*
X-266928Y214113D01*
X-266961Y214107D01*
X-267113Y214050D01*
X-267266Y213999D01*
X-267295Y213982D01*
X-267326Y213970D01*
X-267463Y213884D01*
X-267602Y213802D01*
X-267627Y213779D01*
X-267655Y213762D01*
X-267771Y213649D01*
X-267891Y213540D01*
X-267911Y213513D01*
X-267935Y213490D01*
X-268026Y213356D01*
X-268121Y213226D01*
X-268135Y213195D01*
X-268154Y213168D01*
X-268215Y213018D01*
X-268282Y212871D01*
X-268290Y212838D01*
X-268302Y212807D01*
X-268332Y212648D01*
X-268368Y212490D01*
X-268368Y212457D01*
X-268374Y212424D01*
X-268371Y212263D01*
X-268374Y212100D01*
X-268367Y212068D01*
X-268367Y212034D01*
X-268345Y211954D01*
X-268300Y211718D01*
X-268254Y211608D01*
X-268236Y211537D01*
X-268210Y211475D01*
X-268210Y208641D01*
X-269295Y206022D01*
X-271300Y204017D01*
X-273919Y202932D01*
X-276753Y202932D01*
G37*
%LPD*%
%LPC*%
G36*
X-119127Y216281D02*
X-119127Y216281D01*
X-119133Y216347D01*
X-119131Y216413D01*
X-119153Y216540D01*
X-119166Y216668D01*
X-119187Y216732D01*
X-119198Y216797D01*
X-119245Y216917D01*
X-119284Y217040D01*
X-119317Y217098D01*
X-119342Y217160D01*
X-119412Y217267D01*
X-119476Y217380D01*
X-119519Y217430D01*
X-119556Y217485D01*
X-119647Y217576D01*
X-119732Y217673D01*
X-119733Y217674D01*
X-119785Y217714D01*
X-119832Y217760D01*
X-119833Y217761D01*
X-119941Y217831D01*
X-120043Y217909D01*
X-120103Y217937D01*
X-120159Y217974D01*
X-120279Y218021D01*
X-120395Y218076D01*
X-120460Y218092D01*
X-120522Y218116D01*
X-120609Y218128D01*
X-120774Y218168D01*
X-120944Y218174D01*
X-121031Y218185D01*
X-125823Y218185D01*
X-125600Y218723D01*
X-125036Y219568D01*
X-124318Y220286D01*
X-123391Y220905D01*
X-123334Y220952D01*
X-123271Y220992D01*
X-123184Y221076D01*
X-123091Y221153D01*
X-123044Y221212D01*
X-122991Y221264D01*
X-122923Y221363D01*
X-122848Y221458D01*
X-122814Y221524D01*
X-122772Y221586D01*
X-122726Y221698D01*
X-122672Y221805D01*
X-122652Y221878D01*
X-122624Y221947D01*
X-122601Y222065D01*
X-122570Y222182D01*
X-122565Y222256D01*
X-122552Y222330D01*
X-122554Y222450D01*
X-122547Y222571D01*
X-122558Y222645D01*
X-122559Y222719D01*
X-122581Y222802D01*
X-122604Y222956D01*
X-122667Y223130D01*
X-122690Y223217D01*
X-123274Y224626D01*
X-123274Y226478D01*
X-122565Y228189D01*
X-121255Y229499D01*
X-119544Y230208D01*
X-117692Y230208D01*
X-115981Y229499D01*
X-114613Y228131D01*
X-114574Y228059D01*
X-114552Y228033D01*
X-114535Y228004D01*
X-114427Y227884D01*
X-114323Y227760D01*
X-114296Y227740D01*
X-114274Y227715D01*
X-114143Y227620D01*
X-114016Y227520D01*
X-113986Y227505D01*
X-113959Y227485D01*
X-113811Y227418D01*
X-113667Y227347D01*
X-113635Y227338D01*
X-113604Y227324D01*
X-113446Y227289D01*
X-113290Y227248D01*
X-113256Y227246D01*
X-113224Y227239D01*
X-113062Y227237D01*
X-112900Y227228D01*
X-112867Y227234D01*
X-112834Y227233D01*
X-112675Y227264D01*
X-112515Y227288D01*
X-112484Y227300D01*
X-112451Y227307D01*
X-112302Y227369D01*
X-112150Y227426D01*
X-112122Y227444D01*
X-112091Y227456D01*
X-111958Y227548D01*
X-111821Y227634D01*
X-111797Y227658D01*
X-111770Y227676D01*
X-111658Y227793D01*
X-111541Y227906D01*
X-111522Y227933D01*
X-111499Y227957D01*
X-111457Y228029D01*
X-111322Y228228D01*
X-111277Y228338D01*
X-111240Y228401D01*
X-111223Y228443D01*
X-109913Y229753D01*
X-108202Y230462D01*
X-106350Y230462D01*
X-104639Y229753D01*
X-103329Y228443D01*
X-102821Y227216D01*
X-102805Y227187D01*
X-102794Y227155D01*
X-102713Y227016D01*
X-102635Y226873D01*
X-102614Y226847D01*
X-102597Y226819D01*
X-102489Y226699D01*
X-102384Y226575D01*
X-102358Y226554D01*
X-102336Y226530D01*
X-102205Y226434D01*
X-102078Y226334D01*
X-102048Y226319D01*
X-102021Y226300D01*
X-101874Y226233D01*
X-101728Y226161D01*
X-101696Y226153D01*
X-101666Y226139D01*
X-101508Y226104D01*
X-101351Y226063D01*
X-101318Y226061D01*
X-101286Y226054D01*
X-101124Y226051D01*
X-100962Y226043D01*
X-100929Y226048D01*
X-100896Y226048D01*
X-100737Y226078D01*
X-100577Y226103D01*
X-100546Y226115D01*
X-100513Y226121D01*
X-100363Y226183D01*
X-100212Y226240D01*
X-100184Y226258D01*
X-100153Y226271D01*
X-100019Y226362D01*
X-99883Y226449D01*
X-99859Y226472D01*
X-99831Y226491D01*
X-99719Y226607D01*
X-99603Y226720D01*
X-99584Y226748D01*
X-99561Y226772D01*
X-99519Y226844D01*
X-99384Y227043D01*
X-99339Y227153D01*
X-99302Y227216D01*
X-98899Y228189D01*
X-97589Y229499D01*
X-95878Y230208D01*
X-94026Y230208D01*
X-92315Y229499D01*
X-91005Y228189D01*
X-90296Y226478D01*
X-90296Y224626D01*
X-91005Y222915D01*
X-92315Y221605D01*
X-94026Y220896D01*
X-95878Y220896D01*
X-95925Y220916D01*
X-95957Y220925D01*
X-95987Y220940D01*
X-96144Y220981D01*
X-96299Y221027D01*
X-96332Y221030D01*
X-96364Y221039D01*
X-96526Y221047D01*
X-96687Y221061D01*
X-96720Y221057D01*
X-96753Y221058D01*
X-96913Y221033D01*
X-97074Y221014D01*
X-97106Y221003D01*
X-97139Y220998D01*
X-97290Y220941D01*
X-97443Y220889D01*
X-97472Y220873D01*
X-97503Y220861D01*
X-97640Y220774D01*
X-97780Y220692D01*
X-97804Y220670D01*
X-97833Y220652D01*
X-97949Y220539D01*
X-98069Y220431D01*
X-98089Y220404D01*
X-98113Y220381D01*
X-98204Y220246D01*
X-98299Y220116D01*
X-98313Y220086D01*
X-98331Y220058D01*
X-98393Y219908D01*
X-98460Y219761D01*
X-98467Y219729D01*
X-98480Y219698D01*
X-98510Y219538D01*
X-98545Y219381D01*
X-98546Y219347D01*
X-98552Y219315D01*
X-98549Y219152D01*
X-98551Y218991D01*
X-98545Y218958D01*
X-98544Y218925D01*
X-98523Y218844D01*
X-98478Y218608D01*
X-98432Y218498D01*
X-98413Y218428D01*
X-97960Y217334D01*
X-97960Y215482D01*
X-98669Y213771D01*
X-99979Y212461D01*
X-101690Y211752D01*
X-103542Y211752D01*
X-105253Y212461D01*
X-105969Y213176D01*
X-106020Y213218D01*
X-106066Y213267D01*
X-106093Y213286D01*
X-106112Y213305D01*
X-106187Y213354D01*
X-106271Y213422D01*
X-106330Y213453D01*
X-106384Y213491D01*
X-106422Y213507D01*
X-106438Y213518D01*
X-106511Y213547D01*
X-106617Y213601D01*
X-106681Y213619D01*
X-106742Y213646D01*
X-106789Y213655D01*
X-106801Y213660D01*
X-106836Y213665D01*
X-106868Y213672D01*
X-106992Y213706D01*
X-107059Y213711D01*
X-107124Y213724D01*
X-107253Y213724D01*
X-107286Y213726D01*
X-107311Y213730D01*
X-107319Y213730D01*
X-107326Y213729D01*
X-107381Y213733D01*
X-107447Y213724D01*
X-107514Y213724D01*
X-107640Y213697D01*
X-107650Y213696D01*
X-107707Y213690D01*
X-107718Y213686D01*
X-107767Y213679D01*
X-107830Y213657D01*
X-107895Y213644D01*
X-108007Y213594D01*
X-108079Y213572D01*
X-108094Y213563D01*
X-108135Y213549D01*
X-108191Y213514D01*
X-108252Y213487D01*
X-108320Y213436D01*
X-108418Y213381D01*
X-108437Y213364D01*
X-108467Y213346D01*
X-108592Y213229D01*
X-108662Y213176D01*
X-109377Y212461D01*
X-111088Y211752D01*
X-112940Y211752D01*
X-114651Y212461D01*
X-114759Y212569D01*
X-114810Y212611D01*
X-114856Y212659D01*
X-114961Y212733D01*
X-115061Y212815D01*
X-115120Y212845D01*
X-115175Y212884D01*
X-115293Y212935D01*
X-115407Y212994D01*
X-115471Y213012D01*
X-115533Y213038D01*
X-115659Y213064D01*
X-115783Y213099D01*
X-115849Y213103D01*
X-115914Y213117D01*
X-116043Y213117D01*
X-116172Y213125D01*
X-116238Y213116D01*
X-116304Y213116D01*
X-116430Y213090D01*
X-116558Y213072D01*
X-116621Y213050D01*
X-116686Y213036D01*
X-116804Y212984D01*
X-116925Y212941D01*
X-116982Y212906D01*
X-117043Y212880D01*
X-117113Y212827D01*
X-117258Y212738D01*
X-117382Y212622D01*
X-117452Y212569D01*
X-117745Y212276D01*
X-118589Y211712D01*
X-119127Y211489D01*
X-119127Y216281D01*
G37*
%LPD*%
%LPC*%
G36*
X-452284Y213994D02*
X-452284Y213994D01*
X-453995Y214703D01*
X-455305Y216013D01*
X-456014Y217724D01*
X-456014Y219576D01*
X-455305Y221287D01*
X-453995Y222597D01*
X-452284Y223306D01*
X-450432Y223306D01*
X-448721Y222597D01*
X-447193Y221069D01*
X-447154Y221038D01*
X-447120Y221000D01*
X-447003Y220915D01*
X-446890Y220823D01*
X-446846Y220800D01*
X-446806Y220771D01*
X-446673Y220710D01*
X-446544Y220644D01*
X-446496Y220630D01*
X-446451Y220610D01*
X-446309Y220578D01*
X-446169Y220539D01*
X-446119Y220535D01*
X-446070Y220524D01*
X-445925Y220522D01*
X-445780Y220512D01*
X-445730Y220519D01*
X-445680Y220518D01*
X-445538Y220546D01*
X-445394Y220566D01*
X-445347Y220582D01*
X-445298Y220592D01*
X-445163Y220648D01*
X-445027Y220697D01*
X-444984Y220723D01*
X-444938Y220742D01*
X-444818Y220824D01*
X-444694Y220900D01*
X-444657Y220934D01*
X-444616Y220962D01*
X-444515Y221067D01*
X-444409Y221166D01*
X-444380Y221207D01*
X-444346Y221243D01*
X-444301Y221320D01*
X-444185Y221485D01*
X-444151Y221563D01*
X-442819Y222895D01*
X-441108Y223604D01*
X-440834Y223604D01*
X-440768Y223611D01*
X-440702Y223608D01*
X-440575Y223630D01*
X-440446Y223644D01*
X-440383Y223664D01*
X-440317Y223675D01*
X-440198Y223723D01*
X-440075Y223762D01*
X-440017Y223794D01*
X-439955Y223819D01*
X-439848Y223890D01*
X-439735Y223953D01*
X-439685Y223997D01*
X-439630Y224033D01*
X-439539Y224124D01*
X-439441Y224209D01*
X-439401Y224262D01*
X-439354Y224309D01*
X-439284Y224417D01*
X-439206Y224520D01*
X-439178Y224580D01*
X-439141Y224636D01*
X-439094Y224756D01*
X-439039Y224872D01*
X-439023Y224937D01*
X-438999Y224999D01*
X-438987Y225085D01*
X-438947Y225251D01*
X-438942Y225421D01*
X-438930Y225508D01*
X-438930Y226413D01*
X-438221Y228124D01*
X-436911Y229434D01*
X-435200Y230143D01*
X-433348Y230143D01*
X-431637Y229434D01*
X-430327Y228124D01*
X-430027Y227401D01*
X-430012Y227371D01*
X-430001Y227340D01*
X-429919Y227200D01*
X-429842Y227058D01*
X-429821Y227032D01*
X-429804Y227003D01*
X-429695Y226883D01*
X-429591Y226760D01*
X-429565Y226739D01*
X-429542Y226714D01*
X-429411Y226619D01*
X-429284Y226519D01*
X-429254Y226504D01*
X-429227Y226484D01*
X-429080Y226418D01*
X-428935Y226346D01*
X-428903Y226337D01*
X-428872Y226324D01*
X-428714Y226288D01*
X-428558Y226247D01*
X-428525Y226246D01*
X-428492Y226238D01*
X-428330Y226236D01*
X-428169Y226228D01*
X-428136Y226233D01*
X-428102Y226232D01*
X-427943Y226263D01*
X-427784Y226288D01*
X-427752Y226299D01*
X-427720Y226306D01*
X-427570Y226368D01*
X-427419Y226425D01*
X-427390Y226443D01*
X-427360Y226456D01*
X-427226Y226547D01*
X-427089Y226634D01*
X-427065Y226657D01*
X-427038Y226676D01*
X-426926Y226792D01*
X-426810Y226905D01*
X-426791Y226933D01*
X-426768Y226957D01*
X-426726Y227029D01*
X-426680Y227096D01*
X-425293Y228483D01*
X-423582Y229192D01*
X-421730Y229192D01*
X-420019Y228483D01*
X-418709Y227173D01*
X-418000Y225462D01*
X-418000Y223610D01*
X-418709Y221899D01*
X-420019Y220589D01*
X-421730Y219880D01*
X-421746Y219880D01*
X-421812Y219873D01*
X-421878Y219876D01*
X-422005Y219854D01*
X-422133Y219840D01*
X-422197Y219820D01*
X-422262Y219809D01*
X-422382Y219761D01*
X-422505Y219722D01*
X-422563Y219690D01*
X-422624Y219665D01*
X-422732Y219594D01*
X-422844Y219531D01*
X-422895Y219487D01*
X-422950Y219451D01*
X-423041Y219360D01*
X-423138Y219275D01*
X-423178Y219222D01*
X-423225Y219175D01*
X-423296Y219067D01*
X-423373Y218964D01*
X-423402Y218904D01*
X-423438Y218848D01*
X-423485Y218728D01*
X-423540Y218612D01*
X-423556Y218547D01*
X-423580Y218485D01*
X-423592Y218399D01*
X-423632Y218233D01*
X-423638Y218063D01*
X-423650Y217976D01*
X-423650Y217960D01*
X-424359Y216249D01*
X-425668Y214940D01*
X-427379Y214231D01*
X-429232Y214231D01*
X-430943Y214940D01*
X-432252Y216249D01*
X-432497Y216840D01*
X-432513Y216869D01*
X-432524Y216901D01*
X-432606Y217041D01*
X-432682Y217183D01*
X-432704Y217208D01*
X-432721Y217237D01*
X-432830Y217358D01*
X-432934Y217481D01*
X-432960Y217502D01*
X-432982Y217526D01*
X-433113Y217622D01*
X-433240Y217722D01*
X-433270Y217737D01*
X-433297Y217756D01*
X-433444Y217823D01*
X-433589Y217895D01*
X-433622Y217903D01*
X-433652Y217917D01*
X-433810Y217953D01*
X-433967Y217993D01*
X-434000Y217995D01*
X-434032Y218002D01*
X-434194Y218005D01*
X-434356Y218013D01*
X-434389Y218008D01*
X-434422Y218008D01*
X-434581Y217978D01*
X-434741Y217953D01*
X-434772Y217941D01*
X-434805Y217935D01*
X-434955Y217873D01*
X-435106Y217816D01*
X-435134Y217798D01*
X-435165Y217785D01*
X-435298Y217694D01*
X-435435Y217607D01*
X-435459Y217584D01*
X-435487Y217565D01*
X-435599Y217448D01*
X-435715Y217336D01*
X-435734Y217308D01*
X-435757Y217284D01*
X-435799Y217212D01*
X-435934Y217013D01*
X-435979Y216903D01*
X-436016Y216840D01*
X-436235Y216311D01*
X-437545Y215001D01*
X-439256Y214292D01*
X-441108Y214292D01*
X-442819Y215001D01*
X-444347Y216529D01*
X-444386Y216560D01*
X-444420Y216598D01*
X-444537Y216683D01*
X-444650Y216775D01*
X-444694Y216798D01*
X-444734Y216827D01*
X-444867Y216888D01*
X-444996Y216954D01*
X-445044Y216968D01*
X-445089Y216988D01*
X-445231Y217020D01*
X-445371Y217059D01*
X-445421Y217063D01*
X-445470Y217074D01*
X-445615Y217076D01*
X-445760Y217086D01*
X-445810Y217079D01*
X-445860Y217080D01*
X-446002Y217052D01*
X-446146Y217032D01*
X-446193Y217016D01*
X-446242Y217006D01*
X-446377Y216950D01*
X-446513Y216901D01*
X-446556Y216875D01*
X-446602Y216856D01*
X-446722Y216774D01*
X-446846Y216698D01*
X-446883Y216664D01*
X-446924Y216636D01*
X-447025Y216531D01*
X-447131Y216432D01*
X-447160Y216391D01*
X-447194Y216355D01*
X-447239Y216278D01*
X-447355Y216113D01*
X-447389Y216035D01*
X-448721Y214703D01*
X-450432Y213994D01*
X-452284Y213994D01*
G37*
%LPD*%
G36*
X-144500Y183265D02*
X-144500Y183265D01*
X-144467Y183263D01*
X-144306Y183285D01*
X-144145Y183302D01*
X-144114Y183312D01*
X-144081Y183316D01*
X-143928Y183371D01*
X-143774Y183420D01*
X-143745Y183436D01*
X-143713Y183447D01*
X-143575Y183531D01*
X-143434Y183611D01*
X-143409Y183633D01*
X-143381Y183650D01*
X-143262Y183761D01*
X-143140Y183867D01*
X-143120Y183894D01*
X-143096Y183916D01*
X-143003Y184049D01*
X-142905Y184178D01*
X-142891Y184208D01*
X-142872Y184235D01*
X-142807Y184384D01*
X-142738Y184530D01*
X-142730Y184562D01*
X-142717Y184593D01*
X-142684Y184752D01*
X-142646Y184909D01*
X-142645Y184942D01*
X-142638Y184975D01*
X-142639Y185137D01*
X-142633Y185299D01*
X-142639Y185331D01*
X-142639Y185365D01*
X-142672Y185523D01*
X-142700Y185683D01*
X-142712Y185713D01*
X-142719Y185746D01*
X-142784Y185895D01*
X-142844Y186045D01*
X-142862Y186073D01*
X-142875Y186103D01*
X-142926Y186170D01*
X-143058Y186371D01*
X-143142Y186454D01*
X-143186Y186513D01*
X-154409Y197735D01*
X-154486Y197797D01*
X-154556Y197868D01*
X-154637Y197920D01*
X-154711Y197980D01*
X-154799Y198026D01*
X-154883Y198081D01*
X-154972Y198116D01*
X-155057Y198160D01*
X-155153Y198187D01*
X-155246Y198223D01*
X-155318Y198233D01*
X-155432Y198265D01*
X-155672Y198281D01*
X-155755Y198292D01*
X-156054Y198292D01*
X-156104Y198287D01*
X-156154Y198290D01*
X-156298Y198267D01*
X-156442Y198252D01*
X-156490Y198237D01*
X-156539Y198230D01*
X-156675Y198178D01*
X-156814Y198134D01*
X-156857Y198110D01*
X-156904Y198092D01*
X-157027Y198014D01*
X-157153Y197943D01*
X-157191Y197910D01*
X-157233Y197884D01*
X-157337Y197782D01*
X-157447Y197687D01*
X-157477Y197647D01*
X-157513Y197612D01*
X-157594Y197492D01*
X-157682Y197376D01*
X-157704Y197331D01*
X-157732Y197290D01*
X-157787Y197155D01*
X-157849Y197024D01*
X-157861Y196975D01*
X-157880Y196929D01*
X-157907Y196786D01*
X-157941Y196645D01*
X-157943Y196595D01*
X-157952Y196546D01*
X-157949Y196401D01*
X-157954Y196255D01*
X-157945Y196206D01*
X-157944Y196156D01*
X-157922Y196070D01*
X-157887Y195871D01*
X-157834Y195738D01*
X-157814Y195659D01*
X-157630Y195216D01*
X-157630Y193364D01*
X-158339Y191652D01*
X-159648Y190343D01*
X-161360Y189634D01*
X-163212Y189634D01*
X-164923Y190343D01*
X-165795Y191215D01*
X-165872Y191278D01*
X-165943Y191348D01*
X-166023Y191401D01*
X-166098Y191461D01*
X-166186Y191507D01*
X-166270Y191561D01*
X-166359Y191596D01*
X-166444Y191640D01*
X-166540Y191667D01*
X-166632Y191703D01*
X-166705Y191713D01*
X-166819Y191745D01*
X-167059Y191762D01*
X-167142Y191773D01*
X-168809Y191773D01*
X-168850Y191769D01*
X-168892Y191771D01*
X-169044Y191749D01*
X-169196Y191733D01*
X-169236Y191720D01*
X-169278Y191714D01*
X-169422Y191661D01*
X-169568Y191615D01*
X-169604Y191594D01*
X-169644Y191580D01*
X-169774Y191499D01*
X-169908Y191424D01*
X-169939Y191396D01*
X-169975Y191374D01*
X-170086Y191268D01*
X-170201Y191167D01*
X-170226Y191134D01*
X-170257Y191105D01*
X-170344Y190979D01*
X-170437Y190857D01*
X-170454Y190819D01*
X-170478Y190784D01*
X-170538Y190643D01*
X-170604Y190504D01*
X-170613Y190464D01*
X-170630Y190425D01*
X-170659Y190275D01*
X-170695Y190126D01*
X-170697Y190084D01*
X-170705Y190043D01*
X-170703Y189890D01*
X-170708Y189736D01*
X-170701Y189695D01*
X-170701Y189653D01*
X-170668Y189503D01*
X-170641Y189352D01*
X-170626Y189313D01*
X-170617Y189272D01*
X-170579Y189193D01*
X-170498Y188990D01*
X-170458Y188930D01*
X-170214Y188340D01*
X-175006Y188340D01*
X-175072Y188334D01*
X-175138Y188336D01*
X-175265Y188314D01*
X-175393Y188300D01*
X-175457Y188280D01*
X-175522Y188269D01*
X-175642Y188222D01*
X-175765Y188182D01*
X-175823Y188150D01*
X-175885Y188125D01*
X-175992Y188055D01*
X-176105Y187991D01*
X-176155Y187948D01*
X-176210Y187911D01*
X-176301Y187820D01*
X-176398Y187735D01*
X-176438Y187682D01*
X-176485Y187635D01*
X-176556Y187527D01*
X-176634Y187424D01*
X-176662Y187364D01*
X-176698Y187308D01*
X-176745Y187188D01*
X-176801Y187072D01*
X-176816Y187007D01*
X-176841Y186946D01*
X-176852Y186859D01*
X-176892Y186693D01*
X-176898Y186523D01*
X-176910Y186436D01*
X-176903Y186370D01*
X-176905Y186304D01*
X-176905Y186303D01*
X-176883Y186176D01*
X-176870Y186048D01*
X-176850Y185985D01*
X-176839Y185919D01*
X-176791Y185800D01*
X-176752Y185677D01*
X-176719Y185619D01*
X-176695Y185557D01*
X-176624Y185449D01*
X-176561Y185337D01*
X-176517Y185287D01*
X-176481Y185231D01*
X-176389Y185140D01*
X-176304Y185043D01*
X-176252Y185003D01*
X-176204Y184956D01*
X-176096Y184886D01*
X-175994Y184808D01*
X-175934Y184779D01*
X-175878Y184743D01*
X-175758Y184696D01*
X-175642Y184641D01*
X-175577Y184625D01*
X-175515Y184601D01*
X-175428Y184589D01*
X-175263Y184549D01*
X-175093Y184543D01*
X-175006Y184532D01*
X-169846Y184532D01*
X-169843Y184522D01*
X-169800Y184392D01*
X-169771Y184341D01*
X-169750Y184287D01*
X-169674Y184173D01*
X-169606Y184054D01*
X-169567Y184010D01*
X-169535Y183962D01*
X-169438Y183865D01*
X-169347Y183762D01*
X-169300Y183728D01*
X-169259Y183686D01*
X-169144Y183611D01*
X-169034Y183530D01*
X-168982Y183505D01*
X-168933Y183473D01*
X-168805Y183423D01*
X-168681Y183366D01*
X-168624Y183352D01*
X-168570Y183331D01*
X-168481Y183319D01*
X-168301Y183277D01*
X-168145Y183273D01*
X-168060Y183262D01*
X-144533Y183262D01*
X-144500Y183265D01*
G37*
%LPC*%
G36*
X-157136Y209466D02*
X-157136Y209466D01*
X-158847Y210175D01*
X-160157Y211485D01*
X-160866Y213196D01*
X-160866Y215048D01*
X-160157Y216759D01*
X-158847Y218069D01*
X-157136Y218778D01*
X-155284Y218778D01*
X-153573Y218069D01*
X-153217Y217713D01*
X-153165Y217671D01*
X-153120Y217622D01*
X-153014Y217548D01*
X-152914Y217467D01*
X-152855Y217436D01*
X-152801Y217398D01*
X-152682Y217347D01*
X-152568Y217288D01*
X-152504Y217270D01*
X-152443Y217243D01*
X-152317Y217217D01*
X-152193Y217182D01*
X-152126Y217178D01*
X-152061Y217165D01*
X-151932Y217165D01*
X-151804Y217156D01*
X-151738Y217165D01*
X-151671Y217165D01*
X-151545Y217192D01*
X-151418Y217209D01*
X-151355Y217232D01*
X-151290Y217245D01*
X-151172Y217297D01*
X-151050Y217340D01*
X-150994Y217375D01*
X-150933Y217402D01*
X-150863Y217455D01*
X-150718Y217543D01*
X-150593Y217660D01*
X-150523Y217713D01*
X-150062Y218174D01*
X-149882Y218249D01*
X-149867Y218257D01*
X-149851Y218262D01*
X-149695Y218349D01*
X-149539Y218434D01*
X-149526Y218445D01*
X-149511Y218453D01*
X-149377Y218570D01*
X-149241Y218685D01*
X-149230Y218698D01*
X-149218Y218709D01*
X-149110Y218852D01*
X-149000Y218992D01*
X-148993Y219007D01*
X-148982Y219020D01*
X-148906Y219181D01*
X-148827Y219341D01*
X-148822Y219357D01*
X-148815Y219372D01*
X-148773Y219545D01*
X-148757Y219608D01*
X-148746Y219596D01*
X-148737Y219582D01*
X-148610Y219456D01*
X-148486Y219329D01*
X-148472Y219319D01*
X-148460Y219307D01*
X-148311Y219210D01*
X-148163Y219110D01*
X-148148Y219103D01*
X-148134Y219094D01*
X-147968Y219029D01*
X-147803Y218961D01*
X-147787Y218958D01*
X-147771Y218952D01*
X-147710Y218944D01*
X-147420Y218889D01*
X-147324Y218891D01*
X-147262Y218883D01*
X-146499Y218883D01*
X-145390Y218423D01*
X-145326Y218404D01*
X-145265Y218377D01*
X-145140Y218349D01*
X-145016Y218312D01*
X-144950Y218306D01*
X-144885Y218291D01*
X-144756Y218289D01*
X-144628Y218279D01*
X-144562Y218286D01*
X-144495Y218285D01*
X-144369Y218310D01*
X-144241Y218325D01*
X-144178Y218346D01*
X-144112Y218359D01*
X-143993Y218408D01*
X-143871Y218450D01*
X-143814Y218483D01*
X-143753Y218509D01*
X-143646Y218582D01*
X-143535Y218647D01*
X-143486Y218691D01*
X-143431Y218729D01*
X-143341Y218822D01*
X-143246Y218908D01*
X-143207Y218962D01*
X-143161Y219010D01*
X-143116Y219085D01*
X-143016Y219223D01*
X-142946Y219378D01*
X-142902Y219454D01*
X-142544Y220317D01*
X-141234Y221627D01*
X-139523Y222336D01*
X-137671Y222336D01*
X-135960Y221627D01*
X-134650Y220317D01*
X-133941Y218606D01*
X-133941Y216754D01*
X-134650Y215042D01*
X-135960Y213733D01*
X-137671Y213024D01*
X-139523Y213024D01*
X-140632Y213484D01*
X-140696Y213503D01*
X-140757Y213530D01*
X-140882Y213558D01*
X-141006Y213595D01*
X-141072Y213601D01*
X-141137Y213615D01*
X-141266Y213617D01*
X-141394Y213628D01*
X-141460Y213620D01*
X-141527Y213621D01*
X-141653Y213597D01*
X-141781Y213582D01*
X-141844Y213560D01*
X-141910Y213548D01*
X-142028Y213498D01*
X-142151Y213457D01*
X-142208Y213424D01*
X-142269Y213398D01*
X-142376Y213325D01*
X-142487Y213260D01*
X-142536Y213216D01*
X-142591Y213178D01*
X-142681Y213085D01*
X-142776Y212999D01*
X-142815Y212945D01*
X-142861Y212897D01*
X-142906Y212821D01*
X-143006Y212684D01*
X-143076Y212529D01*
X-143120Y212453D01*
X-143478Y211590D01*
X-144788Y210280D01*
X-146499Y209571D01*
X-148351Y209571D01*
X-150062Y210280D01*
X-150419Y210636D01*
X-150470Y210678D01*
X-150516Y210727D01*
X-150621Y210801D01*
X-150721Y210882D01*
X-150780Y210913D01*
X-150834Y210951D01*
X-150953Y211002D01*
X-151067Y211061D01*
X-151131Y211079D01*
X-151192Y211106D01*
X-151318Y211132D01*
X-151442Y211166D01*
X-151509Y211171D01*
X-151574Y211184D01*
X-151703Y211184D01*
X-151831Y211193D01*
X-151897Y211184D01*
X-151964Y211184D01*
X-152090Y211157D01*
X-152217Y211139D01*
X-152280Y211117D01*
X-152345Y211104D01*
X-152463Y211052D01*
X-152585Y211009D01*
X-152641Y210974D01*
X-152702Y210947D01*
X-152772Y210894D01*
X-152917Y210806D01*
X-153042Y210689D01*
X-153112Y210636D01*
X-153573Y210175D01*
X-155284Y209466D01*
X-157136Y209466D01*
G37*
%LPD*%
%LPC*%
G36*
X-300501Y348252D02*
X-300501Y348252D01*
X-302213Y348961D01*
X-303522Y350270D01*
X-304001Y351425D01*
X-304025Y351469D01*
X-304041Y351516D01*
X-304117Y351640D01*
X-304186Y351768D01*
X-304218Y351807D01*
X-304244Y351849D01*
X-304343Y351955D01*
X-304437Y352066D01*
X-304477Y352097D01*
X-304511Y352134D01*
X-304629Y352217D01*
X-304744Y352307D01*
X-304789Y352329D01*
X-304829Y352358D01*
X-304963Y352416D01*
X-305093Y352480D01*
X-305141Y352493D01*
X-305187Y352513D01*
X-305329Y352542D01*
X-305470Y352579D01*
X-305520Y352581D01*
X-305569Y352591D01*
X-305714Y352591D01*
X-305860Y352598D01*
X-305909Y352591D01*
X-305959Y352591D01*
X-306101Y352561D01*
X-306245Y352538D01*
X-306291Y352521D01*
X-306340Y352510D01*
X-306474Y352452D01*
X-306609Y352401D01*
X-306652Y352374D01*
X-306697Y352354D01*
X-306769Y352300D01*
X-306939Y352192D01*
X-307042Y352093D01*
X-307107Y352043D01*
X-307689Y351461D01*
X-309400Y350752D01*
X-311253Y350752D01*
X-312964Y351461D01*
X-313298Y351795D01*
X-313350Y351837D01*
X-313396Y351886D01*
X-313501Y351960D01*
X-313600Y352041D01*
X-313660Y352072D01*
X-313715Y352110D01*
X-313832Y352161D01*
X-313947Y352220D01*
X-314011Y352238D01*
X-314072Y352265D01*
X-314198Y352290D01*
X-314322Y352325D01*
X-314389Y352330D01*
X-314454Y352343D01*
X-314583Y352343D01*
X-314711Y352351D01*
X-314777Y352342D01*
X-314844Y352342D01*
X-314970Y352316D01*
X-315097Y352298D01*
X-315160Y352276D01*
X-315226Y352262D01*
X-315343Y352210D01*
X-315464Y352167D01*
X-315521Y352132D01*
X-315583Y352105D01*
X-315586Y352103D01*
X-317463Y351325D01*
X-319315Y351325D01*
X-321026Y352034D01*
X-322336Y353344D01*
X-323045Y355055D01*
X-323045Y356907D01*
X-322336Y358618D01*
X-321026Y359928D01*
X-319315Y360637D01*
X-317463Y360637D01*
X-315752Y359928D01*
X-315418Y359594D01*
X-315366Y359552D01*
X-315321Y359503D01*
X-315215Y359429D01*
X-315115Y359348D01*
X-315056Y359317D01*
X-315002Y359279D01*
X-314883Y359228D01*
X-314769Y359169D01*
X-314705Y359151D01*
X-314644Y359124D01*
X-314518Y359098D01*
X-314394Y359064D01*
X-314327Y359059D01*
X-314262Y359046D01*
X-314133Y359046D01*
X-314005Y359037D01*
X-313939Y359046D01*
X-313872Y359046D01*
X-313746Y359073D01*
X-313619Y359090D01*
X-313556Y359113D01*
X-313491Y359126D01*
X-313373Y359178D01*
X-313251Y359221D01*
X-313195Y359256D01*
X-313134Y359283D01*
X-313130Y359286D01*
X-311253Y360063D01*
X-309400Y360063D01*
X-307689Y359354D01*
X-306380Y358045D01*
X-305901Y356890D01*
X-305877Y356846D01*
X-305861Y356799D01*
X-305785Y356675D01*
X-305716Y356547D01*
X-305684Y356509D01*
X-305658Y356466D01*
X-305559Y356360D01*
X-305465Y356249D01*
X-305425Y356218D01*
X-305391Y356182D01*
X-305273Y356098D01*
X-305158Y356008D01*
X-305113Y355986D01*
X-305073Y355957D01*
X-304939Y355899D01*
X-304809Y355835D01*
X-304761Y355822D01*
X-304715Y355802D01*
X-304573Y355773D01*
X-304432Y355736D01*
X-304382Y355734D01*
X-304333Y355724D01*
X-304188Y355724D01*
X-304042Y355717D01*
X-303993Y355725D01*
X-303943Y355725D01*
X-303801Y355755D01*
X-303657Y355777D01*
X-303611Y355794D01*
X-303562Y355805D01*
X-303428Y355863D01*
X-303292Y355914D01*
X-303250Y355941D01*
X-303205Y355961D01*
X-303133Y356015D01*
X-302963Y356123D01*
X-302860Y356223D01*
X-302795Y356272D01*
X-302213Y356855D01*
X-300501Y357563D01*
X-298649Y357563D01*
X-296938Y356855D01*
X-295629Y355545D01*
X-294920Y353834D01*
X-294920Y351982D01*
X-295629Y350270D01*
X-296938Y348961D01*
X-298649Y348252D01*
X-300501Y348252D01*
G37*
%LPD*%
%LPC*%
G36*
X-135783Y195058D02*
X-135783Y195058D01*
X-138402Y196143D01*
X-140407Y198148D01*
X-141492Y200767D01*
X-141492Y203601D01*
X-140407Y206220D01*
X-138402Y208225D01*
X-135783Y209310D01*
X-132949Y209310D01*
X-130330Y208225D01*
X-128325Y206220D01*
X-127240Y203601D01*
X-127240Y200767D01*
X-128325Y198148D01*
X-130330Y196143D01*
X-132949Y195058D01*
X-135783Y195058D01*
G37*
%LPD*%
%LPC*%
G36*
X-422295Y197598D02*
X-422295Y197598D01*
X-424914Y198683D01*
X-426919Y200688D01*
X-428004Y203307D01*
X-428004Y206141D01*
X-426919Y208760D01*
X-424914Y210765D01*
X-422295Y211850D01*
X-419461Y211850D01*
X-416842Y210765D01*
X-414837Y208760D01*
X-413752Y206141D01*
X-413752Y203307D01*
X-414837Y200688D01*
X-416842Y198683D01*
X-419461Y197598D01*
X-422295Y197598D01*
G37*
%LPD*%
%LPC*%
G36*
X-351954Y328509D02*
X-351954Y328509D01*
X-353665Y329218D01*
X-354975Y330528D01*
X-355684Y332239D01*
X-355684Y334091D01*
X-354975Y335802D01*
X-353665Y337112D01*
X-351954Y337821D01*
X-350102Y337821D01*
X-348665Y337225D01*
X-348617Y337211D01*
X-348572Y337190D01*
X-348431Y337156D01*
X-348291Y337114D01*
X-348242Y337110D01*
X-348193Y337098D01*
X-348048Y337093D01*
X-347903Y337081D01*
X-347853Y337087D01*
X-347803Y337085D01*
X-347660Y337110D01*
X-347516Y337127D01*
X-347469Y337143D01*
X-347419Y337152D01*
X-347284Y337205D01*
X-347146Y337252D01*
X-347103Y337277D01*
X-347057Y337295D01*
X-346936Y337375D01*
X-346810Y337449D01*
X-346773Y337482D01*
X-346731Y337510D01*
X-346629Y337613D01*
X-346521Y337710D01*
X-346492Y337751D01*
X-346456Y337786D01*
X-346377Y337908D01*
X-346291Y338025D01*
X-346271Y338071D01*
X-346243Y338112D01*
X-346190Y338248D01*
X-346130Y338380D01*
X-346119Y338429D01*
X-346101Y338475D01*
X-346089Y338564D01*
X-346045Y338761D01*
X-346043Y338904D01*
X-346032Y338985D01*
X-346032Y339508D01*
X-345323Y341219D01*
X-344013Y342529D01*
X-342302Y343238D01*
X-340450Y343238D01*
X-338739Y342529D01*
X-337429Y341219D01*
X-336720Y339508D01*
X-336720Y337656D01*
X-337429Y335945D01*
X-338739Y334635D01*
X-340450Y333926D01*
X-342302Y333926D01*
X-343739Y334522D01*
X-343787Y334536D01*
X-343832Y334557D01*
X-343973Y334591D01*
X-344113Y334633D01*
X-344162Y334637D01*
X-344211Y334649D01*
X-344356Y334654D01*
X-344501Y334666D01*
X-344551Y334660D01*
X-344601Y334662D01*
X-344744Y334637D01*
X-344888Y334620D01*
X-344935Y334604D01*
X-344985Y334595D01*
X-345120Y334542D01*
X-345258Y334495D01*
X-345301Y334470D01*
X-345347Y334452D01*
X-345468Y334372D01*
X-345594Y334298D01*
X-345631Y334265D01*
X-345673Y334237D01*
X-345775Y334134D01*
X-345883Y334037D01*
X-345912Y333996D01*
X-345948Y333961D01*
X-346027Y333839D01*
X-346113Y333722D01*
X-346133Y333676D01*
X-346161Y333635D01*
X-346214Y333499D01*
X-346274Y333367D01*
X-346285Y333318D01*
X-346303Y333272D01*
X-346315Y333183D01*
X-346359Y332986D01*
X-346361Y332843D01*
X-346372Y332762D01*
X-346372Y332239D01*
X-347081Y330528D01*
X-348391Y329218D01*
X-350102Y328509D01*
X-351954Y328509D01*
G37*
%LPD*%
%LPC*%
G36*
X-59092Y335163D02*
X-59092Y335163D01*
X-60803Y335872D01*
X-62113Y337182D01*
X-62822Y338893D01*
X-62822Y340745D01*
X-62113Y342456D01*
X-60803Y343766D01*
X-59092Y344475D01*
X-57995Y344475D01*
X-57929Y344482D01*
X-57862Y344479D01*
X-57735Y344501D01*
X-57607Y344515D01*
X-57544Y344535D01*
X-57478Y344546D01*
X-57359Y344594D01*
X-57236Y344633D01*
X-57178Y344665D01*
X-57116Y344690D01*
X-57009Y344761D01*
X-56896Y344824D01*
X-56846Y344868D01*
X-56790Y344904D01*
X-56699Y344995D01*
X-56602Y345080D01*
X-56562Y345133D01*
X-56515Y345180D01*
X-56445Y345288D01*
X-56367Y345391D01*
X-56339Y345451D01*
X-56302Y345507D01*
X-56255Y345627D01*
X-56200Y345743D01*
X-56184Y345808D01*
X-56160Y345870D01*
X-56148Y345956D01*
X-56108Y346122D01*
X-56103Y346292D01*
X-56091Y346379D01*
X-56091Y346532D01*
X-55382Y348243D01*
X-54072Y349553D01*
X-52361Y350262D01*
X-50509Y350262D01*
X-48798Y349553D01*
X-47488Y348243D01*
X-46779Y346532D01*
X-46779Y344680D01*
X-47488Y342969D01*
X-48798Y341659D01*
X-50509Y340950D01*
X-51606Y340950D01*
X-51672Y340943D01*
X-51739Y340946D01*
X-51866Y340924D01*
X-51994Y340910D01*
X-52057Y340890D01*
X-52123Y340879D01*
X-52242Y340831D01*
X-52365Y340792D01*
X-52423Y340760D01*
X-52485Y340735D01*
X-52592Y340664D01*
X-52705Y340601D01*
X-52755Y340557D01*
X-52811Y340521D01*
X-52902Y340430D01*
X-52999Y340345D01*
X-53039Y340292D01*
X-53086Y340245D01*
X-53156Y340137D01*
X-53234Y340034D01*
X-53262Y339974D01*
X-53299Y339918D01*
X-53346Y339798D01*
X-53401Y339682D01*
X-53417Y339617D01*
X-53441Y339555D01*
X-53453Y339469D01*
X-53493Y339303D01*
X-53498Y339133D01*
X-53510Y339046D01*
X-53510Y338893D01*
X-54219Y337182D01*
X-55529Y335872D01*
X-57240Y335163D01*
X-59092Y335163D01*
G37*
%LPD*%
%LPC*%
G36*
X-454780Y263060D02*
X-454780Y263060D01*
X-456491Y263769D01*
X-457801Y265079D01*
X-458510Y266790D01*
X-458510Y268042D01*
X-458517Y268116D01*
X-458516Y268191D01*
X-458537Y268310D01*
X-458550Y268430D01*
X-458572Y268501D01*
X-458586Y268574D01*
X-458631Y268686D01*
X-458668Y268801D01*
X-458704Y268866D01*
X-458732Y268936D01*
X-458800Y269036D01*
X-458859Y269141D01*
X-458908Y269197D01*
X-458950Y269259D01*
X-459036Y269344D01*
X-459115Y269434D01*
X-459175Y269480D01*
X-459228Y269532D01*
X-459330Y269597D01*
X-459426Y269670D01*
X-459494Y269702D01*
X-459556Y269742D01*
X-459637Y269770D01*
X-459778Y269837D01*
X-459958Y269880D01*
X-460042Y269910D01*
X-460801Y270060D01*
X-461739Y270449D01*
X-462584Y271013D01*
X-463302Y271731D01*
X-463866Y272576D01*
X-464089Y273114D01*
X-459297Y273114D01*
X-453853Y273114D01*
X-453815Y273048D01*
X-453765Y272992D01*
X-453723Y272930D01*
X-453636Y272846D01*
X-453556Y272756D01*
X-453496Y272712D01*
X-453442Y272660D01*
X-453369Y272617D01*
X-453243Y272524D01*
X-453075Y272446D01*
X-452998Y272401D01*
X-451217Y271663D01*
X-449907Y270353D01*
X-449198Y268642D01*
X-449198Y266790D01*
X-449907Y265079D01*
X-451217Y263769D01*
X-452928Y263060D01*
X-454780Y263060D01*
G37*
%LPD*%
%LPC*%
G36*
X-174835Y305009D02*
X-174835Y305009D01*
X-179626Y305009D01*
X-179404Y305547D01*
X-179285Y305724D01*
X-179250Y305790D01*
X-179207Y305851D01*
X-179160Y305962D01*
X-179103Y306068D01*
X-179082Y306140D01*
X-179053Y306209D01*
X-179028Y306327D01*
X-178995Y306443D01*
X-178989Y306517D01*
X-178974Y306590D01*
X-178974Y306711D01*
X-178965Y306831D01*
X-178975Y306905D01*
X-178975Y306980D01*
X-179000Y307098D01*
X-179015Y307218D01*
X-179040Y307288D01*
X-179055Y307362D01*
X-179103Y307472D01*
X-179143Y307586D01*
X-179181Y307650D01*
X-179211Y307719D01*
X-179263Y307786D01*
X-179343Y307921D01*
X-179468Y308057D01*
X-179522Y308128D01*
X-180288Y308894D01*
X-180997Y310605D01*
X-180997Y312457D01*
X-180288Y314168D01*
X-178978Y315478D01*
X-177267Y316187D01*
X-175415Y316187D01*
X-173704Y315478D01*
X-172394Y314168D01*
X-171685Y312457D01*
X-171685Y310605D01*
X-172192Y309383D01*
X-172213Y309311D01*
X-172243Y309242D01*
X-172269Y309124D01*
X-172303Y309009D01*
X-172309Y308935D01*
X-172325Y308861D01*
X-172326Y308741D01*
X-172336Y308621D01*
X-172327Y308546D01*
X-172328Y308471D01*
X-172304Y308353D01*
X-172290Y308234D01*
X-172266Y308163D01*
X-172251Y308089D01*
X-172204Y307979D01*
X-172165Y307864D01*
X-172127Y307800D01*
X-172098Y307731D01*
X-172029Y307632D01*
X-171968Y307528D01*
X-171918Y307473D01*
X-171875Y307411D01*
X-171811Y307355D01*
X-171707Y307239D01*
X-171599Y307161D01*
X-170830Y306391D01*
X-170266Y305547D01*
X-170043Y305009D01*
X-174834Y305009D01*
X-174835Y305009D01*
X-174835Y305009D01*
G37*
%LPD*%
%LPC*%
G36*
X-170090Y262044D02*
X-170090Y262044D01*
X-171801Y262753D01*
X-173111Y264063D01*
X-173820Y265774D01*
X-173820Y267626D01*
X-172984Y269644D01*
X-172958Y269732D01*
X-172922Y269816D01*
X-172902Y269918D01*
X-172872Y270018D01*
X-172865Y270109D01*
X-172847Y270198D01*
X-172848Y270302D01*
X-172839Y270406D01*
X-172850Y270497D01*
X-172851Y270588D01*
X-172873Y270690D01*
X-172886Y270793D01*
X-172915Y270879D01*
X-172935Y270969D01*
X-172969Y271039D01*
X-173010Y271162D01*
X-173121Y271352D01*
X-173160Y271431D01*
X-173798Y272386D01*
X-174021Y272924D01*
X-169229Y272924D01*
X-164437Y272924D01*
X-164660Y272386D01*
X-165236Y271524D01*
X-165271Y271458D01*
X-165314Y271397D01*
X-165362Y271286D01*
X-165418Y271179D01*
X-165439Y271107D01*
X-165469Y271039D01*
X-165493Y270921D01*
X-165527Y270805D01*
X-165532Y270730D01*
X-165547Y270657D01*
X-165547Y270536D01*
X-165556Y270416D01*
X-165547Y270342D01*
X-165547Y270267D01*
X-165522Y270149D01*
X-165506Y270030D01*
X-165482Y269959D01*
X-165466Y269886D01*
X-165418Y269775D01*
X-165379Y269661D01*
X-165340Y269597D01*
X-165310Y269529D01*
X-165280Y269488D01*
X-164508Y267626D01*
X-164508Y265774D01*
X-165217Y264063D01*
X-166527Y262753D01*
X-168238Y262044D01*
X-170090Y262044D01*
G37*
%LPD*%
%LPC*%
G36*
X-318262Y306704D02*
X-318262Y306704D01*
X-323054Y306704D01*
X-322831Y307242D01*
X-322338Y307980D01*
X-322295Y308061D01*
X-322244Y308136D01*
X-322204Y308233D01*
X-322156Y308324D01*
X-322130Y308412D01*
X-322096Y308497D01*
X-322076Y308599D01*
X-322047Y308699D01*
X-322041Y308790D01*
X-322024Y308880D01*
X-322026Y308984D01*
X-322018Y309088D01*
X-322029Y309178D01*
X-322031Y309269D01*
X-322051Y309345D01*
X-322068Y309474D01*
X-322140Y309682D01*
X-322162Y309767D01*
X-322983Y311748D01*
X-322983Y313600D01*
X-322274Y315311D01*
X-320964Y316621D01*
X-319253Y317330D01*
X-317898Y317330D01*
X-317880Y317332D01*
X-317862Y317330D01*
X-317687Y317351D01*
X-317510Y317370D01*
X-317493Y317375D01*
X-317475Y317377D01*
X-317307Y317434D01*
X-317138Y317488D01*
X-317123Y317496D01*
X-317106Y317502D01*
X-316953Y317592D01*
X-316799Y317679D01*
X-316785Y317691D01*
X-316770Y317700D01*
X-316639Y317819D01*
X-316505Y317935D01*
X-316499Y317943D01*
X-316491Y317900D01*
X-316460Y317725D01*
X-316454Y317709D01*
X-316450Y317691D01*
X-316381Y317526D01*
X-316317Y317363D01*
X-316307Y317348D01*
X-316300Y317332D01*
X-316200Y317185D01*
X-316102Y317038D01*
X-316090Y317025D01*
X-316079Y317010D01*
X-315970Y316905D01*
X-315958Y316889D01*
X-314380Y315311D01*
X-313671Y313600D01*
X-313671Y311748D01*
X-314442Y309887D01*
X-314468Y309799D01*
X-314504Y309715D01*
X-314524Y309613D01*
X-314554Y309513D01*
X-314562Y309422D01*
X-314579Y309333D01*
X-314578Y309229D01*
X-314587Y309125D01*
X-314576Y309034D01*
X-314575Y308943D01*
X-314553Y308841D01*
X-314540Y308738D01*
X-314511Y308651D01*
X-314492Y308562D01*
X-314457Y308492D01*
X-314416Y308368D01*
X-314305Y308179D01*
X-314266Y308100D01*
X-313693Y307242D01*
X-313470Y306704D01*
X-318262Y306704D01*
X-318262Y306704D01*
G37*
%LPD*%
%LPC*%
G36*
X-313171Y261573D02*
X-313171Y261573D01*
X-314882Y262282D01*
X-316192Y263592D01*
X-316901Y265303D01*
X-316901Y267155D01*
X-316116Y269050D01*
X-316090Y269137D01*
X-316054Y269221D01*
X-316034Y269324D01*
X-316004Y269423D01*
X-315997Y269514D01*
X-315979Y269604D01*
X-315980Y269708D01*
X-315971Y269812D01*
X-315982Y269902D01*
X-315983Y269994D01*
X-316005Y270095D01*
X-316018Y270199D01*
X-316047Y270285D01*
X-316067Y270374D01*
X-316101Y270444D01*
X-316142Y270568D01*
X-316253Y270758D01*
X-316292Y270837D01*
X-316800Y271597D01*
X-317023Y272135D01*
X-312231Y272135D01*
X-307439Y272135D01*
X-307662Y271597D01*
X-308187Y270811D01*
X-308230Y270730D01*
X-308281Y270654D01*
X-308321Y270558D01*
X-308370Y270466D01*
X-308395Y270378D01*
X-308430Y270294D01*
X-308449Y270192D01*
X-308478Y270092D01*
X-308485Y270001D01*
X-308502Y269911D01*
X-308500Y269807D01*
X-308508Y269703D01*
X-308496Y269613D01*
X-308494Y269521D01*
X-308474Y269446D01*
X-308458Y269316D01*
X-308386Y269109D01*
X-308363Y269024D01*
X-307589Y267155D01*
X-307589Y265303D01*
X-308298Y263592D01*
X-309608Y262282D01*
X-311319Y261573D01*
X-313171Y261573D01*
G37*
%LPD*%
%LPC*%
G36*
X-459183Y303402D02*
X-459183Y303402D01*
X-459204Y303419D01*
X-459251Y303466D01*
X-459359Y303536D01*
X-459462Y303614D01*
X-459522Y303642D01*
X-459578Y303679D01*
X-459698Y303726D01*
X-459814Y303781D01*
X-459879Y303797D01*
X-459941Y303821D01*
X-460027Y303833D01*
X-460193Y303873D01*
X-460363Y303878D01*
X-460450Y303890D01*
X-462001Y303890D01*
X-463712Y304599D01*
X-465022Y305909D01*
X-465731Y307620D01*
X-465731Y309472D01*
X-465022Y311183D01*
X-463712Y312493D01*
X-462001Y313202D01*
X-460149Y313202D01*
X-458438Y312493D01*
X-457128Y311183D01*
X-456419Y309472D01*
X-456419Y308473D01*
X-456413Y308415D01*
X-456416Y308357D01*
X-456393Y308221D01*
X-456379Y308085D01*
X-456362Y308029D01*
X-456352Y307972D01*
X-456303Y307844D01*
X-456261Y307713D01*
X-456233Y307663D01*
X-456212Y307608D01*
X-456138Y307493D01*
X-456070Y307374D01*
X-456032Y307330D01*
X-456000Y307281D01*
X-455904Y307183D01*
X-455814Y307080D01*
X-455768Y307045D01*
X-455727Y307003D01*
X-455612Y306927D01*
X-455503Y306845D01*
X-455450Y306820D01*
X-455402Y306787D01*
X-455294Y306744D01*
X-455294Y303402D01*
X-459183Y303402D01*
G37*
%LPD*%
%LPC*%
G36*
X-149126Y221198D02*
X-149126Y221198D01*
X-149135Y221213D01*
X-149262Y221339D01*
X-149386Y221466D01*
X-149400Y221476D01*
X-149412Y221488D01*
X-149561Y221585D01*
X-149708Y221685D01*
X-149724Y221692D01*
X-149738Y221701D01*
X-149904Y221766D01*
X-150069Y221834D01*
X-150085Y221837D01*
X-150101Y221843D01*
X-150162Y221851D01*
X-150452Y221906D01*
X-150548Y221904D01*
X-150610Y221912D01*
X-151373Y221912D01*
X-153084Y222621D01*
X-154394Y223931D01*
X-155103Y225642D01*
X-155103Y227494D01*
X-154394Y229205D01*
X-153084Y230515D01*
X-151373Y231224D01*
X-149521Y231224D01*
X-147810Y230515D01*
X-146500Y229205D01*
X-145791Y227494D01*
X-145791Y225642D01*
X-146500Y223931D01*
X-147810Y222621D01*
X-147990Y222546D01*
X-148005Y222538D01*
X-148021Y222533D01*
X-148177Y222446D01*
X-148333Y222361D01*
X-148346Y222350D01*
X-148361Y222342D01*
X-148495Y222224D01*
X-148631Y222110D01*
X-148642Y222097D01*
X-148654Y222086D01*
X-148762Y221943D01*
X-148872Y221803D01*
X-148879Y221788D01*
X-148890Y221775D01*
X-148966Y221614D01*
X-149045Y221454D01*
X-149049Y221438D01*
X-149057Y221423D01*
X-149099Y221250D01*
X-149115Y221187D01*
X-149126Y221198D01*
G37*
%LPD*%
%LPC*%
G36*
X-79392Y337970D02*
X-79392Y337970D01*
X-81103Y338679D01*
X-82413Y339988D01*
X-83121Y341700D01*
X-83121Y343552D01*
X-82413Y345263D01*
X-81103Y346573D01*
X-79392Y347281D01*
X-77540Y347281D01*
X-75828Y346573D01*
X-74519Y345263D01*
X-73810Y343552D01*
X-73810Y341700D01*
X-74519Y339988D01*
X-75828Y338679D01*
X-77540Y337970D01*
X-79392Y337970D01*
G37*
%LPD*%
%LPC*%
G36*
X-314406Y213994D02*
X-314406Y213994D01*
X-316117Y214703D01*
X-317427Y216013D01*
X-318136Y217724D01*
X-318136Y219576D01*
X-317427Y221287D01*
X-316117Y222597D01*
X-314406Y223306D01*
X-312554Y223306D01*
X-310843Y222597D01*
X-309533Y221287D01*
X-308824Y219576D01*
X-308824Y217724D01*
X-309533Y216013D01*
X-310843Y214703D01*
X-312554Y213994D01*
X-314406Y213994D01*
G37*
%LPD*%
%LPC*%
G36*
X-112805Y298239D02*
X-112805Y298239D01*
X-114516Y298948D01*
X-115826Y300258D01*
X-116535Y301969D01*
X-116535Y303821D01*
X-115826Y305532D01*
X-114516Y306842D01*
X-112805Y307551D01*
X-110953Y307551D01*
X-109242Y306842D01*
X-107932Y305532D01*
X-107223Y303821D01*
X-107223Y301969D01*
X-107932Y300258D01*
X-109242Y298948D01*
X-110953Y298239D01*
X-112805Y298239D01*
G37*
%LPD*%
%LPC*%
G36*
X-151294Y242994D02*
X-151294Y242994D01*
X-153005Y243703D01*
X-154315Y245013D01*
X-155024Y246724D01*
X-155024Y248576D01*
X-154315Y250287D01*
X-153005Y251597D01*
X-151294Y252306D01*
X-149442Y252306D01*
X-147731Y251597D01*
X-146421Y250287D01*
X-145712Y248576D01*
X-145712Y246724D01*
X-146421Y245013D01*
X-147731Y243703D01*
X-149442Y242994D01*
X-151294Y242994D01*
G37*
%LPD*%
%LPC*%
G36*
X-293669Y246296D02*
X-293669Y246296D01*
X-295380Y247005D01*
X-296690Y248315D01*
X-297399Y250026D01*
X-297399Y251878D01*
X-296690Y253589D01*
X-295380Y254899D01*
X-293669Y255608D01*
X-291817Y255608D01*
X-290106Y254899D01*
X-288796Y253589D01*
X-288087Y251878D01*
X-288087Y250026D01*
X-288796Y248315D01*
X-290106Y247005D01*
X-291817Y246296D01*
X-293669Y246296D01*
G37*
%LPD*%
%LPC*%
G36*
X-82968Y289222D02*
X-82968Y289222D01*
X-84679Y289931D01*
X-85989Y291241D01*
X-86698Y292952D01*
X-86698Y294804D01*
X-85989Y296515D01*
X-84679Y297825D01*
X-82968Y298534D01*
X-81116Y298534D01*
X-79405Y297825D01*
X-78095Y296515D01*
X-77386Y294804D01*
X-77386Y292952D01*
X-78095Y291241D01*
X-79405Y289931D01*
X-81116Y289222D01*
X-82968Y289222D01*
G37*
%LPD*%
%LPC*%
G36*
X-149159Y284521D02*
X-149159Y284521D01*
X-150870Y285230D01*
X-152180Y286539D01*
X-152889Y288251D01*
X-152889Y290103D01*
X-152180Y291814D01*
X-150870Y293123D01*
X-149159Y293832D01*
X-147307Y293832D01*
X-145596Y293123D01*
X-144286Y291814D01*
X-143577Y290103D01*
X-143577Y288251D01*
X-144286Y286539D01*
X-145596Y285230D01*
X-147307Y284521D01*
X-149159Y284521D01*
G37*
%LPD*%
%LPC*%
G36*
X-436536Y278046D02*
X-436536Y278046D01*
X-438247Y278755D01*
X-439557Y280065D01*
X-440266Y281776D01*
X-440266Y283628D01*
X-439557Y285339D01*
X-438247Y286649D01*
X-436536Y287358D01*
X-434684Y287358D01*
X-432973Y286649D01*
X-431663Y285339D01*
X-430954Y283628D01*
X-430954Y281776D01*
X-431663Y280065D01*
X-432973Y278755D01*
X-434684Y278046D01*
X-436536Y278046D01*
G37*
%LPD*%
%LPC*%
G36*
X-272138Y277224D02*
X-272138Y277224D01*
X-273849Y277933D01*
X-275159Y279242D01*
X-275867Y280954D01*
X-275867Y282806D01*
X-275159Y284517D01*
X-273849Y285827D01*
X-272138Y286535D01*
X-270286Y286535D01*
X-268574Y285827D01*
X-267265Y284517D01*
X-266556Y282806D01*
X-266556Y280954D01*
X-267265Y279242D01*
X-268574Y277933D01*
X-270286Y277224D01*
X-272138Y277224D01*
G37*
%LPD*%
%LPC*%
G36*
X-380656Y276776D02*
X-380656Y276776D01*
X-382367Y277485D01*
X-383677Y278795D01*
X-384386Y280506D01*
X-384386Y282358D01*
X-383677Y284069D01*
X-382367Y285379D01*
X-380656Y286088D01*
X-378804Y286088D01*
X-377093Y285379D01*
X-375783Y284069D01*
X-375074Y282358D01*
X-375074Y280506D01*
X-375783Y278795D01*
X-377093Y277485D01*
X-378804Y276776D01*
X-380656Y276776D01*
G37*
%LPD*%
%LPC*%
G36*
X-394626Y276776D02*
X-394626Y276776D01*
X-396337Y277485D01*
X-397647Y278795D01*
X-398356Y280506D01*
X-398356Y282358D01*
X-397647Y284069D01*
X-396337Y285379D01*
X-394626Y286088D01*
X-392774Y286088D01*
X-391063Y285379D01*
X-389753Y284069D01*
X-389044Y282358D01*
X-389044Y280506D01*
X-389753Y278795D01*
X-391063Y277485D01*
X-392774Y276776D01*
X-394626Y276776D01*
G37*
%LPD*%
%LPC*%
G36*
X-239051Y275125D02*
X-239051Y275125D01*
X-240762Y275834D01*
X-242072Y277144D01*
X-242781Y278855D01*
X-242781Y280707D01*
X-242072Y282418D01*
X-240762Y283728D01*
X-239051Y284437D01*
X-237199Y284437D01*
X-235488Y283728D01*
X-234178Y282418D01*
X-233469Y280707D01*
X-233469Y278855D01*
X-234178Y277144D01*
X-235488Y275834D01*
X-237199Y275125D01*
X-239051Y275125D01*
G37*
%LPD*%
%LPC*%
G36*
X-431710Y247566D02*
X-431710Y247566D01*
X-433421Y248275D01*
X-434731Y249585D01*
X-435440Y251296D01*
X-435440Y253148D01*
X-434731Y254859D01*
X-433421Y256169D01*
X-431710Y256878D01*
X-429858Y256878D01*
X-428147Y256169D01*
X-426837Y254859D01*
X-426128Y253148D01*
X-426128Y251296D01*
X-426837Y249585D01*
X-428147Y248275D01*
X-429858Y247566D01*
X-431710Y247566D01*
G37*
%LPD*%
%LPC*%
G36*
X-114790Y252709D02*
X-114790Y252709D01*
X-116501Y253417D01*
X-117811Y254727D01*
X-118520Y256438D01*
X-118520Y258290D01*
X-117811Y260002D01*
X-116501Y261311D01*
X-114790Y262020D01*
X-112938Y262020D01*
X-111227Y261311D01*
X-109917Y260002D01*
X-109208Y258290D01*
X-109208Y256438D01*
X-109917Y254727D01*
X-111227Y253417D01*
X-112938Y252709D01*
X-114790Y252709D01*
G37*
%LPD*%
%LPC*%
G36*
X-416913Y310085D02*
X-416913Y310085D01*
X-418625Y310794D01*
X-419934Y312104D01*
X-420643Y313815D01*
X-420643Y315667D01*
X-419934Y317378D01*
X-418625Y318688D01*
X-416913Y319397D01*
X-415061Y319397D01*
X-413350Y318688D01*
X-412040Y317378D01*
X-411332Y315667D01*
X-411332Y313815D01*
X-412040Y312104D01*
X-413350Y310794D01*
X-415061Y310085D01*
X-416913Y310085D01*
G37*
%LPD*%
%LPC*%
G36*
X-274992Y304462D02*
X-274992Y304462D01*
X-276703Y305171D01*
X-278013Y306481D01*
X-278722Y308192D01*
X-278722Y310044D01*
X-278013Y311755D01*
X-276703Y313065D01*
X-274992Y313774D01*
X-273140Y313774D01*
X-271429Y313065D01*
X-270119Y311755D01*
X-269410Y310044D01*
X-269410Y308192D01*
X-270119Y306481D01*
X-271429Y305171D01*
X-273140Y304462D01*
X-274992Y304462D01*
G37*
%LPD*%
%LPC*%
G36*
X-474890Y309288D02*
X-474890Y309288D01*
X-476601Y309997D01*
X-477911Y311307D01*
X-478620Y313018D01*
X-478620Y314870D01*
X-477911Y316581D01*
X-476601Y317891D01*
X-474890Y318600D01*
X-473038Y318600D01*
X-471327Y317891D01*
X-470017Y316581D01*
X-469308Y314870D01*
X-469308Y313018D01*
X-470017Y311307D01*
X-471327Y309997D01*
X-473038Y309288D01*
X-474890Y309288D01*
G37*
%LPD*%
%LPC*%
G36*
X-231812Y187622D02*
X-231812Y187622D01*
X-233523Y188331D01*
X-234833Y189641D01*
X-235542Y191352D01*
X-235542Y193204D01*
X-234833Y194915D01*
X-233523Y196225D01*
X-231812Y196934D01*
X-229960Y196934D01*
X-228249Y196225D01*
X-226939Y194915D01*
X-226230Y193204D01*
X-226230Y191352D01*
X-226939Y189641D01*
X-228249Y188331D01*
X-229960Y187622D01*
X-231812Y187622D01*
G37*
%LPD*%
%LPC*%
G36*
X-526830Y192999D02*
X-526830Y192999D01*
X-526457Y194147D01*
X-525778Y195480D01*
X-524899Y196689D01*
X-523841Y197747D01*
X-522632Y198626D01*
X-521299Y199305D01*
X-520151Y199678D01*
X-520151Y192999D01*
X-526830Y192999D01*
G37*
%LPD*%
%LPC*%
G36*
X-515153Y192999D02*
X-515153Y192999D01*
X-515153Y199678D01*
X-514005Y199305D01*
X-512672Y198626D01*
X-511463Y197747D01*
X-510405Y196689D01*
X-509526Y195480D01*
X-508847Y194147D01*
X-508474Y192999D01*
X-515153Y192999D01*
G37*
%LPD*%
%LPC*%
G36*
X-485376Y203072D02*
X-485376Y203072D01*
X-485368Y203099D01*
X-485364Y203149D01*
X-485352Y203197D01*
X-485351Y203230D01*
X-485345Y203235D01*
X-485343Y203238D01*
X-485341Y203241D01*
X-485332Y203256D01*
X-485137Y203565D01*
X-485128Y203587D01*
X-484549Y204455D01*
X-483831Y205173D01*
X-482986Y205737D01*
X-482448Y205960D01*
X-482448Y203645D01*
X-482441Y203572D01*
X-482443Y203498D01*
X-482421Y203378D01*
X-482408Y203257D01*
X-482386Y203187D01*
X-482373Y203114D01*
X-482356Y203072D01*
X-485376Y203072D01*
G37*
%LPD*%
%LPC*%
G36*
X-478732Y203072D02*
X-478732Y203072D01*
X-478731Y203080D01*
X-478709Y203135D01*
X-478697Y203223D01*
X-478655Y203402D01*
X-478651Y203560D01*
X-478640Y203645D01*
X-478640Y205960D01*
X-478102Y205737D01*
X-477257Y205173D01*
X-476539Y204455D01*
X-475975Y203610D01*
X-475752Y203072D01*
X-478732Y203072D01*
G37*
%LPD*%
%LPC*%
G36*
X-216120Y188340D02*
X-216120Y188340D01*
X-215897Y188878D01*
X-215333Y189723D01*
X-214615Y190441D01*
X-213770Y191005D01*
X-213232Y191228D01*
X-213232Y188340D01*
X-216120Y188340D01*
G37*
%LPD*%
%LPC*%
G36*
X-174021Y276732D02*
X-174021Y276732D01*
X-173798Y277270D01*
X-173234Y278115D01*
X-172516Y278833D01*
X-171671Y279397D01*
X-171133Y279620D01*
X-171133Y276732D01*
X-174021Y276732D01*
G37*
%LPD*%
%LPC*%
G36*
X-462754Y256158D02*
X-462754Y256158D01*
X-462531Y256696D01*
X-461967Y257541D01*
X-461249Y258259D01*
X-460404Y258823D01*
X-459866Y259046D01*
X-459866Y256158D01*
X-462754Y256158D01*
G37*
%LPD*%
%LPC*%
G36*
X-413224Y220852D02*
X-413224Y220852D01*
X-413001Y221390D01*
X-412437Y222235D01*
X-411719Y222953D01*
X-410874Y223517D01*
X-410336Y223740D01*
X-410336Y220852D01*
X-413224Y220852D01*
G37*
%LPD*%
%LPC*%
G36*
X-464089Y276922D02*
X-464089Y276922D01*
X-463866Y277460D01*
X-463302Y278305D01*
X-462584Y279023D01*
X-461739Y279587D01*
X-461201Y279810D01*
X-461201Y276922D01*
X-464089Y276922D01*
G37*
%LPD*%
%LPC*%
G36*
X-317023Y275943D02*
X-317023Y275943D01*
X-316800Y276481D01*
X-316236Y277326D01*
X-315518Y278044D01*
X-314673Y278608D01*
X-314135Y278831D01*
X-314135Y275943D01*
X-317023Y275943D01*
G37*
%LPD*%
%LPC*%
G36*
X-319185Y252145D02*
X-319185Y252145D01*
X-318962Y252683D01*
X-318398Y253528D01*
X-317680Y254246D01*
X-316835Y254810D01*
X-316297Y255033D01*
X-316297Y252145D01*
X-319185Y252145D01*
G37*
%LPD*%
%LPC*%
G36*
X-132808Y336930D02*
X-132808Y336930D01*
X-132585Y337468D01*
X-132021Y338313D01*
X-131303Y339031D01*
X-130458Y339595D01*
X-129920Y339818D01*
X-129920Y336930D01*
X-132808Y336930D01*
G37*
%LPD*%
%LPC*%
G36*
X-421860Y344550D02*
X-421860Y344550D01*
X-421637Y345088D01*
X-421073Y345933D01*
X-420355Y346651D01*
X-419510Y347215D01*
X-418972Y347438D01*
X-418972Y344550D01*
X-421860Y344550D01*
G37*
%LPD*%
%LPC*%
G36*
X-457393Y276922D02*
X-457393Y276922D01*
X-457393Y279810D01*
X-456855Y279587D01*
X-456010Y279023D01*
X-455292Y278305D01*
X-454728Y277460D01*
X-454505Y276922D01*
X-457393Y276922D01*
G37*
%LPD*%
%LPC*%
G36*
X-456058Y256158D02*
X-456058Y256158D01*
X-456058Y259046D01*
X-455520Y258823D01*
X-454675Y258259D01*
X-453957Y257541D01*
X-453393Y256696D01*
X-453170Y256158D01*
X-456058Y256158D01*
G37*
%LPD*%
%LPC*%
G36*
X-455832Y296929D02*
X-455832Y296929D01*
X-456677Y297493D01*
X-457395Y298211D01*
X-457959Y299056D01*
X-458182Y299594D01*
X-455294Y299594D01*
X-455294Y296706D01*
X-455832Y296929D01*
G37*
%LPD*%
%LPC*%
G36*
X-312489Y252145D02*
X-312489Y252145D01*
X-312489Y255033D01*
X-311951Y254810D01*
X-311106Y254246D01*
X-310388Y253528D01*
X-309824Y252683D01*
X-309601Y252145D01*
X-312489Y252145D01*
G37*
%LPD*%
%LPC*%
G36*
X-168530Y252094D02*
X-168530Y252094D01*
X-168530Y254982D01*
X-167992Y254759D01*
X-167147Y254195D01*
X-166429Y253477D01*
X-165865Y252632D01*
X-165642Y252094D01*
X-168530Y252094D01*
G37*
%LPD*%
%LPC*%
G36*
X-451486Y303402D02*
X-451486Y303402D01*
X-451486Y306290D01*
X-450948Y306067D01*
X-450103Y305503D01*
X-449385Y304785D01*
X-448821Y303940D01*
X-448598Y303402D01*
X-451486Y303402D01*
G37*
%LPD*%
%LPC*%
G36*
X-460404Y249685D02*
X-460404Y249685D01*
X-461249Y250249D01*
X-461967Y250967D01*
X-462531Y251812D01*
X-462754Y252350D01*
X-459866Y252350D01*
X-459866Y249462D01*
X-460404Y249685D01*
G37*
%LPD*%
%LPC*%
G36*
X-316835Y245672D02*
X-316835Y245672D01*
X-317680Y246236D01*
X-318398Y246954D01*
X-318962Y247799D01*
X-319185Y248337D01*
X-316297Y248337D01*
X-316297Y245449D01*
X-316835Y245672D01*
G37*
%LPD*%
%LPC*%
G36*
X-177277Y298536D02*
X-177277Y298536D01*
X-178121Y299100D01*
X-178839Y299818D01*
X-179403Y300662D01*
X-179626Y301200D01*
X-176739Y301200D01*
X-176739Y298313D01*
X-177277Y298536D01*
G37*
%LPD*%
%LPC*%
G36*
X-320704Y300231D02*
X-320704Y300231D01*
X-321549Y300795D01*
X-322267Y301513D01*
X-322831Y302358D01*
X-323054Y302896D01*
X-320166Y302896D01*
X-320166Y300008D01*
X-320704Y300231D01*
G37*
%LPD*%
%LPC*%
G36*
X-167325Y276732D02*
X-167325Y276732D01*
X-167325Y279620D01*
X-166787Y279397D01*
X-165942Y278833D01*
X-165224Y278115D01*
X-164660Y277270D01*
X-164437Y276732D01*
X-167325Y276732D01*
G37*
%LPD*%
%LPC*%
G36*
X-130458Y330457D02*
X-130458Y330457D01*
X-131303Y331021D01*
X-132021Y331739D01*
X-132585Y332584D01*
X-132808Y333122D01*
X-129920Y333122D01*
X-129920Y330234D01*
X-130458Y330457D01*
G37*
%LPD*%
%LPC*%
G36*
X-410874Y214379D02*
X-410874Y214379D01*
X-411719Y214943D01*
X-412437Y215661D01*
X-413001Y216506D01*
X-413224Y217044D01*
X-410336Y217044D01*
X-410336Y214156D01*
X-410874Y214379D01*
G37*
%LPD*%
%LPC*%
G36*
X-123473Y211712D02*
X-123473Y211712D01*
X-124318Y212276D01*
X-125036Y212994D01*
X-125600Y213839D01*
X-125823Y214377D01*
X-122935Y214377D01*
X-122935Y211489D01*
X-123473Y211712D01*
G37*
%LPD*%
%LPC*%
G36*
X-419510Y338077D02*
X-419510Y338077D01*
X-420355Y338641D01*
X-421073Y339359D01*
X-421637Y340204D01*
X-421860Y340742D01*
X-418972Y340742D01*
X-418972Y337854D01*
X-419510Y338077D01*
G37*
%LPD*%
%LPC*%
G36*
X-415164Y344550D02*
X-415164Y344550D01*
X-415164Y347438D01*
X-414626Y347215D01*
X-413781Y346651D01*
X-413063Y345933D01*
X-412499Y345088D01*
X-412276Y344550D01*
X-415164Y344550D01*
G37*
%LPD*%
%LPC*%
G36*
X-310327Y275943D02*
X-310327Y275943D01*
X-310327Y278831D01*
X-309789Y278608D01*
X-308944Y278044D01*
X-308226Y277326D01*
X-307662Y276481D01*
X-307439Y275943D01*
X-310327Y275943D01*
G37*
%LPD*%
%LPC*%
G36*
X-316993Y197061D02*
X-316993Y197061D01*
X-316993Y199949D01*
X-316455Y199726D01*
X-315610Y199162D01*
X-314892Y198444D01*
X-314328Y197599D01*
X-314105Y197061D01*
X-316993Y197061D01*
G37*
%LPD*%
%LPC*%
G36*
X-482986Y196599D02*
X-482986Y196599D01*
X-483831Y197163D01*
X-484549Y197881D01*
X-485113Y198726D01*
X-485336Y199264D01*
X-482448Y199264D01*
X-482448Y196376D01*
X-482986Y196599D01*
G37*
%LPD*%
%LPC*%
G36*
X-265812Y354202D02*
X-265812Y354202D01*
X-265812Y357090D01*
X-265274Y356867D01*
X-264429Y356303D01*
X-263711Y355585D01*
X-263147Y354740D01*
X-262924Y354202D01*
X-265812Y354202D01*
G37*
%LPD*%
%LPC*%
G36*
X-353978Y190249D02*
X-353978Y190249D01*
X-354823Y190813D01*
X-355541Y191531D01*
X-356105Y192376D01*
X-356328Y192914D01*
X-353440Y192914D01*
X-353440Y190026D01*
X-353978Y190249D01*
G37*
%LPD*%
%LPC*%
G36*
X-456058Y252350D02*
X-456058Y252350D01*
X-453170Y252350D01*
X-453393Y251812D01*
X-453957Y250967D01*
X-454675Y250249D01*
X-455520Y249685D01*
X-456058Y249462D01*
X-456058Y252350D01*
G37*
%LPD*%
%LPC*%
G36*
X-312489Y248337D02*
X-312489Y248337D01*
X-309601Y248337D01*
X-309824Y247799D01*
X-310388Y246954D01*
X-311106Y246236D01*
X-311951Y245672D01*
X-312489Y245449D01*
X-312489Y248337D01*
G37*
%LPD*%
%LPC*%
G36*
X-265812Y350394D02*
X-265812Y350394D01*
X-262924Y350394D01*
X-263147Y349856D01*
X-263711Y349011D01*
X-264429Y348293D01*
X-265274Y347729D01*
X-265812Y347506D01*
X-265812Y350394D01*
G37*
%LPD*%
%LPC*%
G36*
X-316358Y302896D02*
X-316358Y302896D01*
X-313470Y302896D01*
X-313693Y302358D01*
X-314257Y301513D01*
X-314975Y300795D01*
X-315820Y300231D01*
X-316358Y300008D01*
X-316358Y302896D01*
G37*
%LPD*%
%LPC*%
G36*
X-478640Y199264D02*
X-478640Y199264D01*
X-475752Y199264D01*
X-475975Y198726D01*
X-476539Y197881D01*
X-477257Y197163D01*
X-478102Y196599D01*
X-478640Y196376D01*
X-478640Y199264D01*
G37*
%LPD*%
%LPC*%
G36*
X-415164Y340742D02*
X-415164Y340742D01*
X-412276Y340742D01*
X-412499Y340204D01*
X-413063Y339359D01*
X-413781Y338641D01*
X-414626Y338077D01*
X-415164Y337854D01*
X-415164Y340742D01*
G37*
%LPD*%
%LPC*%
G36*
X-451486Y299594D02*
X-451486Y299594D01*
X-448598Y299594D01*
X-448821Y299056D01*
X-449385Y298211D01*
X-450103Y297493D01*
X-450948Y296929D01*
X-451486Y296706D01*
X-451486Y299594D01*
G37*
%LPD*%
%LPC*%
G36*
X-168530Y248286D02*
X-168530Y248286D01*
X-165642Y248286D01*
X-165865Y247748D01*
X-166429Y246903D01*
X-167147Y246185D01*
X-167992Y245621D01*
X-168530Y245398D01*
X-168530Y248286D01*
G37*
%LPD*%
%LPC*%
G36*
X-172930Y301200D02*
X-172930Y301200D01*
X-170043Y301200D01*
X-170266Y300662D01*
X-170830Y299818D01*
X-171548Y299100D01*
X-172392Y298536D01*
X-172930Y298313D01*
X-172930Y301200D01*
G37*
%LPD*%
D10*
X-41910Y466598D03*
X-67310Y491998D03*
X-295910Y466598D03*
X-321310Y491998D03*
X-346710Y466598D03*
X-372110Y491998D03*
X-397510Y466598D03*
X-422910Y491998D03*
X-576834Y491236D03*
X-551434Y465836D03*
X-576834Y440436D03*
X-551434Y415036D03*
X-92710Y466598D03*
X-576834Y389636D03*
X-551434Y364236D03*
X-576834Y338836D03*
X-551434Y313436D03*
X-118110Y491998D03*
X-143510Y466598D03*
X-168910Y491998D03*
X-194310Y466598D03*
X-219710Y491998D03*
X-245110Y466598D03*
X-270510Y491998D03*
X-42418Y378968D03*
X-564388Y250444D03*
D11*
X-528284Y56922D03*
X-460284Y56922D03*
D12*
X-418928Y52702D03*
X-346628Y52702D03*
D13*
X-350228Y28702D03*
X-415328Y28702D03*
D14*
X-563626Y110490D03*
X-185426Y110490D03*
D10*
X-513080Y259334D03*
D15*
X-379730Y281432D03*
X-393700Y281432D03*
X-430784Y252222D03*
X-292743Y250952D03*
X-238125Y279781D03*
X-260350Y316011D03*
X-111879Y302895D03*
X-457200Y125476D03*
D16*
X-457200Y103886D01*
X-463550Y103886D01*
D15*
X-463550Y103886D03*
X-82042Y293878D03*
X-131444Y313471D03*
X-274066Y309118D03*
X-415987Y314741D03*
X-148233Y289177D03*
X-435610Y282702D03*
X-150368Y247650D03*
X-113864Y257364D03*
X-473964Y313944D03*
X-96381Y386106D03*
D16*
X-96889Y385598D01*
D15*
X-164729Y385569D03*
X-167640Y350520D03*
D17*
X-166707Y351453D02*
X-166707Y385569D01*
D16*
X-166707Y351453D02*
X-167640Y350520D01*
D15*
X-277082Y382687D03*
D16*
X-277082Y339630D01*
X-279146Y337566D01*
D15*
X-279146Y337566D03*
X-353548Y389148D03*
D17*
X-319909Y389148D01*
X-313836Y383076D01*
D16*
X-277471Y383076D02*
X-277082Y382687D01*
D17*
X-277471Y383076D02*
X-313836Y383076D01*
D15*
X-466253Y397002D03*
D18*
X-458399Y389148D01*
D17*
X-353548Y389148D01*
D15*
X-271212Y281880D03*
D17*
X-277082Y382687D02*
X-245640Y382687D01*
D16*
X-242759Y385569D01*
D17*
X-166707Y385569D01*
D16*
X-164729Y385569D01*
X-164700Y385598D01*
D17*
X-96889Y385598D01*
D19*
X-411988Y396240D03*
X-207010Y366014D03*
X-223012Y397256D03*
X-586486Y301752D03*
X-30480Y330708D03*
X-246126Y497078D03*
X-547624Y499872D03*
X-498602Y217170D03*
X-420878Y204724D03*
X-355600Y209296D03*
X-275336Y210058D03*
X-212852Y210820D03*
X-134366Y202184D03*
D15*
X-408432Y218948D03*
X-264160Y218948D03*
X-121031Y216281D03*
X-174835Y303105D03*
X-318262Y304800D03*
X-453390Y301498D03*
X-312231Y274039D03*
X-459297Y275018D03*
X-169229Y274828D03*
X-128016Y335026D03*
X-267716Y352298D03*
X-417068Y342646D03*
X-211328Y186436D03*
X-175006Y186436D03*
D18*
X-480544Y201168D02*
X-480544Y259447D01*
X-465715Y274276D01*
D20*
X-517652Y190500D03*
D15*
X-457962Y254254D03*
X-314393Y250241D03*
X-351536Y194818D03*
X-318897Y195157D03*
X-480544Y201168D03*
D18*
X-460039Y274276D02*
X-459297Y275018D01*
X-460039Y274276D02*
X-465715Y274276D01*
D15*
X-170434Y250190D03*
X-399542Y79160D03*
X-313480Y218650D03*
D21*
X-338836Y105664D03*
D15*
X-413004Y89999D03*
X-348488Y87630D03*
X-337820Y68834D03*
X-376936Y137624D03*
D22*
X-376936Y128524D01*
X-385064Y120396D01*
X-385064Y119297D01*
X-384683Y118916D01*
D15*
X-384683Y118916D03*
X-466598Y290322D03*
X-465074Y185928D03*
X-342900Y283250D03*
X-203200Y282448D03*
X-328743Y287849D03*
X-213950Y152990D03*
X-182626Y284226D03*
X-55797Y282540D03*
X-77724Y188385D03*
X-526796Y290068D03*
D18*
X-526542Y290322D01*
X-466598Y290322D01*
D15*
X-180086Y62992D03*
X-156210Y214122D03*
X-110490Y366268D03*
X-150447Y226568D03*
X-105863Y373126D03*
X-147425Y214227D03*
X-49276Y408293D03*
X-138597Y217680D03*
X-90170Y396240D03*
X-112014Y216408D03*
X-74676Y408547D03*
X-107276Y225806D03*
X-83443Y368427D03*
X-102616Y216408D03*
X-98806Y407277D03*
X-94952Y225552D03*
X-78466Y342626D03*
X-116586Y376625D03*
X-123698Y407531D03*
X-176276Y330537D03*
X-177376Y406992D03*
X-149098Y407277D03*
D22*
X-148844Y407023D01*
D15*
X-165354Y394903D03*
X-168148Y407785D03*
X-157988Y352552D03*
X-152400Y369875D03*
X-198448Y407785D03*
X-127707Y365640D03*
X-122136Y360028D03*
X-299085Y218821D03*
X-225806Y407785D03*
X-293624Y225806D03*
X-257703Y405277D03*
X-290239Y218734D03*
X-250698Y409055D03*
X-282238Y220516D03*
X-278130Y392430D03*
X-255843Y219267D03*
X-275844Y408547D03*
X-250521Y226514D03*
X-242570Y374225D03*
X-244856Y218948D03*
X-237882Y363235D03*
X-300228Y407924D03*
X-239687Y226441D03*
X-230124Y367792D03*
X-321310Y409055D03*
X-318389Y355981D03*
X-310326Y355408D03*
X-311140Y393192D03*
X-339344Y407785D03*
X-299575Y352908D03*
X-334010Y362204D03*
X-371348Y410071D03*
X-358902Y379048D03*
X-403606Y407531D03*
X-360597Y402628D03*
X-356309Y409676D03*
X-351028Y333165D03*
X-214122Y338334D03*
X-58166Y339819D03*
D22*
X-209515Y338334D02*
X-214122Y338334D01*
X-191543Y272527D02*
X-183206Y264190D01*
D15*
X-162286Y194290D03*
D22*
X-183206Y202002D02*
X-183206Y264190D01*
X-162286Y194290D02*
X-162286Y194036D01*
X-175240Y194036D01*
X-183206Y202002D01*
X-191543Y272527D02*
X-191543Y287005D01*
X-196240Y291702D01*
X-196240Y308847D01*
X-200196Y312803D01*
X-200196Y329015D01*
X-209515Y338334D01*
D15*
X-176341Y311531D03*
X-342773Y317023D03*
D22*
X-341228Y315478D02*
X-341228Y293515D01*
X-341228Y315478D02*
X-342773Y317023D01*
X-341228Y293515D02*
X-334459Y286746D01*
X-334459Y280752D01*
X-326946Y273239D02*
X-326946Y195545D01*
X-320003Y188602D01*
X-304379Y188602D01*
X-326946Y273239D02*
X-334459Y280752D01*
D15*
X-205867Y324485D03*
D22*
X-205867Y314197D01*
X-199264Y307594D01*
X-199264Y290450D02*
X-194567Y285752D01*
X-194567Y271274D01*
X-199264Y290450D02*
X-199264Y307594D01*
X-194567Y271274D02*
X-186230Y262937D01*
D15*
X-60960Y324104D03*
X-223136Y142494D03*
D22*
X-186230Y155194D02*
X-186230Y262937D01*
X-60960Y318262D02*
X-60960Y324104D01*
X-60960Y318262D02*
X-68072Y311150D01*
X-223136Y142494D02*
X-258271Y142494D01*
X-304379Y188602D01*
D15*
X-180340Y153968D03*
D22*
X-185004Y153968D01*
X-186230Y155194D01*
X-68072Y164782D02*
X-68072Y311150D01*
X-68072Y164782D02*
X-71882Y160972D01*
D15*
X-71882Y160972D03*
X-118618Y225552D03*
X-118551Y336109D03*
X-168492Y322670D03*
D22*
X-168327Y322834D01*
X-118110Y322834D01*
X-118110Y335667D01*
X-118551Y336109D01*
D15*
X-399796Y218650D03*
X-495161Y459486D03*
X-475582Y458564D03*
X-391986Y218694D03*
X-472440Y450596D03*
X-386315Y227330D03*
X-494145Y441960D03*
X-467995Y444075D03*
X-382072Y220528D03*
X-456438Y435864D03*
X-440182Y218948D03*
X-426974Y411267D03*
X-459867Y373507D03*
X-434274Y225487D03*
X-493014Y468122D03*
X-428306Y218886D03*
X-492293Y490982D03*
X-422656Y224536D03*
X-482092Y473456D03*
X-494907Y418084D03*
X-464885Y324169D03*
X-495554Y407924D03*
X-472968Y331704D03*
X-482600Y375412D03*
X-494399Y389128D03*
X-473202Y342438D03*
D22*
X-494399Y389128D02*
X-494145Y389382D01*
D15*
X-481031Y383286D03*
X-465328Y342521D03*
X-471551Y376047D03*
X-493891Y371094D03*
X-489458Y357124D03*
X-465855Y359097D03*
X-495662Y338919D03*
X-503428Y127000D03*
X-449834Y122682D03*
X-491998Y104311D03*
X-318327Y312674D03*
X-461075Y308546D03*
X-400368Y228027D03*
X-411988Y359664D03*
X-454152Y324866D03*
D22*
X-454152Y325628D02*
X-453390Y326390D01*
X-454152Y325628D02*
X-454152Y324866D01*
X-453390Y326390D02*
X-402082Y326390D01*
X-402082Y349504D01*
X-411988Y359410D01*
X-411988Y359664D01*
D15*
X-60452Y301752D03*
D22*
X-62777Y299427D01*
X-62777Y272486D01*
X-46385Y239194D02*
X-52904Y232675D01*
X-46385Y263332D02*
X-50080Y267027D01*
X-46385Y263332D02*
X-46385Y239194D01*
X-57318Y267027D02*
X-62777Y272486D01*
X-57318Y267027D02*
X-50080Y267027D01*
D15*
X-114554Y132069D03*
D22*
X-114554Y132176D02*
X-112268Y134462D01*
X-114554Y132176D02*
X-114554Y132069D01*
X-52904Y155183D02*
X-52904Y232675D01*
X-52904Y155183D02*
X-64628Y143459D01*
X-90897Y143459D01*
X-90897Y141178D01*
X-97613Y134462D01*
X-112268Y134462D01*
D15*
X-57850Y250380D03*
D22*
X-57850Y249364D02*
X-56813Y248327D01*
X-57850Y249364D02*
X-57850Y250380D01*
X-56813Y248327D02*
X-56813Y241596D01*
X-102362Y145927D02*
X-102255Y145820D01*
D15*
X-102362Y145927D03*
D22*
X-62024Y158893D02*
X-62024Y236385D01*
X-62024Y158893D02*
X-68386Y152531D01*
X-98552Y152531D01*
X-102362Y148721D01*
X-102362Y145927D01*
X-62024Y236385D02*
X-56813Y241596D01*
D15*
X-52324Y261610D03*
D22*
X-49409Y240446D02*
X-55928Y233927D01*
X-52324Y261610D02*
X-52234Y261610D01*
X-49409Y258785D01*
X-49409Y240446D01*
X-116798Y137486D02*
X-116870Y137414D01*
X-118872Y137414D01*
X-120142Y136144D01*
X-120142Y81575D02*
X-118027Y79460D01*
X-118027Y59312D01*
X-120142Y81575D02*
X-120142Y136144D01*
X-118027Y59312D02*
X-117610Y58895D01*
D15*
X-117610Y58895D03*
D22*
X-116798Y137486D02*
X-98866Y137486D01*
X-93921Y145543D02*
X-92981Y146483D01*
X-93921Y142431D02*
X-98866Y137486D01*
X-93921Y142431D02*
X-93921Y145543D01*
X-92981Y146483D02*
X-65880Y146483D01*
X-55928Y156435D01*
X-55928Y233927D01*
D15*
X-62230Y243840D03*
D22*
X-100544Y155555D02*
X-110172Y145927D01*
D15*
X-110172Y145927D03*
D22*
X-65048Y160145D02*
X-65048Y241022D01*
X-65048Y160145D02*
X-69638Y155555D01*
X-100544Y155555D01*
X-65048Y241022D02*
X-62230Y243840D01*
D15*
X-62313Y256998D03*
D22*
X-55709Y256998D02*
X-52433Y253722D01*
X-55709Y256998D02*
X-62313Y256998D01*
X-52433Y253722D02*
X-52433Y241699D01*
X-58952Y235180D01*
D15*
X-123444Y77216D03*
D22*
X-123615Y77387D02*
X-123615Y136948D01*
X-123615Y77387D02*
X-123444Y77216D01*
X-123615Y136948D02*
X-120053Y140510D01*
X-100118Y140510D02*
X-96945Y143683D01*
X-96945Y146796D01*
X-94234Y149507D01*
X-100118Y140510D02*
X-120053Y140510D01*
X-94234Y149507D02*
X-67133Y149507D01*
X-58952Y157688D01*
X-58952Y235180D01*
D15*
X-200719Y249939D03*
D22*
X-198326Y247546D01*
X-198326Y143651D01*
X-193637Y138962D01*
X-153433Y138962D01*
D15*
X-151828Y141419D03*
D22*
X-151828Y140567D02*
X-153433Y138962D01*
X-151828Y140567D02*
X-151828Y141419D01*
D15*
X-205294Y256478D03*
D22*
X-199452Y256478D02*
X-195302Y252329D01*
X-199452Y256478D02*
X-205294Y256478D01*
X-195302Y252329D02*
X-195302Y144903D01*
X-162608Y142288D02*
X-162306Y141986D01*
X-192687Y142288D02*
X-195302Y144903D01*
X-192687Y142288D02*
X-162608Y142288D01*
X-162306Y141986D02*
X-157202Y147090D01*
X-140461Y147090D02*
X-140462Y141986D01*
X-139954Y141986D01*
D15*
X-139954Y141986D03*
D22*
X-140461Y147090D02*
X-157202Y147090D01*
D15*
X-196088Y260858D03*
D22*
X-192278Y257048D01*
X-192278Y147845D01*
X-189745Y145312D01*
X-173265Y145312D02*
X-173184Y145394D01*
X-173265Y145312D02*
X-189745Y145312D01*
X-158750Y150114D02*
X-132334Y150114D01*
X-163470Y145394D02*
X-173184Y145394D01*
X-163470Y145394D02*
X-158750Y150114D01*
D15*
X-128953Y142792D03*
D22*
X-128953Y146733D01*
X-132334Y150114D01*
D15*
X-205521Y243746D03*
D22*
X-201350Y239575D01*
X-201350Y142398D01*
D15*
X-129032Y134873D03*
D22*
X-130097Y135938D01*
X-194890Y135938D01*
X-201350Y142398D01*
D15*
X-204935Y302811D03*
D22*
X-197591Y272269D02*
X-197973Y271887D01*
X-204935Y291844D02*
X-204935Y302811D01*
X-204935Y291844D02*
X-197591Y284499D01*
X-197591Y272269D01*
X-197973Y271887D02*
X-197973Y270403D01*
X-189254Y261685D01*
X-189254Y149352D01*
D15*
X-91694Y67564D03*
X-169228Y153714D03*
D22*
X-188238Y148336D02*
X-189254Y149352D01*
X-188238Y148336D02*
X-174606Y148336D01*
X-169228Y153714D01*
D15*
X-342392Y250361D03*
D22*
X-339042Y247011D01*
X-339042Y190535D01*
X-325013Y176506D02*
X-309389Y176506D01*
X-221505Y88622D01*
X-325013Y176506D02*
X-339042Y190535D01*
D15*
X-170434Y84582D03*
X-79668Y79502D03*
D22*
X-174474Y88622D02*
X-221505Y88622D01*
X-174474Y88622D02*
X-170434Y84582D01*
D15*
X-346776Y258261D03*
D22*
X-344293Y255778D01*
X-337779Y255778D01*
X-336018Y254017D01*
X-336018Y191787D01*
X-323761Y179530D02*
X-308137Y179530D01*
X-220253Y91646D01*
X-323761Y179530D02*
X-336018Y191787D01*
D15*
X-81534Y108458D03*
D22*
X-156464Y93726D02*
X-158544Y91646D01*
X-220253Y91646D01*
X-156464Y93028D02*
X-156464Y93726D01*
D15*
X-156464Y93028D03*
X-339852Y261874D03*
D22*
X-336550Y261874D02*
X-332994Y258318D01*
X-336550Y261874D02*
X-339852Y261874D01*
X-332994Y258318D02*
X-332994Y193040D01*
X-322508Y182554D01*
X-306884Y182554D01*
X-219072Y94742D01*
D15*
X-91567Y91313D03*
X-158750Y100838D03*
D22*
X-158750Y100330D01*
X-164338Y94742D01*
X-219072Y94742D01*
D15*
X-346314Y243492D03*
D22*
X-342250Y239428D01*
X-342250Y189466D01*
X-326266Y173482D01*
X-310642Y173482D01*
X-222758Y85598D01*
D15*
X-79772Y66810D03*
X-178244Y83205D03*
D22*
X-180637Y85598D01*
X-222758Y85598D01*
D15*
X-346645Y300990D03*
D22*
X-346645Y294656D01*
X-337483Y285494D01*
X-337483Y279499D01*
X-329970Y271986D01*
X-321255Y185578D02*
X-305632Y185578D01*
X-329970Y194293D02*
X-329970Y271986D01*
X-329970Y194293D02*
X-321255Y185578D01*
X-305632Y185578D02*
X-217844Y97790D01*
D15*
X-68623Y92245D03*
X-162560Y108204D03*
D22*
X-172974Y97790D01*
X-217844Y97790D01*
D15*
X-262117Y226833D03*
X-261366Y332994D03*
X-314198Y324802D03*
D22*
X-311722Y322326D01*
X-261620Y322326D01*
X-261366Y322580D01*
X-261366Y332994D01*
D15*
X-75819Y137541D03*
D22*
X-91186Y122174D01*
X-113030Y122174D01*
X-112193Y61139D02*
X-112193Y56651D01*
X-115366Y53478D01*
X-113030Y61976D02*
X-113030Y122174D01*
X-113030Y61976D02*
X-112193Y61139D01*
X-115366Y53478D02*
X-185928Y53478D01*
D15*
X-197104Y57658D03*
D22*
X-190108Y57658D01*
X-185928Y53478D01*
D15*
X-57404Y142494D03*
D22*
X-106958Y116126D02*
X-106958Y64457D01*
X-106145Y63644D01*
X-106145Y53732D01*
X-114665Y45212D01*
X-62147Y135437D02*
X-62147Y137751D01*
X-57404Y142494D01*
X-81458Y116126D02*
X-106958Y116126D01*
X-81458Y116126D02*
X-62147Y135437D01*
X-114665Y45212D02*
X-178054Y45212D01*
X-181375Y41891D02*
X-200894Y41891D01*
X-201041Y42038D01*
X-181375Y41891D02*
X-178054Y45212D01*
D15*
X-201041Y42038D03*
X-67564Y137681D03*
D22*
X-86095Y119150D01*
X-109982Y119150D01*
X-109169Y62391D02*
X-109169Y55399D01*
X-109982Y63205D02*
X-109982Y119150D01*
X-109982Y63205D02*
X-109169Y62391D01*
X-109169Y55399D02*
X-114251Y50316D01*
X-198668Y50316D01*
D15*
X-199136Y49848D03*
D22*
X-198668Y50316D01*
D15*
X-135890Y32766D03*
D22*
X-153924Y14732D01*
X-277622Y14732D01*
D15*
X-267843Y165735D03*
X-278130Y49276D03*
D22*
X-278130Y15240D02*
X-277622Y14732D01*
X-278130Y15240D02*
X-278130Y49276D01*
D15*
X-397256Y111296D03*
X-361950Y125730D03*
D21*
X-412743Y123502D03*
D15*
X-51435Y345606D03*
X-124968Y153968D03*
X-341376Y338582D03*
X-222566Y344108D03*
D22*
X-210504Y344108D01*
X-188519Y273779D02*
X-180182Y265443D01*
X-175619Y202079D02*
X-166475Y202079D01*
X-175619Y202079D02*
X-180182Y206642D01*
X-124968Y171494D02*
X-124968Y153968D01*
X-124968Y171494D02*
X-154029Y200555D01*
X-166475Y200555D01*
X-166475Y202079D01*
X-180182Y206642D02*
X-180182Y265443D01*
D15*
X-166475Y202079D03*
D22*
X-188519Y273779D02*
X-188519Y288257D01*
X-193216Y292955D01*
X-193216Y310100D01*
X-197172Y314055D01*
X-197172Y330775D01*
X-210504Y344108D01*
D15*
X-118872Y148903D03*
X-42736Y321859D03*
X-203008Y274512D03*
X-341137Y275492D03*
X-57360Y274730D03*
X-169164Y266700D03*
X-312245Y266229D03*
X-453854Y267716D03*
X-408432Y79077D03*
X-451358Y218650D03*
X-437261Y90849D03*
D23*
X-278130Y113284D03*
D15*
X-373126Y205442D03*
X-373380Y226568D03*
X-231648Y226060D03*
X-230886Y192278D03*
X-473710Y178308D03*
D16*
X-400260Y178308D01*
X-373126Y205442D01*
D15*
X-278130Y82042D03*
X-173482Y24130D03*
M02*
