G04 EAGLE Gerber RS-274X export*
G75*
%MOMM*%
%FSLAX34Y34*%
%LPD*%
%INSolderpaste Bottom*%
%IPPOS*%
%AMOC8*
5,1,8,0,0,1.08239X$1,22.5*%
G01*
%ADD10R,0.620000X0.600000*%
%ADD11R,0.600000X0.620000*%
%ADD12R,0.460000X0.420000*%
%ADD13R,0.420000X0.460000*%
%ADD14R,0.300000X0.914400*%
%ADD15R,0.300000X0.904000*%
%ADD16R,0.914400X0.300000*%
%ADD17R,0.904000X0.300000*%
%ADD18R,0.950000X0.900000*%
%ADD19R,0.900000X0.950000*%


D10*
X-141224Y256060D03*
X-141224Y246860D03*
X-131064Y261338D03*
X-131064Y270538D03*
X-229870Y268196D03*
X-229870Y277396D03*
X-369570Y264132D03*
X-369570Y273332D03*
X-81534Y267490D03*
X-81534Y258290D03*
D11*
X-291874Y306324D03*
X-282674Y306324D03*
X-111224Y273050D03*
X-120424Y273050D03*
D10*
X-120396Y283436D03*
X-120396Y292636D03*
D11*
X-433352Y308102D03*
X-424152Y308102D03*
D10*
X-130810Y283690D03*
X-130810Y292890D03*
D11*
X-107470Y261874D03*
X-98270Y261874D03*
X-259306Y273558D03*
X-268506Y273558D03*
D10*
X-280162Y287246D03*
X-280162Y296446D03*
X-280162Y258092D03*
X-280162Y248892D03*
D11*
X-243050Y299466D03*
X-252250Y299466D03*
D10*
X-280162Y267942D03*
X-280162Y277142D03*
D11*
X-249710Y263906D03*
X-240510Y263906D03*
D10*
X-267970Y291056D03*
X-267970Y300256D03*
X-421386Y289024D03*
X-421386Y298224D03*
X-422910Y259362D03*
X-422910Y250162D03*
X-421386Y269974D03*
X-421386Y279174D03*
D11*
X-384020Y296672D03*
X-393220Y296672D03*
X-401800Y272542D03*
X-411000Y272542D03*
D10*
X-81534Y277340D03*
X-81534Y286540D03*
X-408940Y288262D03*
X-408940Y297462D03*
D11*
X-390680Y263652D03*
X-381480Y263652D03*
D10*
X-229870Y287246D03*
X-229870Y296446D03*
D12*
X-249680Y253746D03*
X-243080Y253746D03*
X-140718Y314960D03*
X-147318Y314960D03*
D13*
X-140970Y265432D03*
X-140970Y272032D03*
D12*
X-403100Y261112D03*
X-409700Y261112D03*
D13*
X-141478Y282704D03*
X-141478Y289304D03*
D12*
X-111254Y309880D03*
X-117854Y309880D03*
D11*
X-135918Y303022D03*
X-126718Y303022D03*
D12*
X-105662Y251714D03*
X-99062Y251714D03*
X-245620Y309626D03*
X-252220Y309626D03*
X-262384Y264160D03*
X-268984Y264160D03*
X-259590Y309626D03*
X-266190Y309626D03*
X-282196Y315214D03*
X-288796Y315214D03*
D13*
X-290322Y287784D03*
X-290322Y294384D03*
X-290576Y270512D03*
X-290576Y277112D03*
D12*
X-114048Y251714D03*
X-120648Y251714D03*
D11*
X-90904Y299720D03*
X-100104Y299720D03*
D12*
X-92204Y309880D03*
X-98804Y309880D03*
X-403100Y306832D03*
X-409700Y306832D03*
X-390650Y253492D03*
X-384050Y253492D03*
D13*
X-431038Y290070D03*
X-431038Y296670D03*
D12*
X-427484Y317246D03*
X-434084Y317246D03*
D13*
X-430530Y269242D03*
X-430530Y275842D03*
D12*
X-384050Y305562D03*
X-390650Y305562D03*
D10*
X-370840Y283182D03*
X-370840Y292382D03*
D14*
X-461852Y485034D03*
D15*
X-466852Y485034D03*
X-471852Y485034D03*
X-471852Y500994D03*
X-466852Y500994D03*
X-461852Y500994D03*
D14*
X-461598Y408326D03*
D15*
X-466598Y408326D03*
X-471598Y408326D03*
X-471598Y424286D03*
X-466598Y424286D03*
X-461598Y424286D03*
D16*
X-86466Y380826D03*
D17*
X-86466Y385826D03*
X-86466Y390826D03*
X-70506Y390826D03*
X-70506Y385826D03*
X-70506Y380826D03*
D16*
X-150982Y380826D03*
D17*
X-150982Y385826D03*
X-150982Y390826D03*
X-135022Y390826D03*
X-135022Y385826D03*
X-135022Y380826D03*
D16*
X-250042Y379556D03*
D17*
X-250042Y384556D03*
X-250042Y389556D03*
X-234082Y389556D03*
X-234082Y384556D03*
X-234082Y379556D03*
D16*
X-344022Y379048D03*
D17*
X-344022Y384048D03*
X-344022Y389048D03*
X-328062Y389048D03*
X-328062Y384048D03*
X-328062Y379048D03*
D18*
X-372110Y436498D03*
X-372110Y420498D03*
X-397510Y436498D03*
X-397510Y420498D03*
X-346710Y436498D03*
X-346710Y420498D03*
X-321310Y436498D03*
X-321310Y420498D03*
X-295910Y436498D03*
X-295910Y420498D03*
X-270510Y436498D03*
X-270510Y420498D03*
X-245110Y436498D03*
X-245110Y420498D03*
X-219710Y436498D03*
X-219710Y420498D03*
X-194056Y436244D03*
X-194056Y420244D03*
X-168910Y436498D03*
X-168910Y420498D03*
X-143510Y436498D03*
X-143510Y420498D03*
D19*
X-521080Y330200D03*
X-505080Y330200D03*
D18*
X-118110Y436498D03*
X-118110Y420498D03*
X-92710Y436498D03*
X-92710Y420498D03*
X-67056Y436752D03*
X-67056Y420752D03*
X-41910Y436498D03*
X-41910Y420498D03*
D19*
X-521334Y357378D03*
X-505334Y357378D03*
X-521334Y382778D03*
X-505334Y382778D03*
X-521334Y408178D03*
X-505334Y408178D03*
X-521334Y433578D03*
X-505334Y433578D03*
X-521334Y458978D03*
X-505334Y458978D03*
X-521334Y484378D03*
X-505334Y484378D03*
D18*
X-422910Y436498D03*
X-422910Y420498D03*
D16*
X-499512Y308784D03*
D17*
X-499512Y303784D03*
X-499512Y298784D03*
X-515472Y298784D03*
X-515472Y303784D03*
X-515472Y308784D03*
M02*
