G04 EAGLE Gerber RS-274X export*
G75*
%MOMM*%
%FSLAX34Y34*%
%LPD*%
%INSoldermask Top*%
%IPPOS*%
%AMOC8*
5,1,8,0,0,1.08239X$1,22.5*%
G01*
%ADD10R,0.460000X0.420000*%
%ADD11R,0.420000X0.460000*%
%ADD12R,0.620000X0.600000*%
%ADD13R,1.020000X0.870000*%
%ADD14R,0.870000X1.020000*%
%ADD15P,2.336880X8X22.500000*%
%ADD16R,0.350000X0.600000*%
%ADD17R,1.700000X1.100000*%
%ADD18R,0.850000X0.300000*%
%ADD19R,0.300000X0.850000*%
%ADD20R,7.700000X7.700000*%
%ADD21R,0.600000X1.200000*%
%ADD22C,1.110000*%
%ADD23C,1.110000*%
%ADD24R,0.700000X0.700000*%
%ADD25R,0.950000X0.950000*%
%ADD26R,0.950000X0.900000*%
%ADD27R,0.900000X0.950000*%
%ADD28R,0.625000X0.400000*%
%ADD29R,0.950000X1.000000*%
%ADD30R,0.400000X0.625000*%
%ADD31R,0.420000X0.440000*%
%ADD32R,1.100000X1.000000*%
%ADD33R,1.130000X2.440000*%
%ADD34R,1.000000X3.200000*%
%ADD35C,0.345000*%
%ADD36C,0.600000*%
%ADD37R,1.270000X0.558800*%
%ADD38R,0.304800X0.812800*%
%ADD39R,0.812800X0.304800*%
%ADD40R,1.701800X1.701800*%
%ADD41R,0.440000X0.420000*%
%ADD42R,1.200000X2.500000*%
%ADD43C,1.400000*%
%ADD44R,1.350000X0.400000*%
%ADD45R,1.900000X1.900000*%
%ADD46C,0.910000*%
%ADD47C,1.065000*%
%ADD48R,0.850000X0.650000*%
%ADD49C,1.785000*%
%ADD50C,1.980000*%
%ADD51R,0.650000X1.525000*%


D10*
X-265936Y117856D03*
X-259336Y117856D03*
D11*
X-104648Y213616D03*
X-104648Y220216D03*
X-131064Y176278D03*
X-131064Y182878D03*
D12*
X-119888Y184686D03*
X-119888Y175486D03*
D13*
X-96012Y176472D03*
X-96012Y162872D03*
D14*
X-231590Y71628D03*
X-217990Y71628D03*
D11*
X-396494Y100078D03*
X-396494Y106678D03*
D10*
X-179830Y147574D03*
X-173230Y147574D03*
D11*
X-311150Y110492D03*
X-311150Y117092D03*
D10*
X-179576Y159258D03*
X-172976Y159258D03*
X-342648Y169926D03*
X-349248Y169926D03*
D15*
X-177800Y495300D03*
X-203200Y520700D03*
X-431800Y495300D03*
X-457200Y520700D03*
X-482600Y495300D03*
X-508000Y520700D03*
X-533400Y495300D03*
X-558800Y520700D03*
X-571500Y419100D03*
X-546100Y393700D03*
X-571500Y368300D03*
X-546100Y342900D03*
X-228600Y495300D03*
X-571500Y317500D03*
X-546100Y292100D03*
X-571500Y266700D03*
X-546100Y241300D03*
X-254000Y520700D03*
X-279400Y495300D03*
X-304800Y520700D03*
X-330200Y495300D03*
X-355600Y520700D03*
X-381000Y495300D03*
X-406400Y520700D03*
D16*
X-133754Y209464D03*
X-127254Y209464D03*
X-120754Y209464D03*
X-120754Y230464D03*
X-127254Y230464D03*
X-133754Y230464D03*
D17*
X-127254Y219964D03*
D18*
X-426770Y379130D03*
X-426770Y374130D03*
X-426770Y369130D03*
X-426770Y364130D03*
X-426770Y359130D03*
X-426770Y354130D03*
X-426770Y349130D03*
X-426770Y344130D03*
X-426770Y339130D03*
X-426770Y334130D03*
X-426770Y329130D03*
X-426770Y324130D03*
X-426770Y319130D03*
X-426770Y314130D03*
X-426770Y309130D03*
X-426770Y304130D03*
D19*
X-419770Y297130D03*
X-414770Y297130D03*
X-409770Y297130D03*
X-404770Y297130D03*
X-399770Y297130D03*
X-394770Y297130D03*
X-389770Y297130D03*
X-384770Y297130D03*
X-379770Y297130D03*
X-374770Y297130D03*
X-369770Y297130D03*
X-364770Y297130D03*
X-359770Y297130D03*
X-354770Y297130D03*
X-349770Y297130D03*
X-344770Y297130D03*
D18*
X-337770Y304130D03*
X-337770Y309130D03*
X-337770Y314130D03*
X-337770Y319130D03*
X-337770Y324130D03*
X-337770Y329130D03*
X-337770Y334130D03*
X-337770Y339130D03*
X-337770Y344130D03*
X-337770Y349130D03*
X-337770Y354130D03*
X-337770Y359130D03*
X-337770Y364130D03*
X-337770Y369130D03*
X-337770Y374130D03*
X-337770Y379130D03*
D19*
X-344770Y386130D03*
X-349770Y386130D03*
X-354770Y386130D03*
X-359770Y386130D03*
X-364770Y386130D03*
X-369770Y386130D03*
X-374770Y386130D03*
X-379770Y386130D03*
X-384770Y386130D03*
X-389770Y386130D03*
X-394770Y386130D03*
X-399770Y386130D03*
X-404770Y386130D03*
X-409770Y386130D03*
X-414770Y386130D03*
X-419770Y386130D03*
D20*
X-382270Y341630D03*
D18*
X-139750Y432470D03*
X-139750Y427470D03*
X-139750Y422470D03*
X-139750Y417470D03*
X-139750Y412470D03*
X-139750Y407470D03*
X-139750Y402470D03*
X-139750Y397470D03*
X-139750Y392470D03*
X-139750Y387470D03*
X-139750Y382470D03*
X-139750Y377470D03*
X-139750Y372470D03*
X-139750Y367470D03*
X-139750Y362470D03*
X-139750Y357470D03*
D19*
X-132750Y350470D03*
X-127750Y350470D03*
X-122750Y350470D03*
X-117750Y350470D03*
X-112750Y350470D03*
X-107750Y350470D03*
X-102750Y350470D03*
X-97750Y350470D03*
X-92750Y350470D03*
X-87750Y350470D03*
X-82750Y350470D03*
X-77750Y350470D03*
X-72750Y350470D03*
X-67750Y350470D03*
X-62750Y350470D03*
X-57750Y350470D03*
D18*
X-50750Y357470D03*
X-50750Y362470D03*
X-50750Y367470D03*
X-50750Y372470D03*
X-50750Y377470D03*
X-50750Y382470D03*
X-50750Y387470D03*
X-50750Y392470D03*
X-50750Y397470D03*
X-50750Y402470D03*
X-50750Y407470D03*
X-50750Y412470D03*
X-50750Y417470D03*
X-50750Y422470D03*
X-50750Y427470D03*
X-50750Y432470D03*
D19*
X-57750Y439470D03*
X-62750Y439470D03*
X-67750Y439470D03*
X-72750Y439470D03*
X-77750Y439470D03*
X-82750Y439470D03*
X-87750Y439470D03*
X-92750Y439470D03*
X-97750Y439470D03*
X-102750Y439470D03*
X-107750Y439470D03*
X-112750Y439470D03*
X-117750Y439470D03*
X-122750Y439470D03*
X-127750Y439470D03*
X-132750Y439470D03*
D20*
X-95250Y394970D03*
D21*
X-334924Y135206D03*
X-353924Y135206D03*
X-344424Y113206D03*
D18*
X-268020Y379130D03*
X-268020Y374130D03*
X-268020Y369130D03*
X-268020Y364130D03*
X-268020Y359130D03*
X-268020Y354130D03*
X-268020Y349130D03*
X-268020Y344130D03*
X-268020Y339130D03*
X-268020Y334130D03*
X-268020Y329130D03*
X-268020Y324130D03*
X-268020Y319130D03*
X-268020Y314130D03*
X-268020Y309130D03*
X-268020Y304130D03*
D19*
X-261020Y297130D03*
X-256020Y297130D03*
X-251020Y297130D03*
X-246020Y297130D03*
X-241020Y297130D03*
X-236020Y297130D03*
X-231020Y297130D03*
X-226020Y297130D03*
X-221020Y297130D03*
X-216020Y297130D03*
X-211020Y297130D03*
X-206020Y297130D03*
X-201020Y297130D03*
X-196020Y297130D03*
X-191020Y297130D03*
X-186020Y297130D03*
D18*
X-179020Y304130D03*
X-179020Y309130D03*
X-179020Y314130D03*
X-179020Y319130D03*
X-179020Y324130D03*
X-179020Y329130D03*
X-179020Y334130D03*
X-179020Y339130D03*
X-179020Y344130D03*
X-179020Y349130D03*
X-179020Y354130D03*
X-179020Y359130D03*
X-179020Y364130D03*
X-179020Y369130D03*
X-179020Y374130D03*
X-179020Y379130D03*
D19*
X-186020Y386130D03*
X-191020Y386130D03*
X-196020Y386130D03*
X-201020Y386130D03*
X-206020Y386130D03*
X-211020Y386130D03*
X-216020Y386130D03*
X-221020Y386130D03*
X-226020Y386130D03*
X-231020Y386130D03*
X-236020Y386130D03*
X-241020Y386130D03*
X-246020Y386130D03*
X-251020Y386130D03*
X-256020Y386130D03*
X-261020Y386130D03*
D20*
X-223520Y341630D03*
D22*
X-66294Y264668D02*
X-66294Y253568D01*
X-66294Y277368D02*
X-66294Y288468D01*
X-78994Y264668D02*
X-78994Y253568D01*
X-78994Y277368D02*
X-78994Y288468D01*
X-91694Y264668D02*
X-91694Y253568D01*
X-91694Y277368D02*
X-91694Y288468D01*
X-104394Y264668D02*
X-104394Y253568D01*
X-104394Y277368D02*
X-104394Y288468D01*
X-117094Y264668D02*
X-117094Y253568D01*
D23*
X-117094Y277368D03*
D24*
X-434086Y79414D03*
X-434086Y68414D03*
D25*
X-395986Y55238D03*
X-395986Y70238D03*
D26*
X-190500Y465200D03*
X-190500Y449200D03*
X-215900Y465200D03*
X-215900Y449200D03*
X-241300Y465200D03*
X-241300Y449200D03*
X-266700Y465200D03*
X-266700Y449200D03*
X-292100Y465200D03*
X-292100Y449200D03*
X-317500Y465200D03*
X-317500Y449200D03*
X-342900Y465200D03*
X-342900Y449200D03*
X-368300Y465200D03*
X-368300Y449200D03*
X-393700Y465200D03*
X-393700Y449200D03*
X-419100Y465200D03*
X-419100Y449200D03*
X-444500Y465200D03*
X-444500Y449200D03*
X-469900Y465200D03*
X-469900Y449200D03*
X-495300Y465200D03*
X-495300Y449200D03*
X-520700Y465200D03*
X-520700Y449200D03*
X-546100Y465200D03*
X-546100Y449200D03*
X-571500Y465200D03*
X-571500Y449200D03*
D27*
X-516000Y241300D03*
X-500000Y241300D03*
X-517270Y420370D03*
X-501270Y420370D03*
X-516000Y393700D03*
X-500000Y393700D03*
X-516000Y368300D03*
X-500000Y368300D03*
X-516000Y342900D03*
X-500000Y342900D03*
X-516000Y317500D03*
X-500000Y317500D03*
X-516000Y292100D03*
X-500000Y292100D03*
X-516000Y266700D03*
X-500000Y266700D03*
X-184784Y248666D03*
X-168784Y248666D03*
D28*
X-120706Y163576D03*
X-112466Y163576D03*
D29*
X-214504Y52832D03*
X-230504Y52832D03*
D30*
X-93726Y212034D03*
X-93726Y220274D03*
X-108204Y184460D03*
X-108204Y176220D03*
D31*
X-458724Y82960D03*
X-458724Y89760D03*
X-448310Y82960D03*
X-448310Y89760D03*
D32*
X-125072Y144526D03*
X-138072Y144526D03*
X-124818Y131318D03*
X-137818Y131318D03*
D15*
X-139700Y520700D03*
D33*
X-517652Y117986D03*
X-492252Y117986D03*
X-466852Y117986D03*
X-466852Y204086D03*
X-492252Y204086D03*
X-517652Y204086D03*
D34*
X-293304Y143038D03*
X-253304Y143038D03*
X-253304Y211038D03*
X-293304Y211038D03*
D15*
X-101600Y520700D03*
D35*
X-31993Y106687D02*
X-31993Y98237D01*
X-35443Y98237D01*
X-35443Y106687D01*
X-31993Y106687D01*
X-31993Y101514D02*
X-35443Y101514D01*
X-35443Y104791D02*
X-31993Y104791D01*
X-46443Y106687D02*
X-46443Y98237D01*
X-46443Y106687D02*
X-42993Y106687D01*
X-42993Y98237D01*
X-46443Y98237D01*
X-46443Y101514D02*
X-42993Y101514D01*
X-42993Y104791D02*
X-46443Y104791D01*
X-57443Y106687D02*
X-57443Y98237D01*
X-57443Y106687D02*
X-53993Y106687D01*
X-53993Y98237D01*
X-57443Y98237D01*
X-57443Y101514D02*
X-53993Y101514D01*
X-53993Y104791D02*
X-57443Y104791D01*
X-68443Y106687D02*
X-68443Y98237D01*
X-68443Y106687D02*
X-64993Y106687D01*
X-64993Y98237D01*
X-68443Y98237D01*
X-68443Y101514D02*
X-64993Y101514D01*
X-64993Y104791D02*
X-68443Y104791D01*
X-79443Y106687D02*
X-79443Y98237D01*
X-79443Y106687D02*
X-75993Y106687D01*
X-75993Y98237D01*
X-79443Y98237D01*
X-79443Y101514D02*
X-75993Y101514D01*
X-75993Y104791D02*
X-79443Y104791D01*
X-90443Y106687D02*
X-90443Y98237D01*
X-90443Y106687D02*
X-86993Y106687D01*
X-86993Y98237D01*
X-90443Y98237D01*
X-90443Y101514D02*
X-86993Y101514D01*
X-86993Y104791D02*
X-90443Y104791D01*
X-101443Y106687D02*
X-101443Y98237D01*
X-101443Y106687D02*
X-97993Y106687D01*
X-97993Y98237D01*
X-101443Y98237D01*
X-101443Y101514D02*
X-97993Y101514D01*
X-97993Y104791D02*
X-101443Y104791D01*
X-112443Y106687D02*
X-112443Y98237D01*
X-112443Y106687D02*
X-108993Y106687D01*
X-108993Y98237D01*
X-112443Y98237D01*
X-112443Y101514D02*
X-108993Y101514D01*
X-108993Y104791D02*
X-112443Y104791D01*
X-112443Y30287D02*
X-112443Y21837D01*
X-112443Y30287D02*
X-108993Y30287D01*
X-108993Y21837D01*
X-112443Y21837D01*
X-112443Y25114D02*
X-108993Y25114D01*
X-108993Y28391D02*
X-112443Y28391D01*
X-101443Y30287D02*
X-101443Y21837D01*
X-101443Y30287D02*
X-97993Y30287D01*
X-97993Y21837D01*
X-101443Y21837D01*
X-101443Y25114D02*
X-97993Y25114D01*
X-97993Y28391D02*
X-101443Y28391D01*
X-90443Y30287D02*
X-90443Y21837D01*
X-90443Y30287D02*
X-86993Y30287D01*
X-86993Y21837D01*
X-90443Y21837D01*
X-90443Y25114D02*
X-86993Y25114D01*
X-86993Y28391D02*
X-90443Y28391D01*
X-79443Y30287D02*
X-79443Y21837D01*
X-79443Y30287D02*
X-75993Y30287D01*
X-75993Y21837D01*
X-79443Y21837D01*
X-79443Y25114D02*
X-75993Y25114D01*
X-75993Y28391D02*
X-79443Y28391D01*
X-68443Y30287D02*
X-68443Y21837D01*
X-68443Y30287D02*
X-64993Y30287D01*
X-64993Y21837D01*
X-68443Y21837D01*
X-68443Y25114D02*
X-64993Y25114D01*
X-64993Y28391D02*
X-68443Y28391D01*
X-57443Y30287D02*
X-57443Y21837D01*
X-57443Y30287D02*
X-53993Y30287D01*
X-53993Y21837D01*
X-57443Y21837D01*
X-57443Y25114D02*
X-53993Y25114D01*
X-53993Y28391D02*
X-57443Y28391D01*
X-46443Y30287D02*
X-46443Y21837D01*
X-46443Y30287D02*
X-42993Y30287D01*
X-42993Y21837D01*
X-46443Y21837D01*
X-46443Y25114D02*
X-42993Y25114D01*
X-42993Y28391D02*
X-46443Y28391D01*
X-35443Y30287D02*
X-35443Y21837D01*
X-35443Y30287D02*
X-31993Y30287D01*
X-31993Y21837D01*
X-35443Y21837D01*
X-35443Y25114D02*
X-31993Y25114D01*
X-31993Y28391D02*
X-35443Y28391D01*
D36*
X-111708Y81762D03*
X-111708Y69762D03*
X-111708Y57762D03*
X-111708Y45762D03*
X-99708Y81762D03*
X-99708Y69762D03*
X-99708Y57762D03*
X-99708Y45762D03*
X-87708Y81762D03*
X-87708Y69762D03*
X-87708Y57762D03*
X-87708Y45762D03*
X-75708Y81762D03*
X-75708Y69762D03*
X-75708Y57762D03*
X-75708Y45762D03*
X-63708Y81762D03*
X-63708Y69762D03*
X-63708Y57762D03*
X-63708Y45762D03*
D37*
X-366268Y71120D03*
X-366268Y61722D03*
X-366268Y52324D03*
X-340360Y52324D03*
X-340360Y71120D03*
D38*
X-210820Y122428D03*
X-215900Y122428D03*
X-220980Y122428D03*
X-226060Y122428D03*
D39*
X-233172Y115316D03*
X-233172Y110236D03*
X-233172Y105156D03*
X-233172Y100076D03*
D38*
X-226060Y92964D03*
X-220980Y92964D03*
X-215900Y92964D03*
X-210820Y92964D03*
D39*
X-203708Y100076D03*
X-203708Y105156D03*
X-203708Y110236D03*
X-203708Y115316D03*
D40*
X-218440Y107696D03*
D24*
X-396406Y173228D03*
X-385406Y173228D03*
D25*
X-399676Y142240D03*
X-384676Y142240D03*
D41*
X-262988Y53086D03*
X-256188Y53086D03*
X-263750Y35814D03*
X-256950Y35814D03*
D27*
X-229996Y30734D03*
X-213996Y30734D03*
X-187070Y30480D03*
X-171070Y30480D03*
X-187324Y53086D03*
X-171324Y53086D03*
X-171324Y72644D03*
X-187324Y72644D03*
D42*
X-530714Y82644D03*
X-505714Y82644D03*
X-480714Y82644D03*
D43*
X-539714Y55144D03*
X-471714Y55144D03*
D44*
X-60532Y180640D03*
D45*
X-33782Y155640D03*
X-33782Y179640D03*
D44*
X-60532Y154640D03*
X-60532Y161140D03*
X-60532Y167640D03*
X-60532Y174140D03*
D46*
X-62332Y131490D02*
X-53232Y131490D01*
X-53232Y203790D02*
X-62332Y203790D01*
D47*
X-39107Y200190D02*
X-28457Y200190D01*
X-28457Y135090D02*
X-39107Y135090D01*
D48*
X-269878Y99690D03*
X-269878Y83190D03*
X-254378Y83190D03*
X-254378Y99690D03*
D49*
X-564388Y121666D03*
X-186188Y121666D03*
D50*
X-564388Y40666D03*
D51*
X-225552Y157284D03*
X-212852Y157284D03*
X-200152Y157284D03*
X-187452Y157284D03*
X-187452Y211524D03*
X-200152Y211524D03*
X-212852Y211524D03*
X-225552Y211524D03*
M02*
