G04 EAGLE Gerber RS-274X export*
G75*
%MOMM*%
%FSLAX34Y34*%
%LPD*%
%IN*%
%IPPOS*%
%AMOC8*
5,1,8,0,0,1.08239X$1,22.5*%
G01*
%ADD10C,0.254000*%


D10*
X-607060Y18034D02*
X-601218Y13462D01*
X-26162Y13970D01*
X-18796Y21082D01*
X-18796Y538482D01*
X-24386Y544324D01*
X-31496Y550672D01*
X-595630Y550672D01*
X-607060Y539750D01*
X-607060Y18034D01*
X-65582Y203790D02*
X-65571Y203546D01*
X-65539Y203304D01*
X-65487Y203065D01*
X-65413Y202832D01*
X-65320Y202607D01*
X-65207Y202390D01*
X-65076Y202184D01*
X-64927Y201990D01*
X-64762Y201810D01*
X-64582Y201645D01*
X-64388Y201496D01*
X-64182Y201365D01*
X-63965Y201252D01*
X-63740Y201159D01*
X-63507Y201085D01*
X-63268Y201033D01*
X-63026Y201001D01*
X-62782Y200990D01*
X-52782Y200990D01*
X-52538Y201001D01*
X-52296Y201033D01*
X-52057Y201085D01*
X-51824Y201159D01*
X-51599Y201252D01*
X-51382Y201365D01*
X-51176Y201496D01*
X-50982Y201645D01*
X-50802Y201810D01*
X-50637Y201990D01*
X-50488Y202184D01*
X-50357Y202390D01*
X-50244Y202607D01*
X-50151Y202832D01*
X-50077Y203065D01*
X-50025Y203304D01*
X-49993Y203546D01*
X-49982Y203790D01*
X-49993Y204034D01*
X-50025Y204276D01*
X-50077Y204515D01*
X-50151Y204748D01*
X-50244Y204973D01*
X-50357Y205190D01*
X-50488Y205396D01*
X-50637Y205590D01*
X-50802Y205770D01*
X-50982Y205935D01*
X-51176Y206084D01*
X-51382Y206215D01*
X-51599Y206328D01*
X-51824Y206421D01*
X-52057Y206495D01*
X-52296Y206547D01*
X-52538Y206579D01*
X-52782Y206590D01*
X-62782Y206590D01*
X-63026Y206579D01*
X-63268Y206547D01*
X-63507Y206495D01*
X-63740Y206421D01*
X-63965Y206328D01*
X-64182Y206215D01*
X-64388Y206084D01*
X-64582Y205935D01*
X-64762Y205770D01*
X-64927Y205590D01*
X-65076Y205396D01*
X-65207Y205190D01*
X-65320Y204973D01*
X-65413Y204748D01*
X-65487Y204515D01*
X-65539Y204276D01*
X-65571Y204034D01*
X-65582Y203790D01*
X-65582Y131490D02*
X-65571Y131246D01*
X-65539Y131004D01*
X-65487Y130765D01*
X-65413Y130532D01*
X-65320Y130307D01*
X-65207Y130090D01*
X-65076Y129884D01*
X-64927Y129690D01*
X-64762Y129510D01*
X-64582Y129345D01*
X-64388Y129196D01*
X-64182Y129065D01*
X-63965Y128952D01*
X-63740Y128859D01*
X-63507Y128785D01*
X-63268Y128733D01*
X-63026Y128701D01*
X-62782Y128690D01*
X-52782Y128690D01*
X-52538Y128701D01*
X-52296Y128733D01*
X-52057Y128785D01*
X-51824Y128859D01*
X-51599Y128952D01*
X-51382Y129065D01*
X-51176Y129196D01*
X-50982Y129345D01*
X-50802Y129510D01*
X-50637Y129690D01*
X-50488Y129884D01*
X-50357Y130090D01*
X-50244Y130307D01*
X-50151Y130532D01*
X-50077Y130765D01*
X-50025Y131004D01*
X-49993Y131246D01*
X-49982Y131490D01*
X-49993Y131734D01*
X-50025Y131976D01*
X-50077Y132215D01*
X-50151Y132448D01*
X-50244Y132673D01*
X-50357Y132890D01*
X-50488Y133096D01*
X-50637Y133290D01*
X-50802Y133470D01*
X-50982Y133635D01*
X-51176Y133784D01*
X-51382Y133915D01*
X-51599Y134028D01*
X-51824Y134121D01*
X-52057Y134195D01*
X-52296Y134247D01*
X-52538Y134279D01*
X-52782Y134290D01*
X-62782Y134290D01*
X-63026Y134279D01*
X-63268Y134247D01*
X-63507Y134195D01*
X-63740Y134121D01*
X-63965Y134028D01*
X-64182Y133915D01*
X-64388Y133784D01*
X-64582Y133635D01*
X-64762Y133470D01*
X-64927Y133290D01*
X-65076Y133096D01*
X-65207Y132890D01*
X-65320Y132673D01*
X-65413Y132448D01*
X-65487Y132215D01*
X-65539Y131976D01*
X-65571Y131734D01*
X-65582Y131490D01*
X-43382Y200140D02*
X-43364Y199831D01*
X-43319Y199524D01*
X-43248Y199223D01*
X-43151Y198929D01*
X-43028Y198644D01*
X-42881Y198372D01*
X-42711Y198113D01*
X-42519Y197870D01*
X-42307Y197644D01*
X-42076Y197438D01*
X-41827Y197253D01*
X-41564Y197091D01*
X-41287Y196951D01*
X-40999Y196837D01*
X-40703Y196748D01*
X-40399Y196685D01*
X-40092Y196649D01*
X-39782Y196640D01*
X-27782Y196640D01*
X-27472Y196649D01*
X-27165Y196685D01*
X-26862Y196748D01*
X-26565Y196837D01*
X-26277Y196951D01*
X-26000Y197091D01*
X-25737Y197253D01*
X-25488Y197438D01*
X-25257Y197644D01*
X-25045Y197870D01*
X-24853Y198113D01*
X-24683Y198372D01*
X-24536Y198644D01*
X-24413Y198929D01*
X-24316Y199223D01*
X-24245Y199524D01*
X-24200Y199831D01*
X-24182Y200140D01*
X-24196Y200454D01*
X-24237Y200765D01*
X-24305Y201072D01*
X-24399Y201371D01*
X-24519Y201661D01*
X-24664Y201940D01*
X-24833Y202205D01*
X-25024Y202454D01*
X-25236Y202686D01*
X-25468Y202898D01*
X-25717Y203089D01*
X-25982Y203258D01*
X-26261Y203403D01*
X-26551Y203523D01*
X-26850Y203617D01*
X-27157Y203685D01*
X-27468Y203726D01*
X-27782Y203740D01*
X-39782Y203740D01*
X-40096Y203726D01*
X-40407Y203685D01*
X-40714Y203617D01*
X-41013Y203523D01*
X-41303Y203403D01*
X-41582Y203258D01*
X-41847Y203089D01*
X-42096Y202898D01*
X-42328Y202686D01*
X-42540Y202454D01*
X-42731Y202205D01*
X-42900Y201940D01*
X-43045Y201661D01*
X-43165Y201371D01*
X-43259Y201072D01*
X-43327Y200765D01*
X-43368Y200454D01*
X-43382Y200140D01*
X-43382Y135140D02*
X-43368Y134826D01*
X-43327Y134515D01*
X-43259Y134208D01*
X-43165Y133909D01*
X-43045Y133619D01*
X-42900Y133340D01*
X-42731Y133075D01*
X-42540Y132826D01*
X-42328Y132594D01*
X-42096Y132382D01*
X-41847Y132191D01*
X-41582Y132022D01*
X-41303Y131877D01*
X-41013Y131757D01*
X-40714Y131663D01*
X-40407Y131595D01*
X-40096Y131554D01*
X-39782Y131540D01*
X-27782Y131540D01*
X-27468Y131554D01*
X-27157Y131595D01*
X-26850Y131663D01*
X-26551Y131757D01*
X-26261Y131877D01*
X-25982Y132022D01*
X-25717Y132191D01*
X-25468Y132382D01*
X-25236Y132594D01*
X-25024Y132826D01*
X-24833Y133075D01*
X-24664Y133340D01*
X-24519Y133619D01*
X-24399Y133909D01*
X-24305Y134208D01*
X-24237Y134515D01*
X-24196Y134826D01*
X-24182Y135140D01*
X-24200Y135449D01*
X-24245Y135756D01*
X-24316Y136057D01*
X-24413Y136351D01*
X-24536Y136636D01*
X-24683Y136908D01*
X-24853Y137167D01*
X-25045Y137410D01*
X-25257Y137636D01*
X-25488Y137842D01*
X-25737Y138027D01*
X-26000Y138189D01*
X-26277Y138329D01*
X-26565Y138443D01*
X-26862Y138532D01*
X-27165Y138595D01*
X-27472Y138631D01*
X-27782Y138640D01*
X-39782Y138640D01*
X-40092Y138631D01*
X-40399Y138595D01*
X-40703Y138532D01*
X-40999Y138443D01*
X-41287Y138329D01*
X-41564Y138189D01*
X-41827Y138027D01*
X-42076Y137842D01*
X-42307Y137636D01*
X-42519Y137410D01*
X-42711Y137167D01*
X-42881Y136908D01*
X-43028Y136636D01*
X-43151Y136351D01*
X-43248Y136057D01*
X-43319Y135756D01*
X-43364Y135449D01*
X-43382Y135140D01*
X-554488Y41098D02*
X-554563Y41959D01*
X-554713Y42811D01*
X-554937Y43646D01*
X-555233Y44458D01*
X-555598Y45242D01*
X-556030Y45990D01*
X-556526Y46698D01*
X-557082Y47361D01*
X-557693Y47972D01*
X-558356Y48528D01*
X-559064Y49024D01*
X-559812Y49456D01*
X-560596Y49821D01*
X-561408Y50117D01*
X-562243Y50341D01*
X-563095Y50491D01*
X-563956Y50566D01*
X-564820Y50566D01*
X-565681Y50491D01*
X-566533Y50341D01*
X-567368Y50117D01*
X-568180Y49821D01*
X-568964Y49456D01*
X-569712Y49024D01*
X-570420Y48528D01*
X-571083Y47972D01*
X-571694Y47361D01*
X-572250Y46698D01*
X-572746Y45990D01*
X-573178Y45242D01*
X-573543Y44458D01*
X-573839Y43646D01*
X-574063Y42811D01*
X-574213Y41959D01*
X-574288Y41098D01*
X-574288Y40234D01*
X-574213Y39373D01*
X-574063Y38521D01*
X-573839Y37686D01*
X-573543Y36874D01*
X-573178Y36090D01*
X-572746Y35342D01*
X-572250Y34634D01*
X-571694Y33971D01*
X-571083Y33360D01*
X-570420Y32804D01*
X-569712Y32308D01*
X-568964Y31876D01*
X-568180Y31511D01*
X-567368Y31215D01*
X-566533Y30991D01*
X-565681Y30841D01*
X-564820Y30766D01*
X-563956Y30766D01*
X-563095Y30841D01*
X-562243Y30991D01*
X-561408Y31215D01*
X-560596Y31511D01*
X-559812Y31876D01*
X-559064Y32308D01*
X-558356Y32804D01*
X-557693Y33360D01*
X-557082Y33971D01*
X-556526Y34634D01*
X-556030Y35342D01*
X-555598Y36090D01*
X-555233Y36874D01*
X-554937Y37686D01*
X-554713Y38521D01*
X-554563Y39373D01*
X-554488Y40234D01*
X-554488Y41098D01*
M02*
